<svg width="181" height="165" xmlns="http://www.w3.org/2000/svg" xmlns:xlink="http://www.w3.org/1999/xlink"><svg width="114.47" height="99" viewBox="-1 -1 107.44 92.94" xmlns="http://www.w3.org/2000/svg"><path d="M25 90.936l15-52.333H15V15.937h30.877l4.686-15H0V53.49h20.889l-6.557 22.446H0v15zM52.253 1.334L27.174 90.936h15l9.889-35.396 2.956 10.349h-3.826l-4.019 15.04h12.13l2.87 10.007h15zm52.095-.397v89.999h-25l-25-90h15l20 75v-75z" fill="#4cb5f5" fill-rule="evenodd"/></svg><svg height="32" viewBox="-1 -1 27 32" width="27" x="114.47" y="53.2" xmlns="http://www.w3.org/2000/svg"><path d="M-2 6h24v24H-2zm0 0h24v24H-2zm0 0h24v24H-2z" fill="none"/><path d="M22.5 0h-20v2.5h20zm-20 30h20v-2.5h-20zm20-25h-20A2.507 2.507 0 0 0 0 7.5v15C0 23.875 1.125 25 2.5 25h20c1.375 0 2.5-1.125 2.5-2.5v-15C25 6.125 23.875 5 22.5 5zm-10 3.438a2.817 2.817 0 0 1 2.813 2.812 2.817 2.817 0 0 1-2.813 2.813 2.817 2.817 0 0 1-2.813-2.813A2.817 2.817 0 0 1 12.5 8.437zm6.25 12.812H6.25v-1.875c0-2.087 4.162-3.125 6.25-3.125 2.087 0 6.25 1.038 6.25 3.125z" fill="#4cb5f5"/></svg><svg height="32" viewBox="-1 -1 32 32" width="32" x="141.47" y="53.2" xmlns="http://www.w3.org/2000/svg"><path d="M29.561 13.942L16.058.44a1.494 1.494 0 0 0-2.116 0L.44 13.942a1.494 1.494 0 0 0 0 2.116L13.942 29.56c.585.585 1.53.585 2.116 0L29.56 16.058c.585-.57.585-1.516 0-2.116zm-11.568 4.816v-3.75h-6.001v4.5H8.99v-6c0-.826.675-1.501 1.5-1.501h7.502V8.256l5.252 5.251z" fill="#4cb5f5"/><path d="M-2.007 8.008h24v24h-24z" fill="none"/></svg><svg height="20" viewBox="-1 -1 24.5 20" width="24.5" x="155" y="99" xmlns="http://www.w3.org/2000/svg"><path d="M20.25 0h-18A2.247 2.247 0 0 0 .011 2.25L0 15.75A2.257 2.257 0 0 0 2.25 18h18a2.257 2.257 0 0 0 2.25-2.25V2.25A2.257 2.257 0 0 0 20.25 0zm0 4.5l-9 5.625-9-5.625V2.25l9 5.625 9-5.625z" fill="#b3c100"/><path d="M-2-2h24v24H-2z" fill="none"/></svg><svg height="53.2" viewBox="-1 -1 66 53.2" width="66" x="114.47" xmlns="http://www.w3.org/2000/svg"><path d="M57.6 0H6.4C2.88 0 .032 2.88.032 6.4L0 44.8c0 3.52 2.88 6.4 6.4 6.4h51.2c3.52 0 6.4-2.88 6.4-6.4V6.4C64 2.88 61.12 0 57.6 0zm0 12.8L32 28.8l-25.6-16V6.4l25.6 16 25.6-16z" fill="#b3c100"/><path d="M-2 31.2h24v24H-2z" fill="none"/></svg><svg height="32" viewBox="-1 -1 23 32" width="23" x="132" y="99" xmlns="http://www.w3.org/2000/svg"><path d="M10.5 0C4.695 0 0 4.695 0 10.5 0 18.375 10.5 30 10.5 30S21 18.375 21 10.5C21 4.695 16.305 0 10.5 0zm0 14.25c-2.07 0-3.75-1.68-3.75-3.75 0-2.07 1.68-3.75 3.75-3.75 2.07 0 3.75 1.68 3.75 3.75 0 2.07-1.68 3.75-3.75 3.75z" fill="#4cb5f5"/><path d="M-5 8h24v24H-5z" fill="none"/></svg><svg height="66" viewBox="-1 -1 66 66" width="66" y="99" xmlns="http://www.w3.org/2000/svg"><path d="M6.4 0h51.2c3.52 0 6.368 2.88 6.368 6.4L64 64 51.2 51.2H6.4c-3.52 0-6.4-2.88-6.4-6.4V6.4C0 2.88 2.88 0 6.4 0zm6.4 38.4h38.4V32H12.8zm0-9.6h38.4v-6.4H12.8zm0-9.6h38.4v-6.4H12.8z" fill="#b3c100"/><path d="M-2 42h24v24H-2z" fill="none"/></svg><svg height="20" viewBox="-1 -1 20 20" width="20" x="132" y="131" xmlns="http://www.w3.org/2000/svg"><path d="M-3-3h24v24H-3z" fill="none"/><path d="M3.62 7.79c1.44 2.83 3.76 5.14 6.59 6.59l2.2-2.2c.27-.27.67-.36 1.02-.24 1.12.37 2.33.57 3.57.57.55 0 1 .45 1 1V17c0 .55-.45 1-1 1C7.61 18 0 10.39 0 1c0-.55.45-1 1-1h3.5c.55 0 1 .45 1 1 0 1.25.2 2.45.57 3.57.11.35.03.74-.25 1.02z" fill="#b3c100"/></svg><svg height="62.8" viewBox="-1 -1 66 62.8" width="66" x="66" y="99" xmlns="http://www.w3.org/2000/svg"><path d="M-2 39.8h24v24H-2z" fill="none"/><path d="M32 48.864L51.776 60.8l-5.248-22.496L64 23.168l-23.008-1.952L32 0l-8.992 21.216L0 23.168l17.472 15.136L12.224 60.8z" fill="#b3c100"/><path d="M-2 39.8h24v24H-2z" fill="none"/></svg></svg>