<?xml version="1.0" encoding="UTF-8" standalone="no"?><svg width="177" height="161" viewBox="0 0 177 161" xmlns="http://www.w3.org/2000/svg" xmlns:xlink="http://www.w3.org/1999/xlink"><svg width="112.465" height="97" viewBox="0 0 105.43619 90.937498" id="SAV" xmlns="http://www.w3.org/2000/svg"><g transform="translate(-42.825 -34.417) scale(.22222)" fill="#4cb5f5" fill-rule="evenodd"><path d="M305.214 564.094l67.5-235.5h-112.5v-102h138.947l21.089-67.5H192.714v236.49h94l-29.505 101.01h-64.495v67.5zM427.857 160.88L315 564.095h67.5L427 404.809l13.303 46.572h-17.217L405 519.059h54.584l12.916 45.035H540zM662.286 159.094v405h-112.5l-112.5-405h67.5l90 337.5v-337.5z"/></g></svg><svg height="30" viewBox="0 0 30 30" width="30" id="ic_directions_black_24px" x="112.465" y="51.2" xmlns="http://www.w3.org/2000/svg"><path d="M29.561 13.942L16.058.44a1.494 1.494 0 0 0-2.116 0L.44 13.942a1.494 1.494 0 0 0 0 2.116L13.942 29.56c.585.585 1.53.585 2.116 0L29.56 16.058c.585-.57.585-1.516 0-2.116zm-11.568 4.816v-3.75h-6.001v4.5H8.99v-6c0-.826.675-1.501 1.5-1.501h7.502V8.256l5.252 5.251z" fill="#b3c100"/><path d="M-2.007 8.008h24v24h-24z" fill="none"/></svg><svg height="51.2" viewBox="0 0 64 51.200001" width="64" id="ic_email_black_24px" x="112.465" xmlns="http://www.w3.org/2000/svg"><path d="M57.6 0H6.4C2.88 0 .032 2.88.032 6.4L0 44.8c0 3.52 2.88 6.4 6.4 6.4h51.2c3.52 0 6.4-2.88 6.4-6.4V6.4C64 2.88 61.12 0 57.6 0zm0 12.8L32 28.8l-25.6-16V6.4l25.6 16 25.6-16z" fill="#b3c100"/><path d="M-2 31.2h24v24H-2z" fill="none"/></svg><svg height="30" viewBox="0 0 21 30" width="21" id="ic_location_on_black_24px" x="142.465" y="51.2" xmlns="http://www.w3.org/2000/svg"><path d="M10.5 0C4.695 0 0 4.695 0 10.5 0 18.375 10.5 30 10.5 30S21 18.375 21 10.5C21 4.695 16.305 0 10.5 0zm0 14.25c-2.07 0-3.75-1.68-3.75-3.75 0-2.07 1.68-3.75 3.75-3.75 2.07 0 3.75 1.68 3.75 3.75 0 2.07-1.68 3.75-3.75 3.75z" fill="#b3c100"/><path d="M-5 8h24v24H-5z" fill="none"/></svg><svg height="64" viewBox="0 0 64 64" width="64" id="ic_message_black_24px" y="97" xmlns="http://www.w3.org/2000/svg"><path d="M6.4 0h51.2c3.52 0 6.368 2.88 6.368 6.4L64 64 51.2 51.2H6.4c-3.52 0-6.4-2.88-6.4-6.4V6.4C0 2.88 2.88 0 6.4 0zm6.4 38.4h38.4V32H12.8zm0-9.6h38.4v-6.4H12.8zm0-9.6h38.4v-6.4H12.8z" fill="#b3c100"/><path d="M-2 42h24v24H-2z" fill="none"/></svg><svg height="30" viewBox="0 0 30 30" width="30" id="ic_phone_black_24px" x="128" y="97" xmlns="http://www.w3.org/2000/svg"><path d="M-3 9h24v24H-3z" fill="none"/><path d="M6.033 12.983c2.4 4.717 6.267 8.567 10.984 10.984l3.666-3.667c.45-.45 1.117-.6 1.7-.4 1.867.617 3.884.95 5.95.95.917 0 1.667.75 1.667 1.667v5.816C30 29.25 29.25 30 28.333 30 12.683 30 0 17.317 0 1.667 0 .75.75 0 1.667 0H7.5c.917 0 1.667.75 1.667 1.667 0 2.083.333 4.083.95 5.95.183.583.05 1.233-.417 1.7z" fill="#b3c100"/></svg><svg height="60.8" viewBox="0 0 64 60.799999" width="64" id="ic_star_black_24px" x="64" y="97" xmlns="http://www.w3.org/2000/svg"><path d="M-2 39.8h24v24H-2z" fill="none"/><path d="M32 48.864L51.776 60.8l-5.248-22.496L64 23.168l-23.008-1.952L32 0l-8.992 21.216L0 23.168l17.472 15.136L12.224 60.8z" fill="#b3c100"/><path d="M-2 39.8h24v24H-2z" fill="none"/></svg></svg>