<?xml version="1.0" encoding="UTF-8" standalone="no"?>
<svg
   xmlns:dc="http://purl.org/dc/elements/1.1/"
   xmlns:cc="http://creativecommons.org/ns#"
   xmlns:rdf="http://www.w3.org/1999/02/22-rdf-syntax-ns#"
   xmlns:svg="http://www.w3.org/2000/svg"
   xmlns="http://www.w3.org/2000/svg"
   xmlns:sodipodi="http://sodipodi.sourceforge.net/DTD/sodipodi-0.dtd"
   xmlns:inkscape="http://www.inkscape.org/namespaces/inkscape"
   height="30"
   viewBox="0 0 25 30"
   width="25"
   version="1.1"
   id="svg6"
   sodipodi:docname="ic_contacts_black_24px.svg"
   style="fill:#000000"
   inkscape:version="0.92.2 (unknown)">
  <metadata
     id="metadata12">
    <rdf:RDF>
      <cc:Work
         rdf:about="">
        <dc:format>image/svg+xml</dc:format>
        <dc:type
           rdf:resource="http://purl.org/dc/dcmitype/StillImage" />
        <dc:title />
      </cc:Work>
    </rdf:RDF>
  </metadata>
  <defs
     id="defs10" />
  <sodipodi:namedview
     pagecolor="#ffffff"
     bordercolor="#666666"
     borderopacity="1"
     objecttolerance="10"
     gridtolerance="10"
     guidetolerance="10"
     inkscape:pageopacity="0"
     inkscape:pageshadow="2"
     inkscape:window-width="1305"
     inkscape:window-height="713"
     id="namedview8"
     showgrid="false"
     inkscape:zoom="9.8333333"
     inkscape:cx="-23.050848"
     inkscape:cy="12"
     inkscape:window-x="61"
     inkscape:window-y="27"
     inkscape:window-maximized="1"
     inkscape:current-layer="svg6" />
  <path
     d="M -2,6 H 22 V 30 H -2 Z m 0,0 H 22 V 30 H -2 Z m 0,0 H 22 V 30 H -2 Z"
     id="path2"
     inkscape:connector-curvature="0"
     style="fill:none" />
  <path
     d="m 22.5,0 h -20 v 2.5 h 20 z m -20,30 h 20 V 27.5 H 2.5 Z M 22.5,5 H 2.5 C 1.125,5 0,6.125 0,7.5 v 15 C 0,23.875 1.125,25 2.5,25 h 20 C 23.875,25 25,23.875 25,22.5 V 7.5 C 25,6.125 23.875,5 22.5,5 Z m -10,3.4375 c 1.55,0 2.8125,1.2625 2.8125,2.8125 0,1.55 -1.2625,2.8125 -2.8125,2.8125 C 10.95,14.0625 9.6875,12.8 9.6875,11.25 9.6875,9.7 10.95,8.4375 12.5,8.4375 Z M 18.75,21.25 H 6.25 v -1.875 c 0,-2.0875 4.1625,-3.125 6.25,-3.125 2.0875,0 6.25,1.0375 6.25,3.125 z"
     id="path4"
     inkscape:connector-curvature="0"
     style="stroke-width:1.25;fill:#4cb5f5;fill-opacity:1" />
</svg>
