<svg id="svg" version="1.1" width="400" height="400" xmlns="http://www.w3.org/2000/svg" xmlns:xlink="http://www.w3.org/1999/xlink" style="display: block;"><g id="svgg"><path id="path0" d="M186.406 29.100 C 186.402 29.763,186.163 30.002,185.500 30.006 C 185.005 30.009,184.780 30.144,185.000 30.306 C 185.543 30.705,185.692 31.600,185.216 31.600 C 185.004 31.600,184.869 32.365,184.916 33.300 L 185.000 35.000 183.300 34.916 C 182.365 34.869,181.600 35.004,181.600 35.216 C 181.600 35.692,180.705 35.543,180.306 35.000 C 180.144 34.780,180.009 35.005,180.006 35.500 C 180.002 36.163,179.763 36.402,179.100 36.406 C 178.605 36.409,178.380 36.544,178.600 36.706 C 179.143 37.105,179.292 38.000,178.816 38.000 C 178.604 38.000,178.469 38.754,178.516 39.675 L 178.600 41.351 176.300 41.355 C 174.682 41.359,174.000 41.515,174.000 41.880 C 174.000 42.166,173.595 42.403,173.100 42.406 C 172.605 42.409,172.380 42.544,172.600 42.706 C 173.143 43.105,173.292 44.000,172.816 44.000 C 172.604 44.000,172.469 44.765,172.516 45.700 L 172.600 47.400 170.900 47.316 C 169.965 47.269,169.200 47.404,169.200 47.616 C 169.200 48.092,168.305 47.943,167.906 47.400 C 167.744 47.180,167.609 47.405,167.606 47.900 C 167.602 48.563,167.363 48.802,166.700 48.806 C 166.205 48.809,165.980 48.944,166.200 49.106 C 166.743 49.505,166.892 50.400,166.416 50.400 C 166.204 50.400,166.069 51.165,166.116 52.100 L 166.200 53.800 164.500 53.716 C 163.565 53.669,162.800 53.804,162.800 54.016 C 162.800 54.492,161.905 54.343,161.506 53.800 C 161.344 53.580,161.209 53.805,161.206 54.300 C 161.202 54.963,160.963 55.202,160.300 55.206 C 159.805 55.209,159.580 55.344,159.800 55.506 C 160.346 55.907,160.490 56.800,160.009 56.800 C 159.794 56.800,159.659 57.475,159.709 58.300 C 159.800 59.797,159.797 59.800,158.300 59.709 C 157.475 59.659,156.800 59.794,156.800 60.009 C 156.800 60.490,155.907 60.346,155.506 59.800 C 155.344 59.580,155.209 59.805,155.206 60.300 C 155.202 60.963,154.963 61.202,154.300 61.206 C 153.805 61.209,153.580 61.344,153.800 61.506 C 154.343 61.905,154.492 62.800,154.016 62.800 C 153.804 62.800,153.669 63.565,153.716 64.500 L 153.800 66.200 152.100 66.116 C 151.165 66.069,150.400 66.204,150.400 66.416 C 150.400 66.892,149.505 66.743,149.106 66.200 C 148.944 65.980,148.809 66.205,148.806 66.700 C 148.802 67.363,148.563 67.602,147.900 67.606 C 147.405 67.609,147.180 67.744,147.400 67.906 C 147.943 68.305,148.092 69.200,147.616 69.200 C 147.404 69.200,147.269 69.965,147.316 70.900 L 147.400 72.600 145.700 72.516 C 144.765 72.469,144.000 72.604,144.000 72.816 C 144.000 73.292,143.105 73.143,142.706 72.600 C 142.544 72.380,142.409 72.605,142.406 73.100 C 142.403 73.595,142.166 74.000,141.880 74.000 C 141.515 74.000,141.359 74.682,141.355 76.300 L 141.351 78.600 139.675 78.516 C 138.754 78.469,138.000 78.604,138.000 78.816 C 138.000 79.292,137.105 79.143,136.706 78.600 C 136.544 78.380,136.409 78.605,136.406 79.100 C 136.402 79.763,136.163 80.002,135.500 80.006 C 135.005 80.009,134.780 80.144,135.000 80.306 C 135.543 80.705,135.692 81.600,135.216 81.600 C 135.004 81.600,134.869 82.365,134.916 83.300 L 135.000 85.000 133.300 84.916 C 132.365 84.869,131.600 85.004,131.600 85.216 C 131.600 85.692,130.705 85.543,130.306 85.000 C 130.144 84.780,130.009 85.005,130.006 85.500 C 130.002 86.163,129.763 86.402,129.100 86.406 C 128.605 86.409,128.380 86.544,128.600 86.706 C 129.143 87.105,129.292 88.000,128.816 88.000 C 128.604 88.000,128.469 88.754,128.516 89.675 L 128.600 91.351 126.300 91.355 C 124.682 91.359,124.000 91.515,124.000 91.880 C 124.000 92.166,123.595 92.403,123.100 92.406 C 122.605 92.409,122.380 92.544,122.600 92.706 C 123.143 93.105,123.292 94.000,122.816 94.000 C 122.604 94.000,122.469 94.765,122.516 95.700 L 122.600 97.400 120.900 97.316 C 119.965 97.269,119.200 97.404,119.200 97.616 C 119.200 98.092,118.305 97.943,117.906 97.400 C 117.744 97.180,117.609 97.405,117.606 97.900 C 117.602 98.563,117.363 98.802,116.700 98.806 C 116.205 98.809,115.980 98.944,116.200 99.106 C 116.743 99.505,116.892 100.400,116.416 100.400 C 116.204 100.400,116.069 101.165,116.116 102.100 L 116.200 103.800 114.500 103.716 C 113.565 103.669,112.800 103.804,112.800 104.016 C 112.800 104.492,111.905 104.343,111.506 103.800 C 111.344 103.580,111.209 103.805,111.206 104.300 C 111.202 104.963,110.963 105.202,110.300 105.206 C 109.805 105.209,109.580 105.344,109.800 105.506 C 110.346 105.907,110.490 106.800,110.009 106.800 C 109.794 106.800,109.659 107.475,109.709 108.300 C 109.800 109.797,109.797 109.800,108.300 109.709 C 107.475 109.659,106.800 109.794,106.800 110.009 C 106.800 110.490,105.907 110.346,105.506 109.800 C 105.344 109.580,105.209 109.805,105.206 110.300 C 105.202 110.963,104.963 111.202,104.300 111.206 C 103.805 111.209,103.580 111.344,103.800 111.506 C 104.343 111.905,104.492 112.800,104.016 112.800 C 103.804 112.800,103.669 113.565,103.716 114.500 L 103.800 116.200 102.100 116.116 C 101.165 116.069,100.400 116.204,100.400 116.416 C 100.400 116.892,99.505 116.743,99.106 116.200 C 98.944 115.980,98.809 116.205,98.806 116.700 C 98.802 117.363,98.563 117.602,97.900 117.606 C 97.405 117.609,97.180 117.744,97.400 117.906 C 97.943 118.305,98.092 119.200,97.616 119.200 C 97.404 119.200,97.269 119.965,97.316 120.900 L 97.400 122.600 95.700 122.516 C 94.765 122.469,94.000 122.604,94.000 122.816 C 94.000 123.292,93.105 123.143,92.706 122.600 C 92.544 122.380,92.409 122.605,92.406 123.100 C 92.403 123.595,92.166 124.000,91.880 124.000 C 91.515 124.000,91.359 124.682,91.355 126.300 L 91.351 128.600 89.675 128.516 C 88.754 128.469,88.000 128.604,88.000 128.816 C 88.000 129.292,87.105 129.143,86.706 128.600 C 86.544 128.380,86.409 128.605,86.406 129.100 C 86.402 129.763,86.163 130.002,85.500 130.006 C 85.005 130.009,84.780 130.144,85.000 130.306 C 85.543 130.705,85.692 131.600,85.216 131.600 C 85.004 131.600,84.869 132.365,84.916 133.300 L 85.000 135.000 83.300 134.916 C 82.365 134.869,81.600 135.004,81.600 135.216 C 81.600 135.692,80.705 135.543,80.306 135.000 C 80.144 134.780,80.009 135.005,80.006 135.500 C 80.002 136.163,79.763 136.402,79.100 136.406 C 78.605 136.409,78.380 136.544,78.600 136.706 C 79.143 137.105,79.292 138.000,78.816 138.000 C 78.604 138.000,78.469 138.754,78.516 139.675 L 78.600 141.351 76.300 141.355 C 74.682 141.359,74.000 141.515,74.000 141.880 C 74.000 142.166,73.595 142.403,73.100 142.406 C 72.605 142.409,72.380 142.544,72.600 142.706 C 73.143 143.105,73.292 144.000,72.816 144.000 C 72.604 144.000,72.469 144.765,72.516 145.700 L 72.600 147.400 70.900 147.316 C 69.965 147.269,69.200 147.404,69.200 147.616 C 69.200 148.092,68.305 147.943,67.906 147.400 C 67.744 147.180,67.609 147.405,67.606 147.900 C 67.602 148.563,67.363 148.802,66.700 148.806 C 66.205 148.809,65.980 148.944,66.200 149.106 C 66.743 149.505,66.892 150.400,66.416 150.400 C 66.204 150.400,66.069 151.165,66.116 152.100 L 66.200 153.800 64.500 153.716 C 63.565 153.669,62.800 153.804,62.800 154.016 C 62.800 154.492,61.905 154.343,61.506 153.800 C 61.344 153.580,61.209 153.805,61.206 154.300 C 61.202 154.963,60.963 155.202,60.300 155.206 C 59.805 155.209,59.580 155.344,59.800 155.506 C 60.346 155.907,60.490 156.800,60.009 156.800 C 59.794 156.800,59.659 157.475,59.709 158.300 C 59.800 159.797,59.797 159.800,58.300 159.709 C 57.475 159.659,56.800 159.794,56.800 160.009 C 56.800 160.490,55.907 160.346,55.506 159.800 C 55.344 159.580,55.209 159.805,55.206 160.300 C 55.202 160.963,54.963 161.202,54.300 161.206 C 53.805 161.209,53.580 161.344,53.800 161.506 C 54.343 161.905,54.492 162.800,54.016 162.800 C 53.804 162.800,53.669 163.565,53.716 164.500 L 53.800 166.200 52.100 166.116 C 51.165 166.069,50.400 166.204,50.400 166.416 C 50.400 166.892,49.505 166.743,49.106 166.200 C 48.944 165.980,48.809 166.205,48.806 166.700 C 48.802 167.363,48.563 167.602,47.900 167.606 C 47.405 167.609,47.180 167.744,47.400 167.906 C 47.943 168.305,48.092 169.200,47.616 169.200 C 47.404 169.200,47.269 169.965,47.316 170.900 L 47.400 172.600 45.700 172.516 C 44.765 172.469,44.000 172.604,44.000 172.816 C 44.000 173.292,43.105 173.143,42.706 172.600 C 42.544 172.380,42.409 172.605,42.406 173.100 C 42.403 173.595,42.166 174.000,41.880 174.000 C 41.515 174.000,41.359 174.682,41.355 176.300 L 41.351 178.600 39.675 178.516 C 38.754 178.469,38.000 178.604,38.000 178.816 C 38.000 179.292,37.105 179.143,36.706 178.600 C 36.544 178.380,36.409 178.605,36.406 179.100 C 36.402 179.763,36.163 180.002,35.500 180.006 C 35.005 180.009,34.780 180.144,35.000 180.306 C 35.543 180.705,35.692 181.600,35.216 181.600 C 35.004 181.600,34.869 182.365,34.916 183.300 L 35.000 185.000 33.300 184.916 C 32.365 184.869,31.600 185.004,31.600 185.216 C 31.600 185.692,30.705 185.543,30.306 185.000 C 30.144 184.780,30.009 185.005,30.006 185.500 C 30.002 186.163,29.763 186.402,29.100 186.406 C 28.605 186.409,28.380 186.544,28.600 186.706 C 29.094 187.069,29.310 188.000,28.900 188.000 C 28.735 188.000,28.600 193.490,28.600 200.200 C 28.600 206.910,28.735 212.400,28.900 212.400 C 29.310 212.400,29.094 213.331,28.600 213.694 C 28.380 213.856,28.605 213.991,29.100 213.994 C 29.763 213.998,30.002 214.237,30.006 214.900 C 30.009 215.395,30.144 215.620,30.306 215.400 C 30.705 214.857,31.600 214.708,31.600 215.184 C 31.600 215.396,32.365 215.531,33.300 215.484 L 35.000 215.400 34.916 217.100 C 34.869 218.035,35.004 218.800,35.216 218.800 C 35.692 218.800,35.543 219.695,35.000 220.094 C 34.780 220.256,35.005 220.391,35.500 220.394 C 36.163 220.398,36.402 220.637,36.406 221.300 C 36.409 221.795,36.544 222.020,36.706 221.800 C 37.105 221.257,38.000 221.108,38.000 221.584 C 38.000 221.796,38.754 221.931,39.675 221.884 L 41.349 221.800 41.375 224.100 C 41.392 225.660,41.561 226.400,41.900 226.400 C 42.175 226.400,42.403 226.805,42.406 227.300 C 42.409 227.795,42.544 228.020,42.706 227.800 C 43.105 227.257,44.000 227.108,44.000 227.584 C 44.000 227.796,44.765 227.931,45.700 227.884 L 47.400 227.800 47.316 229.500 C 47.269 230.435,47.404 231.200,47.616 231.200 C 48.092 231.200,47.943 232.095,47.400 232.494 C 47.180 232.656,47.405 232.791,47.900 232.794 C 48.563 232.798,48.802 233.037,48.806 233.700 C 48.809 234.195,48.944 234.420,49.106 234.200 C 49.505 233.657,50.400 233.508,50.400 233.984 C 50.400 234.196,51.165 234.331,52.100 234.284 L 53.800 234.200 53.716 235.900 C 53.669 236.835,53.804 237.600,54.016 237.600 C 54.492 237.600,54.343 238.495,53.800 238.894 C 53.580 239.056,53.805 239.191,54.300 239.194 C 54.963 239.198,55.202 239.437,55.206 240.100 C 55.209 240.595,55.344 240.820,55.506 240.600 C 55.907 240.054,56.800 239.910,56.800 240.391 C 56.800 240.606,57.475 240.741,58.300 240.691 C 59.797 240.600,59.800 240.603,59.709 242.100 C 59.659 242.925,59.794 243.600,60.009 243.600 C 60.490 243.600,60.346 244.493,59.800 244.894 C 59.580 245.056,59.805 245.191,60.300 245.194 C 60.963 245.198,61.202 245.437,61.206 246.100 C 61.209 246.595,61.344 246.820,61.506 246.600 C 61.905 246.057,62.800 245.908,62.800 246.384 C 62.800 246.596,63.565 246.731,64.500 246.684 L 66.200 246.600 66.116 248.300 C 66.069 249.235,66.204 250.000,66.416 250.000 C 66.892 250.000,66.743 250.895,66.200 251.294 C 65.980 251.456,66.205 251.591,66.700 251.594 C 67.363 251.598,67.602 251.837,67.606 252.500 C 67.609 252.995,67.744 253.220,67.906 253.000 C 68.305 252.457,69.200 252.308,69.200 252.784 C 69.200 252.996,69.965 253.131,70.900 253.084 L 72.600 253.000 72.516 254.700 C 72.469 255.635,72.604 256.400,72.816 256.400 C 73.292 256.400,73.143 257.295,72.600 257.694 C 72.380 257.856,72.605 257.991,73.100 257.994 C 73.686 257.998,74.002 258.244,74.006 258.700 C 74.011 259.245,74.088 259.280,74.356 258.857 C 74.586 258.495,74.788 258.457,74.964 258.741 C 75.108 258.976,75.986 259.130,76.914 259.084 L 78.600 259.000 78.516 260.700 C 78.469 261.635,78.604 262.400,78.816 262.400 C 79.292 262.400,79.143 263.295,78.600 263.694 C 78.380 263.856,78.605 263.991,79.100 263.994 C 79.763 263.998,80.002 264.237,80.006 264.900 C 80.009 265.395,80.144 265.620,80.306 265.400 C 80.705 264.857,81.600 264.708,81.600 265.184 C 81.600 265.396,82.365 265.531,83.300 265.484 L 85.000 265.400 84.916 267.100 C 84.869 268.035,85.004 268.800,85.216 268.800 C 85.692 268.800,85.543 269.695,85.000 270.094 C 84.780 270.256,85.005 270.391,85.500 270.394 C 86.163 270.398,86.402 270.637,86.406 271.300 C 86.409 271.795,86.544 272.020,86.706 271.800 C 87.105 271.257,88.000 271.108,88.000 271.584 C 88.000 271.796,88.754 271.931,89.675 271.884 L 91.349 271.800 91.375 274.100 C 91.392 275.660,91.561 276.400,91.900 276.400 C 92.175 276.400,92.403 276.805,92.406 277.300 C 92.409 277.795,92.544 278.020,92.706 277.800 C 93.105 277.257,94.000 277.108,94.000 277.584 C 94.000 277.796,94.765 277.931,95.700 277.884 L 97.400 277.800 97.316 279.500 C 97.269 280.435,97.404 281.200,97.616 281.200 C 98.092 281.200,97.943 282.095,97.400 282.494 C 97.180 282.656,97.405 282.791,97.900 282.794 C 98.563 282.798,98.802 283.037,98.806 283.700 C 98.809 284.195,98.944 284.420,99.106 284.200 C 99.505 283.657,100.400 283.508,100.400 283.984 C 100.400 284.196,101.165 284.331,102.100 284.284 L 103.800 284.200 103.716 285.900 C 103.669 286.835,103.804 287.600,104.016 287.600 C 104.492 287.600,104.343 288.495,103.800 288.894 C 103.580 289.056,103.805 289.191,104.300 289.194 C 104.963 289.198,105.202 289.437,105.206 290.100 C 105.209 290.595,105.344 290.820,105.506 290.600 C 105.907 290.054,106.800 289.910,106.800 290.391 C 106.800 290.606,107.475 290.741,108.300 290.691 C 109.797 290.600,109.800 290.603,109.709 292.100 C 109.659 292.925,109.794 293.600,110.009 293.600 C 110.490 293.600,110.346 294.493,109.800 294.894 C 109.580 295.056,109.805 295.191,110.300 295.194 C 110.963 295.198,111.202 295.437,111.206 296.100 C 111.209 296.595,111.344 296.820,111.506 296.600 C 111.905 296.057,112.800 295.908,112.800 296.384 C 112.800 296.596,113.565 296.731,114.500 296.684 L 116.200 296.600 116.116 298.300 C 116.069 299.235,116.204 300.000,116.416 300.000 C 116.892 300.000,116.743 300.895,116.200 301.294 C 115.980 301.456,116.205 301.591,116.700 301.594 C 117.363 301.598,117.602 301.837,117.606 302.500 C 117.609 302.995,117.744 303.220,117.906 303.000 C 118.305 302.457,119.200 302.308,119.200 302.784 C 119.200 302.996,119.965 303.131,120.900 303.084 L 122.600 303.000 122.516 304.700 C 122.469 305.635,122.604 306.400,122.816 306.400 C 123.292 306.400,123.143 307.295,122.600 307.694 C 122.380 307.856,122.605 307.991,123.100 307.994 C 123.686 307.998,124.002 308.244,124.006 308.700 C 124.011 309.245,124.088 309.280,124.356 308.857 C 124.586 308.495,124.788 308.457,124.964 308.741 C 125.108 308.976,125.986 309.130,126.914 309.084 L 128.600 309.000 128.516 310.700 C 128.469 311.635,128.604 312.400,128.816 312.400 C 129.292 312.400,129.143 313.295,128.600 313.694 C 128.380 313.856,128.605 313.991,129.100 313.994 C 129.763 313.998,130.002 314.237,130.006 314.900 C 130.009 315.395,130.144 315.620,130.306 315.400 C 130.705 314.857,131.600 314.708,131.600 315.184 C 131.600 315.396,132.365 315.531,133.300 315.484 L 135.000 315.400 134.916 317.100 C 134.869 318.035,135.004 318.800,135.216 318.800 C 135.692 318.800,135.543 319.695,135.000 320.094 C 134.780 320.256,135.005 320.391,135.500 320.394 C 136.163 320.398,136.402 320.637,136.406 321.300 C 136.409 321.795,136.544 322.020,136.706 321.800 C 137.105 321.257,138.000 321.108,138.000 321.584 C 138.000 321.796,138.754 321.931,139.675 321.884 L 141.349 321.800 141.375 324.100 C 141.392 325.660,141.561 326.400,141.900 326.400 C 142.175 326.400,142.403 326.805,142.406 327.300 C 142.409 327.795,142.544 328.020,142.706 327.800 C 143.105 327.257,144.000 327.108,144.000 327.584 C 144.000 327.796,144.765 327.931,145.700 327.884 L 147.400 327.800 147.316 329.500 C 147.269 330.435,147.404 331.200,147.616 331.200 C 148.092 331.200,147.943 332.095,147.400 332.494 C 147.180 332.656,147.405 332.791,147.900 332.794 C 148.563 332.798,148.802 333.037,148.806 333.700 C 148.809 334.195,148.944 334.420,149.106 334.200 C 149.505 333.657,150.400 333.508,150.400 333.984 C 150.400 334.196,151.165 334.331,152.100 334.284 L 153.800 334.200 153.716 335.900 C 153.669 336.835,153.804 337.600,154.016 337.600 C 154.492 337.600,154.343 338.495,153.800 338.894 C 153.580 339.056,153.805 339.191,154.300 339.194 C 154.963 339.198,155.202 339.437,155.206 340.100 C 155.209 340.595,155.344 340.820,155.506 340.600 C 155.907 340.054,156.800 339.910,156.800 340.391 C 156.800 340.606,157.475 340.741,158.300 340.691 C 159.797 340.600,159.800 340.603,159.709 342.100 C 159.659 342.925,159.794 343.600,160.009 343.600 C 160.490 343.600,160.346 344.493,159.800 344.894 C 159.580 345.056,159.805 345.191,160.300 345.194 C 160.963 345.198,161.202 345.437,161.206 346.100 C 161.209 346.595,161.344 346.820,161.506 346.600 C 161.905 346.057,162.800 345.908,162.800 346.384 C 162.800 346.596,163.565 346.731,164.500 346.684 L 166.200 346.600 166.116 348.300 C 166.069 349.235,166.204 350.000,166.416 350.000 C 166.892 350.000,166.743 350.895,166.200 351.294 C 165.980 351.456,166.205 351.591,166.700 351.594 C 167.363 351.598,167.602 351.837,167.606 352.500 C 167.609 352.995,167.744 353.220,167.906 353.000 C 168.305 352.457,169.200 352.308,169.200 352.784 C 169.200 352.996,169.965 353.131,170.900 353.084 L 172.600 353.000 172.516 354.700 C 172.469 355.635,172.604 356.400,172.816 356.400 C 173.292 356.400,173.143 357.295,172.600 357.694 C 172.380 357.856,172.605 357.991,173.100 357.994 C 173.686 357.998,174.002 358.244,174.006 358.700 C 174.011 359.245,174.088 359.280,174.356 358.857 C 174.586 358.495,174.788 358.457,174.964 358.741 C 175.108 358.976,175.986 359.130,176.914 359.084 L 178.600 359.000 178.516 360.700 C 178.469 361.635,178.604 362.400,178.816 362.400 C 179.292 362.400,179.143 363.295,178.600 363.694 C 178.380 363.856,178.605 363.991,179.100 363.994 C 179.763 363.998,180.002 364.237,180.006 364.900 C 180.009 365.395,180.144 365.620,180.306 365.400 C 180.705 364.857,181.600 364.708,181.600 365.184 C 181.600 365.396,182.365 365.531,183.300 365.484 L 185.000 365.400 184.916 367.100 C 184.869 368.035,185.004 368.800,185.216 368.800 C 185.692 368.800,185.543 369.695,185.000 370.094 C 184.780 370.256,185.005 370.391,185.500 370.394 C 186.163 370.398,186.402 370.637,186.406 371.300 C 186.409 371.795,186.544 372.020,186.706 371.800 C 187.069 371.306,188.000 371.090,188.000 371.500 C 188.000 371.665,193.490 371.800,200.200 371.800 C 206.910 371.800,212.400 371.665,212.400 371.500 C 212.400 371.090,213.331 371.306,213.694 371.800 C 213.856 372.020,213.991 371.795,213.994 371.300 C 213.998 370.637,214.237 370.398,214.900 370.394 C 215.395 370.391,215.620 370.256,215.400 370.094 C 214.857 369.695,214.708 368.800,215.184 368.800 C 215.396 368.800,215.531 368.035,215.484 367.100 L 215.400 365.400 217.100 365.484 C 218.035 365.531,218.800 365.396,218.800 365.184 C 218.800 364.708,219.695 364.857,220.094 365.400 C 220.256 365.620,220.391 365.395,220.394 364.900 C 220.398 364.237,220.637 363.998,221.300 363.994 C 221.795 363.991,222.020 363.856,221.800 363.694 C 221.257 363.295,221.108 362.400,221.584 362.400 C 221.796 362.400,221.931 361.635,221.884 360.700 L 221.800 359.000 223.486 359.084 C 224.414 359.130,225.292 358.976,225.436 358.741 C 225.612 358.457,225.814 358.495,226.044 358.857 C 226.312 359.280,226.389 359.245,226.394 358.700 C 226.398 358.244,226.714 357.998,227.300 357.994 C 227.795 357.991,228.020 357.856,227.800 357.694 C 227.257 357.295,227.108 356.400,227.584 356.400 C 227.796 356.400,227.931 355.635,227.884 354.700 L 227.800 353.000 229.500 353.084 C 230.435 353.131,231.200 352.996,231.200 352.784 C 231.200 352.308,232.095 352.457,232.494 353.000 C 232.656 353.220,232.791 352.995,232.794 352.500 C 232.798 351.837,233.037 351.598,233.700 351.594 C 234.195 351.591,234.420 351.456,234.200 351.294 C 233.657 350.895,233.508 350.000,233.984 350.000 C 234.196 350.000,234.331 349.235,234.284 348.300 L 234.200 346.600 235.900 346.684 C 236.835 346.731,237.600 346.596,237.600 346.384 C 237.600 345.908,238.495 346.057,238.894 346.600 C 239.056 346.820,239.191 346.595,239.194 346.100 C 239.198 345.437,239.437 345.198,240.100 345.194 C 240.595 345.191,240.820 345.056,240.600 344.894 C 240.054 344.493,239.910 343.600,240.391 343.600 C 240.606 343.600,240.741 342.925,240.691 342.100 C 240.600 340.603,240.603 340.600,242.100 340.691 C 242.925 340.741,243.600 340.606,243.600 340.391 C 243.600 339.910,244.493 340.054,244.894 340.600 C 245.056 340.820,245.191 340.595,245.194 340.100 C 245.198 339.437,245.437 339.198,246.100 339.194 C 246.595 339.191,246.820 339.056,246.600 338.894 C 246.057 338.495,245.908 337.600,246.384 337.600 C 246.596 337.600,246.731 336.835,246.684 335.900 L 246.600 334.200 248.300 334.284 C 249.235 334.331,250.000 334.196,250.000 333.984 C 250.000 333.508,250.895 333.657,251.294 334.200 C 251.456 334.420,251.591 334.195,251.594 333.700 C 251.598 333.037,251.837 332.798,252.500 332.794 C 252.995 332.791,253.220 332.656,253.000 332.494 C 252.457 332.095,252.308 331.200,252.784 331.200 C 252.996 331.200,253.131 330.435,253.084 329.500 L 253.000 327.800 254.700 327.884 C 255.635 327.931,256.400 327.796,256.400 327.584 C 256.400 327.108,257.295 327.257,257.694 327.800 C 257.856 328.020,257.991 327.795,257.994 327.300 C 257.998 326.714,258.244 326.398,258.700 326.394 C 259.095 326.390,259.226 326.260,259.000 326.094 C 258.467 325.702,258.305 324.800,258.768 324.800 C 258.970 324.800,259.105 324.125,259.068 323.300 L 259.001 321.800 260.700 321.884 C 261.635 321.931,262.400 321.796,262.400 321.584 C 262.400 321.108,263.295 321.257,263.694 321.800 C 263.856 322.020,263.991 321.795,263.994 321.300 C 263.998 320.637,264.237 320.398,264.900 320.394 C 265.395 320.391,265.620 320.256,265.400 320.094 C 264.857 319.695,264.708 318.800,265.184 318.800 C 265.396 318.800,265.531 318.035,265.484 317.100 L 265.400 315.400 267.100 315.484 C 268.035 315.531,268.800 315.396,268.800 315.184 C 268.800 314.708,269.695 314.857,270.094 315.400 C 270.256 315.620,270.391 315.395,270.394 314.900 C 270.398 314.237,270.637 313.998,271.300 313.994 C 271.795 313.991,272.020 313.856,271.800 313.694 C 271.257 313.295,271.108 312.400,271.584 312.400 C 271.796 312.400,271.931 311.635,271.884 310.700 L 271.800 309.000 273.486 309.084 C 274.414 309.130,275.292 308.976,275.436 308.741 C 275.612 308.457,275.814 308.495,276.044 308.857 C 276.312 309.280,276.389 309.245,276.394 308.700 C 276.398 308.244,276.714 307.998,277.300 307.994 C 277.795 307.991,278.020 307.856,277.800 307.694 C 277.257 307.295,277.108 306.400,277.584 306.400 C 277.796 306.400,277.931 305.635,277.884 304.700 L 277.800 303.000 279.500 303.084 C 280.435 303.131,281.200 302.996,281.200 302.784 C 281.200 302.308,282.095 302.457,282.494 303.000 C 282.656 303.220,282.791 302.995,282.794 302.500 C 282.798 301.837,283.037 301.598,283.700 301.594 C 284.195 301.591,284.420 301.456,284.200 301.294 C 283.657 300.895,283.508 300.000,283.984 300.000 C 284.196 300.000,284.331 299.235,284.284 298.300 L 284.200 296.600 285.900 296.684 C 286.835 296.731,287.600 296.596,287.600 296.384 C 287.600 295.908,288.495 296.057,288.894 296.600 C 289.056 296.820,289.191 296.595,289.194 296.100 C 289.198 295.437,289.437 295.198,290.100 295.194 C 290.595 295.191,290.820 295.056,290.600 294.894 C 290.054 294.493,289.910 293.600,290.391 293.600 C 290.606 293.600,290.741 292.925,290.691 292.100 C 290.600 290.603,290.603 290.600,292.100 290.691 C 292.925 290.741,293.600 290.606,293.600 290.391 C 293.600 289.910,294.493 290.054,294.894 290.600 C 295.056 290.820,295.191 290.595,295.194 290.100 C 295.198 289.437,295.437 289.198,296.100 289.194 C 296.595 289.191,296.820 289.056,296.600 288.894 C 296.057 288.495,295.908 287.600,296.384 287.600 C 296.596 287.600,296.731 286.835,296.684 285.900 L 296.600 284.200 298.300 284.284 C 299.235 284.331,300.000 284.196,300.000 283.984 C 300.000 283.508,300.895 283.657,301.294 284.200 C 301.456 284.420,301.591 284.195,301.594 283.700 C 301.598 283.037,301.837 282.798,302.500 282.794 C 302.995 282.791,303.220 282.656,303.000 282.494 C 302.457 282.095,302.308 281.200,302.784 281.200 C 302.996 281.200,303.131 280.435,303.084 279.500 L 303.000 277.800 304.700 277.884 C 305.635 277.931,306.400 277.796,306.400 277.584 C 306.400 277.108,307.295 277.257,307.694 277.800 C 307.856 278.020,307.991 277.795,307.994 277.300 C 307.998 276.714,308.244 276.398,308.700 276.394 C 309.095 276.390,309.226 276.260,309.000 276.094 C 308.467 275.702,308.305 274.800,308.768 274.800 C 308.970 274.800,309.105 274.125,309.068 273.300 L 309.001 271.800 310.700 271.884 C 311.635 271.931,312.400 271.796,312.400 271.584 C 312.400 271.108,313.295 271.257,313.694 271.800 C 313.856 272.020,313.991 271.795,313.994 271.300 C 313.998 270.637,314.237 270.398,314.900 270.394 C 315.395 270.391,315.620 270.256,315.400 270.094 C 314.857 269.695,314.708 268.800,315.184 268.800 C 315.396 268.800,315.531 268.035,315.484 267.100 L 315.400 265.400 317.100 265.484 C 318.035 265.531,318.800 265.396,318.800 265.184 C 318.800 264.708,319.695 264.857,320.094 265.400 C 320.256 265.620,320.391 265.395,320.394 264.900 C 320.398 264.237,320.637 263.998,321.300 263.994 C 321.795 263.991,322.020 263.856,321.800 263.694 C 321.257 263.295,321.108 262.400,321.584 262.400 C 321.796 262.400,321.931 261.635,321.884 260.700 L 321.800 259.000 323.486 259.084 C 324.414 259.130,325.292 258.976,325.436 258.741 C 325.612 258.457,325.814 258.495,326.044 258.857 C 326.312 259.280,326.389 259.245,326.394 258.700 C 326.398 258.244,326.714 257.998,327.300 257.994 C 327.795 257.991,328.020 257.856,327.800 257.694 C 327.257 257.295,327.108 256.400,327.584 256.400 C 327.796 256.400,327.931 255.635,327.884 254.700 L 327.800 253.000 329.500 253.084 C 330.435 253.131,331.200 252.996,331.200 252.784 C 331.200 252.308,332.095 252.457,332.494 253.000 C 332.656 253.220,332.791 252.995,332.794 252.500 C 332.798 251.837,333.037 251.598,333.700 251.594 C 334.195 251.591,334.420 251.456,334.200 251.294 C 333.657 250.895,333.508 250.000,333.984 250.000 C 334.196 250.000,334.331 249.235,334.284 248.300 L 334.200 246.600 335.900 246.684 C 336.835 246.731,337.600 246.596,337.600 246.384 C 337.600 245.908,338.495 246.057,338.894 246.600 C 339.056 246.820,339.191 246.595,339.194 246.100 C 339.198 245.437,339.437 245.198,340.100 245.194 C 340.595 245.191,340.820 245.056,340.600 244.894 C 340.054 244.493,339.910 243.600,340.391 243.600 C 340.606 243.600,340.741 242.925,340.691 242.100 C 340.600 240.603,340.603 240.600,342.100 240.691 C 342.925 240.741,343.600 240.606,343.600 240.391 C 343.600 239.910,344.493 240.054,344.894 240.600 C 345.056 240.820,345.191 240.595,345.194 240.100 C 345.198 239.437,345.437 239.198,346.100 239.194 C 346.595 239.191,346.820 239.056,346.600 238.894 C 346.057 238.495,345.908 237.600,346.384 237.600 C 346.596 237.600,346.731 236.835,346.684 235.900 L 346.600 234.200 348.300 234.284 C 349.235 234.331,350.000 234.196,350.000 233.984 C 350.000 233.508,350.895 233.657,351.294 234.200 C 351.456 234.420,351.591 234.195,351.594 233.700 C 351.598 233.037,351.837 232.798,352.500 232.794 C 352.995 232.791,353.220 232.656,353.000 232.494 C 352.457 232.095,352.308 231.200,352.784 231.200 C 352.996 231.200,353.131 230.435,353.084 229.500 L 353.000 227.800 354.700 227.884 C 355.635 227.931,356.400 227.796,356.400 227.584 C 356.400 227.108,357.295 227.257,357.694 227.800 C 357.856 228.020,357.991 227.795,357.994 227.300 C 357.998 226.714,358.244 226.398,358.700 226.394 C 359.095 226.390,359.226 226.260,359.000 226.094 C 358.467 225.702,358.305 224.800,358.768 224.800 C 358.970 224.800,359.105 224.125,359.068 223.300 L 359.001 221.800 360.700 221.884 C 361.635 221.931,362.400 221.796,362.400 221.584 C 362.400 221.108,363.295 221.257,363.694 221.800 C 363.856 222.020,363.991 221.795,363.994 221.300 C 363.998 220.637,364.237 220.398,364.900 220.394 C 365.395 220.391,365.620 220.256,365.400 220.094 C 364.857 219.695,364.708 218.800,365.184 218.800 C 365.396 218.800,365.531 218.035,365.484 217.100 L 365.400 215.400 367.100 215.484 C 368.035 215.531,368.800 215.396,368.800 215.184 C 368.800 214.708,369.695 214.857,370.094 215.400 C 370.256 215.620,370.391 215.395,370.394 214.900 C 370.398 214.237,370.637 213.998,371.300 213.994 C 371.795 213.991,372.020 213.856,371.800 213.694 C 371.306 213.331,371.090 212.400,371.500 212.400 C 371.665 212.400,371.800 206.910,371.800 200.200 C 371.800 193.490,371.665 188.000,371.500 188.000 C 371.090 188.000,371.306 187.069,371.800 186.706 C 372.020 186.544,371.795 186.409,371.300 186.406 C 370.637 186.402,370.398 186.163,370.394 185.500 C 370.391 185.005,370.256 184.780,370.094 185.000 C 369.695 185.543,368.800 185.692,368.800 185.216 C 368.800 185.004,368.035 184.869,367.100 184.916 L 365.400 185.000 365.484 183.300 C 365.531 182.365,365.396 181.600,365.184 181.600 C 364.708 181.600,364.857 180.705,365.400 180.306 C 365.620 180.144,365.395 180.009,364.900 180.006 C 364.237 180.002,363.998 179.763,363.994 179.100 C 363.991 178.605,363.856 178.380,363.694 178.600 C 363.295 179.143,362.400 179.292,362.400 178.816 C 362.400 178.604,361.635 178.469,360.700 178.516 L 359.001 178.600 359.073 177.006 C 359.112 176.130,358.932 175.275,358.672 175.106 C 358.325 174.881,358.358 174.696,358.800 174.406 C 359.314 174.069,359.299 174.011,358.700 174.006 C 358.244 174.002,357.998 173.686,357.994 173.100 C 357.991 172.605,357.856 172.380,357.694 172.600 C 357.295 173.143,356.400 173.292,356.400 172.816 C 356.400 172.604,355.635 172.469,354.700 172.516 L 353.000 172.600 353.084 170.900 C 353.131 169.965,352.996 169.200,352.784 169.200 C 352.308 169.200,352.457 168.305,353.000 167.906 C 353.220 167.744,352.995 167.609,352.500 167.606 C 351.837 167.602,351.598 167.363,351.594 166.700 C 351.591 166.205,351.456 165.980,351.294 166.200 C 350.895 166.743,350.000 166.892,350.000 166.416 C 350.000 166.204,349.235 166.069,348.300 166.116 L 346.600 166.200 346.684 164.500 C 346.731 163.565,346.596 162.800,346.384 162.800 C 345.908 162.800,346.057 161.905,346.600 161.506 C 346.820 161.344,346.595 161.209,346.100 161.206 C 345.437 161.202,345.198 160.963,345.194 160.300 C 345.191 159.805,345.056 159.580,344.894 159.800 C 344.493 160.346,343.600 160.490,343.600 160.009 C 343.600 159.794,342.925 159.659,342.100 159.709 C 340.603 159.800,340.600 159.797,340.691 158.300 C 340.741 157.475,340.606 156.800,340.391 156.800 C 339.910 156.800,340.054 155.907,340.600 155.506 C 340.820 155.344,340.595 155.209,340.100 155.206 C 339.437 155.202,339.198 154.963,339.194 154.300 C 339.191 153.805,339.056 153.580,338.894 153.800 C 338.495 154.343,337.600 154.492,337.600 154.016 C 337.600 153.804,336.835 153.669,335.900 153.716 L 334.200 153.800 334.284 152.100 C 334.331 151.165,334.196 150.400,333.984 150.400 C 333.508 150.400,333.657 149.505,334.200 149.106 C 334.420 148.944,334.195 148.809,333.700 148.806 C 333.037 148.802,332.798 148.563,332.794 147.900 C 332.791 147.405,332.656 147.180,332.494 147.400 C 332.095 147.943,331.200 148.092,331.200 147.616 C 331.200 147.404,330.435 147.269,329.500 147.316 L 327.800 147.400 327.884 145.700 C 327.931 144.765,327.796 144.000,327.584 144.000 C 327.108 144.000,327.257 143.105,327.800 142.706 C 328.020 142.544,327.795 142.409,327.300 142.406 C 326.805 142.403,326.400 142.166,326.400 141.880 C 326.400 141.515,325.718 141.359,324.100 141.355 L 321.800 141.351 321.884 139.675 C 321.931 138.754,321.796 138.000,321.584 138.000 C 321.108 138.000,321.257 137.105,321.800 136.706 C 322.020 136.544,321.795 136.409,321.300 136.406 C 320.637 136.402,320.398 136.163,320.394 135.500 C 320.391 135.005,320.256 134.780,320.094 135.000 C 319.695 135.543,318.800 135.692,318.800 135.216 C 318.800 135.004,318.035 134.869,317.100 134.916 L 315.400 135.000 315.484 133.300 C 315.531 132.365,315.396 131.600,315.184 131.600 C 314.708 131.600,314.857 130.705,315.400 130.306 C 315.620 130.144,315.395 130.009,314.900 130.006 C 314.237 130.002,313.998 129.763,313.994 129.100 C 313.991 128.605,313.856 128.380,313.694 128.600 C 313.295 129.143,312.400 129.292,312.400 128.816 C 312.400 128.604,311.635 128.469,310.700 128.516 L 309.001 128.600 309.073 127.006 C 309.112 126.130,308.932 125.275,308.672 125.106 C 308.325 124.881,308.358 124.696,308.800 124.406 C 309.314 124.069,309.299 124.011,308.700 124.006 C 308.244 124.002,307.998 123.686,307.994 123.100 C 307.991 122.605,307.856 122.380,307.694 122.600 C 307.295 123.143,306.400 123.292,306.400 122.816 C 306.400 122.604,305.635 122.469,304.700 122.516 L 303.000 122.600 303.084 120.900 C 303.131 119.965,302.996 119.200,302.784 119.200 C 302.308 119.200,302.457 118.305,303.000 117.906 C 303.220 117.744,302.995 117.609,302.500 117.606 C 301.837 117.602,301.598 117.363,301.594 116.700 C 301.591 116.205,301.456 115.980,301.294 116.200 C 300.895 116.743,300.000 116.892,300.000 116.416 C 300.000 116.204,299.235 116.069,298.300 116.116 L 296.600 116.200 296.684 114.500 C 296.731 113.565,296.596 112.800,296.384 112.800 C 295.908 112.800,296.057 111.905,296.600 111.506 C 296.820 111.344,296.595 111.209,296.100 111.206 C 295.437 111.202,295.198 110.963,295.194 110.300 C 295.191 109.805,295.056 109.580,294.894 109.800 C 294.493 110.346,293.600 110.490,293.600 110.009 C 293.600 109.794,292.925 109.659,292.100 109.709 C 290.603 109.800,290.600 109.797,290.691 108.300 C 290.741 107.475,290.606 106.800,290.391 106.800 C 289.910 106.800,290.054 105.907,290.600 105.506 C 290.820 105.344,290.595 105.209,290.100 105.206 C 289.437 105.202,289.198 104.963,289.194 104.300 C 289.191 103.805,289.056 103.580,288.894 103.800 C 288.495 104.343,287.600 104.492,287.600 104.016 C 287.600 103.804,286.835 103.669,285.900 103.716 L 284.200 103.800 284.284 102.100 C 284.331 101.165,284.196 100.400,283.984 100.400 C 283.508 100.400,283.657 99.505,284.200 99.106 C 284.420 98.944,284.195 98.809,283.700 98.806 C 283.037 98.802,282.798 98.563,282.794 97.900 C 282.791 97.405,282.656 97.180,282.494 97.400 C 282.095 97.943,281.200 98.092,281.200 97.616 C 281.200 97.404,280.435 97.269,279.500 97.316 L 277.800 97.400 277.884 95.700 C 277.931 94.765,277.796 94.000,277.584 94.000 C 277.108 94.000,277.257 93.105,277.800 92.706 C 278.020 92.544,277.795 92.409,277.300 92.406 C 276.805 92.403,276.400 92.166,276.400 91.880 C 276.400 91.515,275.718 91.359,274.100 91.355 L 271.800 91.351 271.884 89.675 C 271.931 88.754,271.796 88.000,271.584 88.000 C 271.108 88.000,271.257 87.105,271.800 86.706 C 272.020 86.544,271.795 86.409,271.300 86.406 C 270.637 86.402,270.398 86.163,270.394 85.500 C 270.391 85.005,270.256 84.780,270.094 85.000 C 269.695 85.543,268.800 85.692,268.800 85.216 C 268.800 85.004,268.035 84.869,267.100 84.916 L 265.400 85.000 265.484 83.300 C 265.531 82.365,265.396 81.600,265.184 81.600 C 264.708 81.600,264.857 80.705,265.400 80.306 C 265.620 80.144,265.395 80.009,264.900 80.006 C 264.237 80.002,263.998 79.763,263.994 79.100 C 263.991 78.605,263.856 78.380,263.694 78.600 C 263.295 79.143,262.400 79.292,262.400 78.816 C 262.400 78.604,261.635 78.469,260.700 78.516 L 259.001 78.600 259.073 77.006 C 259.112 76.130,258.932 75.275,258.672 75.106 C 258.325 74.881,258.358 74.696,258.800 74.406 C 259.314 74.069,259.299 74.011,258.700 74.006 C 258.244 74.002,257.998 73.686,257.994 73.100 C 257.991 72.605,257.856 72.380,257.694 72.600 C 257.295 73.143,256.400 73.292,256.400 72.816 C 256.400 72.604,255.635 72.469,254.700 72.516 L 253.000 72.600 253.084 70.900 C 253.131 69.965,252.996 69.200,252.784 69.200 C 252.308 69.200,252.457 68.305,253.000 67.906 C 253.220 67.744,252.995 67.609,252.500 67.606 C 251.837 67.602,251.598 67.363,251.594 66.700 C 251.591 66.205,251.456 65.980,251.294 66.200 C 250.895 66.743,250.000 66.892,250.000 66.416 C 250.000 66.204,249.235 66.069,248.300 66.116 L 246.600 66.200 246.684 64.500 C 246.731 63.565,246.596 62.800,246.384 62.800 C 245.908 62.800,246.057 61.905,246.600 61.506 C 246.820 61.344,246.595 61.209,246.100 61.206 C 245.437 61.202,245.198 60.963,245.194 60.300 C 245.191 59.805,245.056 59.580,244.894 59.800 C 244.493 60.346,243.600 60.490,243.600 60.009 C 243.600 59.794,242.925 59.659,242.100 59.709 C 240.603 59.800,240.600 59.797,240.691 58.300 C 240.741 57.475,240.606 56.800,240.391 56.800 C 239.910 56.800,240.054 55.907,240.600 55.506 C 240.820 55.344,240.595 55.209,240.100 55.206 C 239.437 55.202,239.198 54.963,239.194 54.300 C 239.191 53.805,239.056 53.580,238.894 53.800 C 238.495 54.343,237.600 54.492,237.600 54.016 C 237.600 53.804,236.835 53.669,235.900 53.716 L 234.200 53.800 234.284 52.100 C 234.331 51.165,234.196 50.400,233.984 50.400 C 233.508 50.400,233.657 49.505,234.200 49.106 C 234.420 48.944,234.195 48.809,233.700 48.806 C 233.037 48.802,232.798 48.563,232.794 47.900 C 232.791 47.405,232.656 47.180,232.494 47.400 C 232.095 47.943,231.200 48.092,231.200 47.616 C 231.200 47.404,230.435 47.269,229.500 47.316 L 227.800 47.400 227.884 45.700 C 227.931 44.765,227.796 44.000,227.584 44.000 C 227.108 44.000,227.257 43.105,227.800 42.706 C 228.020 42.544,227.795 42.409,227.300 42.406 C 226.805 42.403,226.400 42.166,226.400 41.880 C 226.400 41.515,225.718 41.359,224.100 41.355 L 221.800 41.351 221.884 39.675 C 221.931 38.754,221.796 38.000,221.584 38.000 C 221.108 38.000,221.257 37.105,221.800 36.706 C 222.020 36.544,221.795 36.409,221.300 36.406 C 220.637 36.402,220.398 36.163,220.394 35.500 C 220.391 35.005,220.256 34.780,220.094 35.000 C 219.695 35.543,218.800 35.692,218.800 35.216 C 218.800 35.004,218.035 34.869,217.100 34.916 L 215.400 35.000 215.484 33.300 C 215.531 32.365,215.396 31.600,215.184 31.600 C 214.708 31.600,214.857 30.705,215.400 30.306 C 215.620 30.144,215.395 30.009,214.900 30.006 C 214.237 30.002,213.998 29.763,213.994 29.100 C 213.991 28.605,213.856 28.380,213.694 28.600 C 213.331 29.094,212.400 29.310,212.400 28.900 C 212.400 28.735,206.910 28.600,200.200 28.600 C 193.490 28.600,188.000 28.735,188.000 28.900 C 188.000 29.310,187.069 29.094,186.706 28.600 C 186.544 28.380,186.409 28.605,186.406 29.100 M241.389 142.962 C 241.382 144.517,241.534 145.200,241.889 145.200 C 242.170 145.200,242.403 145.605,242.406 146.100 C 242.409 146.595,242.544 146.820,242.706 146.600 C 243.105 146.057,244.000 145.908,244.000 146.384 C 244.000 146.596,244.765 146.731,245.700 146.684 L 247.400 146.600 247.316 148.300 C 247.269 149.235,247.404 150.000,247.616 150.000 C 248.092 150.000,247.943 150.895,247.400 151.294 C 247.180 151.456,247.405 151.591,247.900 151.594 C 248.563 151.598,248.802 151.837,248.806 152.500 C 248.809 152.995,248.944 153.220,249.106 153.000 C 249.505 152.457,250.400 152.308,250.400 152.784 C 250.400 152.996,251.165 153.131,252.100 153.084 L 253.800 153.000 253.716 154.700 C 253.669 155.635,253.804 156.400,254.016 156.400 C 254.492 156.400,254.343 157.295,253.800 157.694 C 253.580 157.856,253.805 157.991,254.300 157.994 C 254.886 157.998,255.202 158.244,255.206 158.700 C 255.210 159.095,255.340 159.226,255.506 159.000 C 255.907 158.454,256.800 158.310,256.800 158.791 C 256.800 159.006,257.475 159.141,258.300 159.091 L 259.800 159.000 259.716 160.700 C 259.669 161.635,259.804 162.400,260.016 162.400 C 260.492 162.400,260.343 163.295,259.800 163.694 C 259.580 163.856,259.805 163.991,260.300 163.994 C 260.963 163.998,261.202 164.237,261.206 164.900 C 261.209 165.395,261.344 165.620,261.506 165.400 C 261.905 164.857,262.800 164.708,262.800 165.184 C 262.800 165.396,263.565 165.531,264.500 165.484 L 266.200 165.400 266.116 167.100 C 266.069 168.035,266.204 168.800,266.416 168.800 C 266.892 168.800,266.743 169.695,266.200 170.094 C 265.980 170.256,266.205 170.391,266.700 170.394 C 267.363 170.398,267.602 170.637,267.606 171.300 C 267.609 171.795,267.744 172.020,267.906 171.800 C 268.305 171.257,269.200 171.108,269.200 171.584 C 269.200 171.796,269.965 171.931,270.900 171.884 L 272.599 171.800 272.532 173.300 C 272.495 174.125,272.630 174.800,272.832 174.800 C 273.295 174.800,273.133 175.702,272.600 176.094 C 272.380 176.256,272.605 176.391,273.100 176.394 C 273.763 176.398,274.002 176.637,274.006 177.300 C 274.011 177.957,274.105 178.054,274.356 177.657 C 274.586 177.295,274.788 177.257,274.964 177.541 C 275.108 177.776,275.986 177.930,276.914 177.884 L 278.600 177.800 278.516 179.500 C 278.469 180.435,278.604 181.200,278.816 181.200 C 279.292 181.200,279.143 182.095,278.600 182.494 C 278.380 182.656,278.605 182.791,279.100 182.794 C 279.763 182.798,280.002 183.037,280.006 183.700 C 280.009 184.195,280.144 184.420,280.306 184.200 C 280.705 183.657,281.600 183.508,281.600 183.984 C 281.600 184.196,282.338 184.331,283.239 184.284 C 284.175 184.236,284.819 184.369,284.739 184.593 C 284.663 184.809,283.925 184.951,283.100 184.908 C 282.275 184.866,281.600 185.004,281.600 185.216 C 281.600 185.692,280.705 185.543,280.306 185.000 C 280.144 184.780,280.009 185.005,280.006 185.500 C 280.002 186.163,279.763 186.402,279.100 186.406 C 278.605 186.409,278.380 186.544,278.600 186.706 C 279.143 187.105,279.292 188.000,278.816 188.000 C 278.604 188.000,278.469 188.754,278.516 189.675 L 278.600 191.351 276.300 191.355 C 274.682 191.359,274.000 191.515,274.000 191.880 C 274.000 192.166,273.595 192.403,273.100 192.406 C 272.605 192.409,272.380 192.544,272.600 192.706 C 273.143 193.105,273.292 194.000,272.816 194.000 C 272.604 194.000,272.469 194.765,272.516 195.700 L 272.600 197.400 270.900 197.316 C 269.965 197.269,269.200 197.404,269.200 197.616 C 269.200 198.092,268.305 197.943,267.906 197.400 C 267.744 197.180,267.609 197.405,267.606 197.900 C 267.602 198.563,267.363 198.802,266.700 198.806 C 266.205 198.809,265.980 198.944,266.200 199.106 C 266.743 199.505,266.892 200.400,266.416 200.400 C 266.204 200.400,266.069 201.165,266.116 202.100 L 266.200 203.800 264.500 203.716 C 263.565 203.669,262.800 203.804,262.800 204.016 C 262.800 204.492,261.905 204.343,261.506 203.800 C 261.344 203.580,261.209 203.805,261.206 204.300 C 261.202 204.963,260.963 205.202,260.300 205.206 C 259.805 205.209,259.580 205.344,259.800 205.506 C 260.346 205.907,260.490 206.800,260.009 206.800 C 259.794 206.800,259.659 207.475,259.709 208.300 C 259.800 209.797,259.797 209.800,258.300 209.709 C 257.475 209.659,256.800 209.794,256.800 210.009 C 256.800 210.490,255.907 210.346,255.506 209.800 C 255.344 209.580,255.209 209.805,255.206 210.300 C 255.202 210.963,254.963 211.202,254.300 211.206 C 253.805 211.209,253.580 211.344,253.800 211.506 C 254.343 211.905,254.492 212.800,254.016 212.800 C 253.804 212.800,253.669 213.565,253.716 214.500 L 253.800 216.200 252.100 216.116 C 251.165 216.069,250.400 216.204,250.400 216.416 C 250.400 216.892,249.505 216.743,249.106 216.200 C 248.944 215.980,248.809 216.205,248.806 216.700 C 248.802 217.363,248.563 217.602,247.900 217.606 C 247.405 217.609,247.180 217.744,247.400 217.906 C 247.943 218.305,248.092 219.200,247.616 219.200 C 247.404 219.200,247.269 219.965,247.316 220.900 L 247.400 222.600 245.700 222.516 C 244.765 222.469,244.000 222.604,244.000 222.816 C 244.000 223.292,243.105 223.143,242.706 222.600 C 242.544 222.380,242.409 222.605,242.406 223.100 C 242.403 223.595,242.166 224.000,241.880 224.000 C 241.514 224.000,241.359 224.682,241.356 226.300 C 241.353 227.607,241.189 228.514,240.975 228.400 C 240.753 228.281,240.600 222.551,240.600 214.300 C 240.600 206.655,240.465 200.400,240.300 200.400 C 239.890 200.400,240.106 199.469,240.600 199.106 C 240.820 198.944,240.595 198.809,240.100 198.806 C 239.437 198.802,239.198 198.563,239.194 197.900 C 239.191 197.405,239.056 197.180,238.894 197.400 C 238.531 197.894,237.600 198.110,237.600 197.700 C 237.600 197.535,220.770 197.400,200.200 197.400 C 179.630 197.400,162.800 197.535,162.800 197.700 C 162.800 198.110,161.869 197.894,161.506 197.400 C 161.344 197.180,161.209 197.405,161.206 197.900 C 161.202 198.563,160.963 198.802,160.300 198.806 C 159.805 198.809,159.580 198.944,159.800 199.106 C 160.294 199.469,160.510 200.400,160.100 200.400 C 159.935 200.400,159.800 210.975,159.800 223.900 L 159.800 247.400 150.200 247.400 L 140.600 247.400 140.600 212.600 L 140.600 177.800 142.100 177.891 C 142.925 177.941,143.600 177.806,143.600 177.591 C 143.600 177.110,144.493 177.254,144.894 177.800 C 145.056 178.020,145.191 177.795,145.194 177.300 C 145.198 176.637,145.437 176.398,146.100 176.394 C 146.595 176.391,146.820 176.256,146.600 176.094 C 146.067 175.702,145.905 174.800,146.368 174.800 C 146.570 174.800,146.705 174.125,146.668 173.300 L 146.601 171.800 192.100 171.800 C 217.125 171.800,237.600 171.665,237.600 171.500 C 237.600 171.090,238.531 171.306,238.894 171.800 C 239.056 172.020,239.191 171.795,239.194 171.300 C 239.198 170.637,239.437 170.398,240.100 170.394 C 240.595 170.391,240.820 170.256,240.600 170.094 C 240.106 169.731,239.890 168.800,240.300 168.800 C 240.465 168.800,240.540 162.669,240.467 155.175 C 240.393 147.682,240.437 141.280,240.564 140.950 C 241.009 139.791,241.400 140.745,241.389 142.962 " stroke="none" fill="#b3c100" fill-rule="evenodd"></path><path id="path1" d="M195.523 28.699 C 198.231 28.768,202.551 28.768,205.123 28.699 C 207.695 28.629,205.480 28.572,200.200 28.573 C 194.920 28.573,192.815 28.630,195.523 28.699 M240.582 140.904 C 240.475 141.181,240.439 146.986,240.500 153.804 L 240.612 166.200 240.706 153.476 C 240.776 143.981,240.917 140.825,241.262 141.038 C 241.548 141.215,241.615 141.148,241.438 140.862 C 241.070 140.265,240.822 140.278,240.582 140.904 M146.662 171.900 C 146.494 172.171,177.630 172.169,219.200 171.895 C 227.890 171.837,215.166 171.748,190.924 171.695 C 166.682 171.643,146.764 171.735,146.662 171.900 M140.584 178.100 C 140.479 178.375,140.440 194.080,140.497 213.000 L 140.600 247.400 150.200 247.400 L 159.800 247.400 159.805 225.300 L 159.810 203.200 159.702 225.200 L 159.593 247.200 150.192 247.200 L 140.791 247.200 140.896 212.400 C 140.953 193.260,140.949 177.600,140.887 177.600 C 140.826 177.600,140.689 177.825,140.584 178.100 M28.573 200.200 C 28.573 205.480,28.630 207.585,28.699 204.877 C 28.768 202.169,28.768 197.849,28.699 195.277 C 28.629 192.705,28.572 194.920,28.573 200.200 M371.773 200.200 C 371.773 205.480,371.830 207.585,371.899 204.877 C 371.968 202.169,371.968 197.849,371.899 195.277 C 371.829 192.705,371.772 194.920,371.773 200.200 M182.930 197.500 C 192.572 197.560,208.232 197.560,217.730 197.500 C 227.229 197.440,219.340 197.391,200.200 197.391 C 181.060 197.391,173.289 197.440,182.930 197.500 M240.494 215.676 C 240.407 227.448,240.576 229.733,241.434 228.345 C 241.614 228.054,241.550 227.983,241.267 228.158 C 240.930 228.367,240.782 225.118,240.700 215.720 L 240.588 203.000 240.494 215.676 M195.523 371.899 C 198.231 371.968,202.551 371.968,205.123 371.899 C 207.695 371.829,205.480 371.772,200.200 371.773 C 194.920 371.773,192.815 371.830,195.523 371.899 " stroke="none" fill="#c6c600" fill-rule="evenodd"></path><path id="path2" d="" stroke="none" fill="#b1d800" fill-rule="evenodd"></path><path id="path3" d="" stroke="none" fill="#99ff00" fill-rule="evenodd"></path><path id="path4" d="" stroke="none" fill="#ffff00" fill-rule="evenodd"></path></g></svg>