<svg id="svg" version="1.1" width="400" height="400" xmlns="http://www.w3.org/2000/svg" xmlns:xlink="http://www.w3.org/1999/xlink" style="display: block;"><g id="svgg"><path id="path0" d="M167.606 29.100 C 167.602 29.763,167.363 30.002,166.700 30.006 C 166.205 30.009,165.980 30.144,166.200 30.306 C 166.743 30.705,166.892 31.600,166.416 31.600 C 166.204 31.600,166.069 32.365,166.116 33.300 L 166.200 35.000 158.300 34.998 C 153.955 34.996,150.400 35.131,150.400 35.298 C 150.400 35.709,149.470 35.495,149.106 35.000 C 148.944 34.780,148.809 35.005,148.806 35.500 C 148.802 36.163,148.563 36.402,147.900 36.406 C 147.405 36.409,147.180 36.544,147.400 36.706 C 147.943 37.105,148.092 38.000,147.616 38.000 C 147.404 38.000,147.269 38.765,147.316 39.700 L 147.400 41.400 141.900 41.376 C 137.623 41.358,136.400 41.469,136.400 41.876 C 136.400 42.164,135.995 42.403,135.500 42.406 C 135.005 42.409,134.780 42.544,135.000 42.706 C 135.543 43.105,135.692 44.000,135.216 44.000 C 135.004 44.000,134.869 44.765,134.915 45.700 L 135.000 47.400 130.200 47.400 C 127.560 47.400,125.190 47.536,124.934 47.702 C 124.678 47.869,124.377 47.779,124.266 47.502 C 124.154 47.226,124.049 47.405,124.032 47.900 C 124.009 48.555,123.755 48.802,123.100 48.806 C 122.605 48.809,122.380 48.944,122.600 49.106 C 123.143 49.505,123.292 50.400,122.816 50.400 C 122.604 50.400,122.469 51.165,122.516 52.100 L 122.600 53.800 120.900 53.716 C 119.965 53.669,119.200 53.804,119.200 54.016 C 119.200 54.492,118.305 54.343,117.906 53.800 C 117.744 53.580,117.609 53.805,117.606 54.300 C 117.602 54.963,117.363 55.202,116.700 55.206 C 116.205 55.209,115.980 55.344,116.200 55.506 C 116.746 55.907,116.890 56.800,116.409 56.800 C 116.194 56.800,116.059 57.475,116.109 58.300 L 116.200 59.800 114.500 59.716 C 113.565 59.669,112.800 59.804,112.800 60.016 C 112.800 60.492,111.905 60.343,111.506 59.800 C 111.344 59.580,111.209 59.805,111.206 60.300 C 111.202 60.963,110.963 61.202,110.300 61.206 C 109.805 61.209,109.580 61.344,109.800 61.506 C 110.343 61.905,110.492 62.800,110.016 62.800 C 109.804 62.800,109.669 63.565,109.716 64.500 L 109.800 66.200 108.300 66.109 C 107.475 66.059,106.800 66.194,106.800 66.409 C 106.800 66.890,105.907 66.746,105.506 66.200 C 105.344 65.980,105.209 66.205,105.206 66.700 C 105.202 67.363,104.963 67.602,104.300 67.606 C 103.805 67.609,103.580 67.744,103.800 67.906 C 104.343 68.305,104.492 69.200,104.016 69.200 C 103.804 69.200,103.669 69.965,103.716 70.900 L 103.800 72.600 102.100 72.516 C 101.165 72.469,100.400 72.604,100.400 72.816 C 100.400 73.292,99.505 73.143,99.106 72.600 C 98.944 72.380,98.809 72.605,98.806 73.100 C 98.802 73.763,98.563 74.002,97.900 74.006 C 97.169 74.011,97.113 74.086,97.600 74.406 C 98.009 74.675,98.061 74.896,97.765 75.100 C 97.489 75.290,97.343 77.155,97.365 80.200 L 97.400 84.999 95.700 84.915 C 94.765 84.869,94.000 85.004,94.000 85.216 C 94.000 85.692,93.105 85.543,92.706 85.000 C 92.544 84.780,92.409 85.005,92.406 85.500 C 92.403 85.995,92.164 86.400,91.876 86.400 C 91.469 86.400,91.358 87.623,91.376 91.900 L 91.400 97.400 89.700 97.316 C 88.765 97.269,88.000 97.404,88.000 97.616 C 88.000 98.092,87.105 97.943,86.706 97.400 C 86.544 97.180,86.409 97.405,86.406 97.900 C 86.402 98.563,86.163 98.802,85.500 98.806 C 85.005 98.809,84.780 98.944,85.000 99.106 C 85.495 99.470,85.709 100.400,85.298 100.400 C 85.131 100.400,84.996 103.955,84.998 108.300 L 85.000 116.200 83.300 116.116 C 82.365 116.069,81.600 116.204,81.600 116.416 C 81.600 116.892,80.705 116.743,80.306 116.200 C 80.144 115.980,80.009 116.205,80.006 116.700 C 80.002 117.363,79.763 117.602,79.100 117.606 C 78.605 117.609,78.380 117.744,78.600 117.906 C 79.094 118.269,79.310 119.200,78.900 119.200 C 78.735 119.200,78.600 133.150,78.600 150.200 C 78.600 167.250,78.735 181.200,78.900 181.200 C 79.310 181.200,79.094 182.131,78.600 182.494 C 78.380 182.656,78.605 182.791,79.100 182.794 C 79.763 182.798,80.002 183.037,80.006 183.700 C 80.009 184.195,80.144 184.420,80.306 184.200 C 80.705 183.657,81.600 183.508,81.600 183.984 C 81.600 184.196,82.365 184.331,83.300 184.284 L 85.000 184.200 85.000 195.300 C 85.000 201.405,85.135 206.400,85.300 206.400 C 85.710 206.400,85.494 207.331,85.000 207.694 C 84.780 207.856,85.005 207.991,85.500 207.994 C 86.086 207.998,86.402 208.244,86.406 208.700 C 86.410 209.095,86.540 209.226,86.706 209.000 C 87.105 208.457,88.000 208.308,88.000 208.784 C 88.000 208.996,88.765 209.131,89.700 209.084 L 91.400 209.000 91.378 214.700 C 91.361 219.133,91.472 220.400,91.878 220.400 C 92.165 220.400,92.403 220.805,92.406 221.300 C 92.409 221.795,92.544 222.020,92.706 221.800 C 93.105 221.257,94.000 221.108,94.000 221.584 C 94.000 221.796,94.765 221.931,95.700 221.886 L 97.400 221.802 97.358 226.501 C 97.335 229.086,97.470 231.200,97.658 231.200 C 98.101 231.200,97.919 232.113,97.400 232.494 C 97.180 232.656,97.405 232.791,97.900 232.794 C 98.563 232.798,98.802 233.037,98.806 233.700 C 98.809 234.195,98.944 234.420,99.106 234.200 C 99.505 233.657,100.400 233.508,100.400 233.984 C 100.400 234.196,101.165 234.331,102.100 234.285 L 103.800 234.201 103.773 238.901 C 103.758 241.485,103.893 243.600,104.073 243.600 C 104.504 243.600,104.310 244.519,103.800 244.894 C 103.580 245.056,103.805 245.191,104.300 245.194 C 104.963 245.198,105.202 245.437,105.206 246.100 C 105.209 246.595,105.344 246.820,105.506 246.600 C 105.907 246.054,106.800 245.910,106.800 246.391 C 106.800 246.606,107.475 246.741,108.300 246.691 L 109.800 246.600 109.761 251.500 C 109.740 254.195,109.875 256.400,110.061 256.400 C 110.501 256.400,110.317 257.314,109.800 257.694 C 109.580 257.856,109.805 257.991,110.300 257.994 C 110.886 257.998,111.202 258.244,111.206 258.700 C 111.210 259.095,111.340 259.226,111.506 259.000 C 111.905 258.457,112.800 258.308,112.800 258.784 C 112.800 258.996,113.565 259.131,114.500 259.085 L 116.200 259.002 116.161 263.901 C 116.140 266.595,116.275 268.800,116.461 268.800 C 116.901 268.800,116.717 269.714,116.200 270.094 C 115.980 270.256,116.205 270.391,116.700 270.394 C 117.363 270.398,117.602 270.637,117.606 271.300 C 117.609 271.795,117.744 272.020,117.906 271.800 C 118.305 271.257,119.200 271.108,119.200 271.584 C 119.200 271.796,119.965 271.931,120.900 271.884 L 122.599 271.800 122.532 273.300 C 122.495 274.125,122.630 274.800,122.832 274.800 C 123.295 274.800,123.133 275.702,122.600 276.094 C 122.380 276.256,122.605 276.391,123.100 276.394 C 123.763 276.398,124.002 276.637,124.006 277.300 C 124.011 277.957,124.105 278.054,124.356 277.657 C 124.586 277.295,124.788 277.257,124.964 277.541 C 125.108 277.776,125.986 277.930,126.914 277.885 L 128.600 277.802 128.561 282.701 C 128.540 285.395,128.675 287.600,128.861 287.600 C 129.301 287.600,129.117 288.514,128.600 288.894 C 128.380 289.056,128.605 289.191,129.100 289.194 C 129.763 289.198,130.002 289.437,130.006 290.100 C 130.009 290.595,130.144 290.820,130.306 290.600 C 130.705 290.057,131.600 289.908,131.600 290.384 C 131.600 290.596,132.365 290.731,133.300 290.684 L 135.000 290.600 134.909 292.100 C 134.859 292.925,134.994 293.600,135.209 293.600 C 135.690 293.600,135.546 294.493,135.000 294.894 C 134.780 295.056,135.005 295.191,135.500 295.194 C 136.163 295.198,136.402 295.437,136.406 296.100 C 136.409 296.595,136.544 296.820,136.706 296.600 C 137.105 296.057,138.000 295.908,138.000 296.384 C 138.000 296.596,138.765 296.731,139.700 296.684 L 141.400 296.600 141.378 302.300 C 141.361 306.733,141.472 308.000,141.878 308.000 C 142.165 308.000,142.403 308.315,142.406 308.700 C 142.410 309.095,142.540 309.226,142.706 309.000 C 143.105 308.457,144.000 308.308,144.000 308.784 C 144.000 308.996,144.765 309.131,145.700 309.084 L 147.400 309.000 147.316 310.700 C 147.269 311.635,147.404 312.400,147.616 312.400 C 148.092 312.400,147.943 313.295,147.400 313.694 C 147.180 313.856,147.405 313.991,147.900 313.994 C 148.563 313.998,148.802 314.237,148.806 314.900 C 148.809 315.395,148.944 315.620,149.106 315.400 C 149.505 314.857,150.400 314.708,150.400 315.184 C 150.400 315.396,151.165 315.531,152.100 315.485 L 153.800 315.401 153.776 320.100 C 153.762 322.685,153.897 324.800,154.076 324.800 C 154.504 324.800,154.308 325.720,153.800 326.094 C 153.580 326.256,153.805 326.391,154.300 326.394 C 154.963 326.398,155.202 326.637,155.206 327.300 C 155.209 327.795,155.344 328.020,155.506 327.800 C 155.907 327.254,156.800 327.110,156.800 327.591 C 156.800 327.806,157.475 327.941,158.300 327.891 L 159.800 327.800 159.716 329.500 C 159.669 330.435,159.804 331.200,160.016 331.200 C 160.492 331.200,160.343 332.095,159.800 332.494 C 159.580 332.656,159.805 332.791,160.300 332.794 C 160.963 332.798,161.202 333.037,161.206 333.700 C 161.209 334.195,161.344 334.420,161.506 334.200 C 161.905 333.657,162.800 333.508,162.800 333.984 C 162.800 334.196,163.565 334.331,164.500 334.284 L 166.200 334.200 166.116 335.900 C 166.069 336.835,166.204 337.600,166.416 337.600 C 166.892 337.600,166.743 338.495,166.200 338.894 C 165.980 339.056,166.205 339.191,166.700 339.194 C 167.363 339.198,167.602 339.437,167.606 340.100 C 167.609 340.595,167.744 340.820,167.906 340.600 C 168.305 340.057,169.200 339.908,169.200 340.384 C 169.200 340.596,169.965 340.731,170.900 340.686 L 172.600 340.602 172.558 345.301 C 172.535 347.886,172.670 350.000,172.858 350.000 C 173.301 350.000,173.119 350.913,172.600 351.294 C 172.380 351.456,172.605 351.591,173.100 351.594 C 173.763 351.598,174.002 351.837,174.006 352.500 C 174.011 353.157,174.105 353.254,174.356 352.857 C 174.586 352.495,174.788 352.457,174.964 352.741 C 175.108 352.976,175.986 353.130,176.914 353.084 L 178.600 353.000 178.516 354.700 C 178.469 355.635,178.604 356.400,178.816 356.400 C 179.292 356.400,179.143 357.295,178.600 357.694 C 178.380 357.856,178.605 357.991,179.100 357.994 C 179.686 357.998,180.002 358.244,180.006 358.700 C 180.010 359.095,180.140 359.226,180.306 359.000 C 180.705 358.457,181.600 358.308,181.600 358.784 C 181.600 358.996,182.365 359.131,183.300 359.084 L 185.000 359.000 184.916 360.700 C 184.869 361.635,185.004 362.400,185.216 362.400 C 185.692 362.400,185.543 363.295,185.000 363.694 C 184.780 363.856,185.005 363.991,185.500 363.994 C 186.163 363.998,186.402 364.237,186.406 364.900 C 186.409 365.395,186.544 365.620,186.706 365.400 C 187.105 364.857,188.000 364.708,188.000 365.184 C 188.000 365.396,188.752 365.531,189.671 365.484 L 191.341 365.400 191.369 367.900 C 191.388 369.624,191.552 370.400,191.898 370.400 C 192.174 370.400,192.403 370.805,192.406 371.300 C 192.409 371.795,192.544 372.020,192.706 371.800 C 193.069 371.306,194.000 371.090,194.000 371.500 C 194.000 371.665,196.790 371.800,200.200 371.800 C 203.610 371.800,206.400 371.665,206.400 371.500 C 206.400 371.090,207.331 371.306,207.694 371.800 C 207.856 372.020,207.991 371.795,207.994 371.300 C 207.998 370.714,208.244 370.398,208.700 370.394 C 209.095 370.390,209.226 370.260,209.000 370.094 C 208.457 369.695,208.308 368.800,208.784 368.800 C 208.996 368.800,209.131 368.035,209.084 367.100 L 209.000 365.400 210.700 365.484 C 211.635 365.531,212.400 365.396,212.400 365.184 C 212.400 364.708,213.295 364.857,213.694 365.400 C 213.856 365.620,213.991 365.395,213.994 364.900 C 213.998 364.237,214.237 363.998,214.900 363.994 C 215.395 363.991,215.620 363.856,215.400 363.694 C 214.857 363.295,214.708 362.400,215.184 362.400 C 215.396 362.400,215.531 361.635,215.484 360.700 L 215.400 359.000 217.100 359.084 C 218.035 359.131,218.800 358.996,218.800 358.784 C 218.800 358.308,219.695 358.457,220.094 359.000 C 220.260 359.226,220.390 359.095,220.394 358.700 C 220.398 358.244,220.714 357.998,221.300 357.994 C 221.795 357.991,222.020 357.856,221.800 357.694 C 221.257 357.295,221.108 356.400,221.584 356.400 C 221.796 356.400,221.931 355.635,221.884 354.700 L 221.800 353.000 223.486 353.084 C 224.414 353.130,225.292 352.976,225.436 352.741 C 225.612 352.457,225.814 352.495,226.044 352.857 C 226.295 353.254,226.389 353.157,226.394 352.500 C 226.398 351.837,226.637 351.598,227.300 351.594 C 227.795 351.591,228.020 351.456,227.800 351.294 C 227.281 350.913,227.099 350.000,227.542 350.000 C 227.730 350.000,227.865 347.886,227.842 345.301 L 227.800 340.602 229.500 340.686 C 230.435 340.731,231.200 340.596,231.200 340.384 C 231.200 339.908,232.095 340.057,232.494 340.600 C 232.656 340.820,232.791 340.595,232.794 340.100 C 232.798 339.437,233.037 339.198,233.700 339.194 C 234.195 339.191,234.420 339.056,234.200 338.894 C 233.657 338.495,233.508 337.600,233.984 337.600 C 234.196 337.600,234.331 336.835,234.284 335.900 L 234.200 334.200 235.900 334.284 C 236.835 334.331,237.600 334.196,237.600 333.984 C 237.600 333.508,238.495 333.657,238.894 334.200 C 239.056 334.420,239.191 334.195,239.194 333.700 C 239.198 333.037,239.437 332.798,240.100 332.794 C 240.595 332.791,240.820 332.656,240.600 332.494 C 240.057 332.095,239.908 331.200,240.384 331.200 C 240.596 331.200,240.731 330.435,240.684 329.500 L 240.600 327.800 242.100 327.891 C 242.925 327.941,243.600 327.806,243.600 327.591 C 243.600 327.110,244.493 327.254,244.894 327.800 C 245.056 328.020,245.191 327.795,245.194 327.300 C 245.198 326.637,245.437 326.398,246.100 326.394 C 246.595 326.391,246.820 326.256,246.600 326.094 C 246.092 325.720,245.896 324.800,246.324 324.800 C 246.503 324.800,246.638 322.685,246.624 320.100 L 246.600 315.401 248.300 315.485 C 249.235 315.531,250.000 315.396,250.000 315.184 C 250.000 314.708,250.895 314.857,251.294 315.400 C 251.456 315.620,251.591 315.395,251.594 314.900 C 251.598 314.237,251.837 313.998,252.500 313.994 C 252.995 313.991,253.220 313.856,253.000 313.694 C 252.457 313.295,252.308 312.400,252.784 312.400 C 252.996 312.400,253.131 311.635,253.084 310.700 L 253.000 309.000 254.700 309.084 C 255.635 309.131,256.400 308.996,256.400 308.784 C 256.400 308.308,257.295 308.457,257.694 309.000 C 257.860 309.226,257.990 309.095,257.994 308.700 C 257.997 308.305,258.305 307.997,258.700 307.994 C 259.095 307.990,259.226 307.860,259.000 307.694 C 258.483 307.314,258.299 306.400,258.739 306.400 C 258.925 306.400,259.060 304.195,259.039 301.501 L 259.000 296.602 260.700 296.685 C 261.635 296.731,262.400 296.596,262.400 296.384 C 262.400 295.908,263.295 296.057,263.694 296.600 C 263.856 296.820,263.991 296.595,263.994 296.100 C 263.998 295.437,264.237 295.198,264.900 295.194 C 265.395 295.191,265.620 295.056,265.400 294.894 C 264.854 294.493,264.710 293.600,265.191 293.600 C 265.406 293.600,265.541 292.925,265.491 292.100 L 265.400 290.600 267.100 290.684 C 268.035 290.731,268.800 290.596,268.800 290.384 C 268.800 289.908,269.695 290.057,270.094 290.600 C 270.256 290.820,270.391 290.595,270.394 290.100 C 270.398 289.437,270.637 289.198,271.300 289.194 C 271.795 289.191,272.020 289.056,271.800 288.894 C 271.283 288.514,271.099 287.600,271.539 287.600 C 271.725 287.600,271.860 285.395,271.839 282.701 L 271.800 277.802 273.486 277.885 C 274.414 277.930,275.292 277.776,275.436 277.541 C 275.612 277.257,275.814 277.295,276.044 277.657 C 276.295 278.054,276.389 277.957,276.394 277.300 C 276.398 276.637,276.637 276.398,277.300 276.394 C 277.795 276.391,278.020 276.256,277.800 276.094 C 277.267 275.702,277.105 274.800,277.568 274.800 C 277.770 274.800,277.905 274.125,277.868 273.300 L 277.801 271.800 279.500 271.884 C 280.435 271.931,281.200 271.796,281.200 271.584 C 281.200 271.108,282.095 271.257,282.494 271.800 C 282.656 272.020,282.791 271.795,282.794 271.300 C 282.798 270.637,283.037 270.398,283.700 270.394 C 284.195 270.391,284.420 270.256,284.200 270.094 C 283.683 269.714,283.499 268.800,283.939 268.800 C 284.125 268.800,284.260 266.595,284.239 263.901 L 284.200 259.002 285.900 259.085 C 286.835 259.131,287.600 258.996,287.600 258.784 C 287.600 258.308,288.495 258.457,288.894 259.000 C 289.060 259.226,289.190 259.095,289.194 258.700 C 289.198 258.244,289.514 257.998,290.100 257.994 C 290.595 257.991,290.820 257.856,290.600 257.694 C 290.083 257.314,289.899 256.400,290.339 256.400 C 290.525 256.400,290.660 254.195,290.639 251.500 L 290.600 246.600 292.100 246.691 C 292.925 246.741,293.600 246.606,293.600 246.391 C 293.600 245.910,294.493 246.054,294.894 246.600 C 295.056 246.820,295.191 246.595,295.194 246.100 C 295.198 245.437,295.437 245.198,296.100 245.194 C 296.595 245.191,296.820 245.056,296.600 244.894 C 296.090 244.519,295.896 243.600,296.327 243.600 C 296.507 243.600,296.642 241.485,296.627 238.901 L 296.600 234.201 298.300 234.285 C 299.235 234.331,300.000 234.196,300.000 233.984 C 300.000 233.508,300.895 233.657,301.294 234.200 C 301.456 234.420,301.591 234.195,301.594 233.700 C 301.598 233.037,301.837 232.798,302.500 232.794 C 302.995 232.791,303.220 232.656,303.000 232.494 C 302.481 232.113,302.299 231.200,302.742 231.200 C 302.930 231.200,303.065 229.086,303.042 226.501 L 303.000 221.802 304.700 221.886 C 305.635 221.931,306.400 221.796,306.400 221.584 C 306.400 221.108,307.295 221.257,307.694 221.800 C 307.856 222.020,307.991 221.795,307.994 221.300 C 307.998 220.714,308.244 220.398,308.700 220.394 C 309.095 220.390,309.226 220.260,309.000 220.094 C 308.483 219.714,308.299 218.800,308.739 218.800 C 308.925 218.800,309.060 216.595,309.039 213.901 L 309.000 209.002 310.700 209.085 C 311.635 209.131,312.400 208.996,312.400 208.784 C 312.400 208.308,313.295 208.457,313.694 209.000 C 313.860 209.226,313.990 209.095,313.994 208.700 C 313.998 208.244,314.314 207.998,314.900 207.994 C 315.395 207.991,315.620 207.856,315.400 207.694 C 314.906 207.331,314.690 206.400,315.100 206.400 C 315.265 206.400,315.400 201.405,315.400 195.300 L 315.400 184.200 317.100 184.284 C 318.035 184.331,318.800 184.196,318.800 183.984 C 318.800 183.508,319.695 183.657,320.094 184.200 C 320.256 184.420,320.391 184.195,320.394 183.700 C 320.398 183.037,320.637 182.798,321.300 182.794 C 321.795 182.791,322.020 182.656,321.800 182.494 C 321.306 182.131,321.090 181.200,321.500 181.200 C 321.665 181.200,321.800 167.250,321.800 150.200 C 321.800 133.150,321.665 119.200,321.500 119.200 C 321.090 119.200,321.306 118.269,321.800 117.906 C 322.020 117.744,321.795 117.609,321.300 117.606 C 320.637 117.602,320.398 117.363,320.394 116.700 C 320.391 116.205,320.256 115.980,320.094 116.200 C 319.695 116.743,318.800 116.892,318.800 116.416 C 318.800 116.204,318.035 116.069,317.100 116.116 L 315.400 116.200 315.402 108.300 C 315.404 103.955,315.269 100.400,315.102 100.400 C 314.691 100.400,314.905 99.470,315.400 99.106 C 315.620 98.944,315.395 98.809,314.900 98.806 C 314.237 98.802,313.998 98.563,313.994 97.900 C 313.991 97.405,313.856 97.180,313.694 97.400 C 313.295 97.943,312.400 98.092,312.400 97.616 C 312.400 97.404,311.635 97.269,310.700 97.314 L 309.000 97.398 309.042 92.699 C 309.065 90.114,308.930 88.000,308.742 88.000 C 308.299 88.000,308.481 87.087,309.000 86.706 C 309.226 86.540,309.095 86.410,308.700 86.406 C 308.244 86.402,307.998 86.086,307.994 85.500 C 307.991 85.005,307.856 84.780,307.694 85.000 C 307.295 85.543,306.400 85.692,306.400 85.216 C 306.400 85.004,305.635 84.869,304.700 84.915 L 303.000 84.999 303.035 80.200 C 303.057 77.155,302.911 75.290,302.635 75.100 C 302.339 74.896,302.391 74.675,302.800 74.406 C 303.287 74.086,303.231 74.011,302.500 74.006 C 301.837 74.002,301.598 73.763,301.594 73.100 C 301.591 72.605,301.456 72.380,301.294 72.600 C 300.895 73.143,300.000 73.292,300.000 72.816 C 300.000 72.604,299.235 72.469,298.300 72.516 L 296.600 72.600 296.684 70.900 C 296.731 69.965,296.596 69.200,296.384 69.200 C 295.908 69.200,296.057 68.305,296.600 67.906 C 296.820 67.744,296.595 67.609,296.100 67.606 C 295.437 67.602,295.198 67.363,295.194 66.700 C 295.191 66.205,295.056 65.980,294.894 66.200 C 294.493 66.746,293.600 66.890,293.600 66.409 C 293.600 66.194,292.925 66.059,292.100 66.109 L 290.600 66.200 290.684 64.500 C 290.731 63.565,290.596 62.800,290.384 62.800 C 289.908 62.800,290.057 61.905,290.600 61.506 C 290.820 61.344,290.595 61.209,290.100 61.206 C 289.437 61.202,289.198 60.963,289.194 60.300 C 289.191 59.805,289.056 59.580,288.894 59.800 C 288.495 60.343,287.600 60.492,287.600 60.016 C 287.600 59.804,286.835 59.669,285.900 59.716 L 284.200 59.800 284.291 58.300 C 284.341 57.475,284.206 56.800,283.991 56.800 C 283.510 56.800,283.654 55.907,284.200 55.506 C 284.420 55.344,284.195 55.209,283.700 55.206 C 283.037 55.202,282.798 54.963,282.794 54.300 C 282.791 53.805,282.656 53.580,282.494 53.800 C 282.095 54.343,281.200 54.492,281.200 54.016 C 281.200 53.804,280.435 53.669,279.500 53.716 L 277.800 53.800 277.884 52.100 C 277.931 51.165,277.796 50.400,277.584 50.400 C 277.108 50.400,277.257 49.505,277.800 49.106 C 278.020 48.944,277.795 48.809,277.300 48.806 C 276.645 48.802,276.391 48.555,276.368 47.900 C 276.351 47.405,276.246 47.226,276.134 47.502 C 276.023 47.779,275.722 47.869,275.466 47.702 C 275.210 47.536,272.840 47.400,270.200 47.400 L 265.400 47.400 265.485 45.700 C 265.531 44.765,265.396 44.000,265.184 44.000 C 264.708 44.000,264.857 43.105,265.400 42.706 C 265.620 42.544,265.395 42.409,264.900 42.406 C 264.405 42.403,264.000 42.164,264.000 41.876 C 264.000 41.469,262.777 41.358,258.500 41.376 L 253.000 41.400 253.084 39.700 C 253.131 38.765,252.996 38.000,252.784 38.000 C 252.308 38.000,252.457 37.105,253.000 36.706 C 253.220 36.544,252.995 36.409,252.500 36.406 C 251.837 36.402,251.598 36.163,251.594 35.500 C 251.591 35.005,251.456 34.780,251.294 35.000 C 250.930 35.495,250.000 35.709,250.000 35.298 C 250.000 35.131,246.445 34.996,242.100 34.998 L 234.200 35.000 234.284 33.300 C 234.331 32.365,234.196 31.600,233.984 31.600 C 233.508 31.600,233.657 30.705,234.200 30.306 C 234.420 30.144,234.195 30.009,233.700 30.006 C 233.037 30.002,232.798 29.763,232.794 29.100 C 232.791 28.605,232.656 28.380,232.494 28.600 C 232.131 29.094,231.200 29.310,231.200 28.900 C 231.200 28.735,217.250 28.600,200.200 28.600 C 183.150 28.600,169.200 28.735,169.200 28.900 C 169.200 29.310,168.269 29.094,167.906 28.600 C 167.744 28.380,167.609 28.605,167.606 29.100 M209.716 117.100 C 209.669 118.035,209.804 118.800,210.016 118.800 C 210.492 118.800,210.343 119.695,209.800 120.094 C 209.580 120.256,209.805 120.391,210.300 120.394 C 210.963 120.398,211.202 120.637,211.206 121.300 C 211.209 121.795,211.344 122.020,211.506 121.800 C 211.886 121.283,212.800 121.099,212.800 121.539 C 212.800 121.725,215.003 121.860,217.696 121.839 L 222.591 121.800 222.528 123.300 C 222.493 124.125,222.630 124.800,222.832 124.800 C 223.295 124.800,223.133 125.702,222.600 126.094 C 222.380 126.256,222.605 126.391,223.100 126.394 C 223.763 126.398,224.002 126.637,224.006 127.300 C 224.011 127.957,224.105 128.054,224.356 127.657 C 224.586 127.295,224.788 127.257,224.964 127.541 C 225.108 127.776,225.986 127.930,226.914 127.885 L 228.600 127.802 228.561 132.701 C 228.540 135.395,228.675 137.600,228.861 137.600 C 229.301 137.600,229.117 138.514,228.600 138.894 C 228.380 139.056,228.605 139.191,229.100 139.194 C 229.763 139.198,230.002 139.437,230.006 140.100 C 230.009 140.595,230.144 140.820,230.306 140.600 C 230.705 140.057,231.600 139.908,231.600 140.384 C 231.600 140.596,232.365 140.731,233.300 140.684 L 235.000 140.600 235.000 150.200 L 235.000 159.800 233.300 159.716 C 232.365 159.669,231.600 159.804,231.600 160.016 C 231.600 160.492,230.705 160.343,230.306 159.800 C 230.144 159.580,230.009 159.805,230.006 160.300 C 230.002 160.963,229.763 161.202,229.100 161.206 C 228.605 161.209,228.380 161.344,228.600 161.506 C 229.117 161.886,229.301 162.800,228.861 162.800 C 228.675 162.800,228.540 165.005,228.561 167.699 L 228.600 172.598 226.914 172.515 C 225.986 172.470,225.108 172.624,224.964 172.859 C 224.788 173.143,224.586 173.105,224.356 172.743 C 224.105 172.346,224.011 172.443,224.006 173.100 C 224.002 173.763,223.763 174.002,223.100 174.006 C 222.369 174.011,222.313 174.086,222.800 174.406 C 223.242 174.696,223.275 174.881,222.928 175.106 C 222.668 175.275,222.486 176.130,222.524 177.006 L 222.591 178.600 217.696 178.561 C 215.003 178.540,212.800 178.675,212.800 178.861 C 212.800 179.301,211.886 179.117,211.506 178.600 C 211.344 178.380,211.209 178.605,211.206 179.100 C 211.202 179.763,210.963 180.002,210.300 180.006 C 209.805 180.009,209.580 180.144,209.800 180.306 C 210.343 180.705,210.492 181.600,210.016 181.600 C 209.804 181.600,209.669 182.365,209.716 183.300 L 209.800 185.000 200.200 185.000 L 190.600 185.000 190.684 183.300 C 190.731 182.365,190.596 181.600,190.384 181.600 C 189.908 181.600,190.057 180.705,190.600 180.306 C 190.820 180.144,190.595 180.009,190.100 180.006 C 189.437 180.002,189.198 179.763,189.194 179.100 C 189.191 178.605,189.056 178.380,188.894 178.600 C 188.514 179.117,187.600 179.301,187.600 178.861 C 187.600 178.675,185.397 178.540,182.704 178.561 L 177.809 178.600 177.876 177.006 C 177.914 176.130,177.732 175.275,177.472 175.106 C 177.125 174.881,177.158 174.696,177.600 174.406 C 178.087 174.086,178.031 174.011,177.300 174.006 C 176.637 174.002,176.398 173.763,176.394 173.100 C 176.389 172.443,176.295 172.346,176.044 172.743 C 175.814 173.105,175.612 173.143,175.436 172.859 C 175.292 172.624,174.414 172.470,173.486 172.515 L 171.800 172.598 171.839 167.699 C 171.860 165.005,171.725 162.800,171.539 162.800 C 171.099 162.800,171.283 161.886,171.800 161.506 C 172.020 161.344,171.795 161.209,171.300 161.206 C 170.637 161.202,170.398 160.963,170.394 160.300 C 170.391 159.805,170.256 159.580,170.094 159.800 C 169.695 160.343,168.800 160.492,168.800 160.016 C 168.800 159.804,168.035 159.669,167.100 159.716 L 165.400 159.800 165.400 150.200 L 165.400 140.600 167.100 140.684 C 168.035 140.731,168.800 140.596,168.800 140.384 C 168.800 139.908,169.695 140.057,170.094 140.600 C 170.256 140.820,170.391 140.595,170.394 140.100 C 170.398 139.437,170.637 139.198,171.300 139.194 C 171.795 139.191,172.020 139.056,171.800 138.894 C 171.283 138.514,171.099 137.600,171.539 137.600 C 171.725 137.600,171.860 135.395,171.839 132.701 L 171.800 127.802 173.486 127.885 C 174.414 127.930,175.292 127.776,175.436 127.541 C 175.612 127.257,175.814 127.295,176.044 127.657 C 176.295 128.054,176.389 127.957,176.394 127.300 C 176.398 126.637,176.637 126.398,177.300 126.394 C 177.795 126.391,178.020 126.256,177.800 126.094 C 177.267 125.702,177.105 124.800,177.568 124.800 C 177.770 124.800,177.907 124.125,177.872 123.300 L 177.809 121.800 182.704 121.839 C 185.397 121.860,187.600 121.725,187.600 121.539 C 187.600 121.099,188.514 121.283,188.894 121.800 C 189.056 122.020,189.191 121.795,189.194 121.300 C 189.198 120.637,189.437 120.398,190.100 120.394 C 190.595 120.391,190.820 120.256,190.600 120.094 C 190.057 119.695,189.908 118.800,190.384 118.800 C 190.596 118.800,190.755 118.125,190.738 117.300 C 190.721 116.475,190.728 115.662,190.754 115.493 C 190.779 115.324,195.075 115.234,200.300 115.293 L 209.800 115.400 209.716 117.100 " stroke="none" fill="#b3c100" fill-rule="evenodd"></path><path id="path1" d="M186.129 28.700 C 194.011 28.761,206.791 28.761,214.529 28.700 C 222.268 28.639,215.820 28.589,200.200 28.590 C 184.580 28.590,178.248 28.639,186.129 28.700 M159.600 34.800 L 153.000 35.030 159.476 35.115 C 163.457 35.167,166.048 35.046,166.200 34.800 C 166.336 34.580,166.392 34.438,166.324 34.485 C 166.256 34.532,163.230 34.673,159.600 34.800 M234.349 34.911 C 234.521 35.081,237.527 35.171,241.031 35.109 L 247.400 34.998 240.719 34.799 C 237.044 34.689,234.178 34.740,234.349 34.911 M144.000 41.200 L 140.600 41.451 143.876 41.525 C 145.714 41.567,147.261 41.424,147.400 41.200 C 147.536 40.980,147.592 40.834,147.524 40.875 C 147.456 40.916,145.870 41.062,144.000 41.200 M253.156 41.318 C 253.332 41.493,254.899 41.581,256.638 41.515 L 259.800 41.393 256.318 41.197 C 254.403 41.088,252.980 41.143,253.156 41.318 M131.400 47.200 L 127.800 47.449 131.276 47.524 C 133.249 47.567,134.860 47.427,135.000 47.200 C 135.136 46.980,135.192 46.834,135.124 46.876 C 135.056 46.917,133.380 47.063,131.400 47.200 M265.555 47.317 C 265.731 47.492,267.388 47.580,269.237 47.514 L 272.600 47.394 268.918 47.197 C 266.893 47.089,265.380 47.143,265.555 47.317 M97.197 81.482 C 97.089 83.507,97.143 85.020,97.317 84.845 C 97.492 84.669,97.580 83.012,97.514 81.163 L 97.394 77.800 97.197 81.482 M302.864 81.276 C 302.829 83.188,302.935 84.837,303.100 84.939 C 303.265 85.042,303.350 84.018,303.289 82.663 C 303.089 78.252,302.929 77.730,302.864 81.276 M91.197 94.082 C 91.088 95.997,91.143 97.420,91.318 97.244 C 91.493 97.068,91.581 95.501,91.515 93.762 L 91.393 90.600 91.197 94.082 M308.860 93.876 C 308.827 95.678,308.935 97.237,309.100 97.339 C 309.265 97.442,309.350 96.418,309.288 95.063 C 309.100 90.922,308.923 90.431,308.860 93.876 M84.799 109.681 C 84.689 113.356,84.740 116.222,84.911 116.051 C 85.081 115.879,85.171 112.873,85.109 109.369 L 84.998 103.000 84.799 109.681 M315.276 109.476 C 315.234 113.038,315.335 116.037,315.500 116.139 C 315.665 116.242,315.753 114.318,315.695 111.863 C 315.505 103.772,315.352 102.904,315.276 109.476 M190.662 115.500 C 190.560 115.665,194.852 115.800,200.200 115.800 C 205.548 115.800,209.840 115.665,209.738 115.500 C 209.636 115.335,205.344 115.200,200.200 115.200 C 195.056 115.200,190.764 115.335,190.662 115.500 M177.861 121.900 C 177.758 122.065,178.782 122.150,180.137 122.089 C 184.548 121.889,185.070 121.729,181.524 121.664 C 179.612 121.629,177.963 121.735,177.861 121.900 M216.600 121.853 C 219.465 122.150,222.711 122.176,222.539 121.900 C 222.437 121.735,220.788 121.629,218.876 121.664 C 216.964 121.699,215.940 121.784,216.600 121.853 M78.590 150.200 C 78.589 165.820,78.639 172.268,78.700 164.529 C 78.761 156.791,78.761 144.011,78.700 136.129 C 78.639 128.248,78.590 134.580,78.590 150.200 M321.790 150.200 C 321.789 165.820,321.839 172.268,321.900 164.529 C 321.961 156.791,321.961 144.011,321.900 136.129 C 321.839 128.248,321.790 134.580,321.790 150.200 M171.769 128.135 C 171.656 128.430,171.619 130.095,171.686 131.835 L 171.808 135.000 172.004 131.299 C 172.199 127.618,172.162 127.113,171.769 128.135 M228.397 131.318 L 228.594 135.000 228.714 131.637 C 228.780 129.788,228.692 128.131,228.517 127.955 C 228.343 127.780,228.289 129.293,228.397 131.318 M165.467 140.667 C 165.097 141.036,165.129 159.509,165.500 159.738 C 165.665 159.840,165.800 155.531,165.800 150.162 C 165.800 144.793,165.785 140.400,165.767 140.400 C 165.748 140.400,165.613 140.520,165.467 140.667 M234.600 150.200 C 234.600 155.548,234.735 159.840,234.900 159.738 C 235.065 159.636,235.200 155.344,235.200 150.200 C 235.200 145.056,235.065 140.764,234.900 140.662 C 234.735 140.560,234.600 144.852,234.600 150.200 M171.664 168.876 C 171.629 170.788,171.735 172.437,171.900 172.539 C 172.065 172.642,172.150 171.618,172.089 170.263 C 171.889 165.852,171.729 165.330,171.664 168.876 M228.397 169.082 C 228.289 171.107,228.343 172.620,228.517 172.445 C 228.692 172.269,228.780 170.612,228.714 168.763 L 228.594 165.400 228.397 169.082 M177.955 178.517 C 178.131 178.692,179.788 178.780,181.637 178.714 L 185.000 178.594 181.318 178.397 C 179.293 178.289,177.780 178.343,177.955 178.517 M219.000 178.400 L 215.400 178.649 218.876 178.724 C 220.849 178.767,222.460 178.627,222.600 178.400 C 222.736 178.180,222.792 178.034,222.724 178.076 C 222.656 178.117,220.980 178.263,219.000 178.400 M84.799 193.919 L 84.999 203.800 85.107 194.227 C 85.166 188.962,85.076 184.516,84.907 184.347 C 84.738 184.177,84.690 188.485,84.799 193.919 M315.380 184.508 C 315.273 184.788,315.234 189.243,315.293 194.408 L 315.401 203.800 315.601 193.900 C 315.796 184.213,315.778 183.470,315.380 184.508 M190.662 184.900 C 190.764 185.065,195.056 185.200,200.200 185.200 C 205.344 185.200,209.636 185.065,209.738 184.900 C 209.840 184.735,205.548 184.600,200.200 184.600 C 194.852 184.600,190.560 184.735,190.662 184.900 M91.197 212.518 L 91.394 216.200 91.514 212.837 C 91.580 210.988,91.492 209.331,91.317 209.155 C 91.143 208.980,91.089 210.493,91.197 212.518 M308.969 209.335 C 308.856 209.630,308.819 211.295,308.886 213.035 L 309.008 216.200 309.204 212.499 C 309.399 208.818,309.362 208.313,308.969 209.335 M97.197 225.118 L 97.393 228.600 97.515 225.438 C 97.581 223.699,97.493 222.132,97.318 221.956 C 97.143 221.780,97.088 223.203,97.197 225.118 M302.969 222.137 C 302.855 222.433,302.818 224.008,302.886 225.637 L 303.009 228.600 303.204 225.099 C 303.399 221.611,303.360 221.117,302.969 222.137 M103.597 237.718 L 103.794 241.400 103.914 238.037 C 103.980 236.188,103.892 234.531,103.717 234.355 C 103.543 234.180,103.489 235.693,103.597 237.718 M296.569 234.535 C 296.456 234.830,296.419 236.495,296.486 238.235 L 296.608 241.400 296.804 237.699 C 296.999 234.018,296.962 233.513,296.569 234.535 M109.597 250.118 L 109.794 253.800 109.914 250.437 C 109.980 248.588,109.892 246.931,109.717 246.755 C 109.543 246.580,109.489 248.093,109.597 250.118 M290.569 246.935 C 290.456 247.230,290.419 248.895,290.486 250.635 L 290.608 253.800 290.804 250.099 C 290.999 246.418,290.962 245.913,290.569 246.935 M115.997 262.518 L 116.194 266.200 116.314 262.837 C 116.380 260.988,116.292 259.331,116.117 259.155 C 115.943 258.980,115.889 260.493,115.997 262.518 M284.169 259.335 C 284.056 259.630,284.019 261.295,284.086 263.035 L 284.208 266.200 284.404 262.499 C 284.599 258.818,284.562 258.313,284.169 259.335 M128.397 281.318 L 128.594 285.000 128.714 281.637 C 128.780 279.788,128.692 278.131,128.517 277.955 C 128.343 277.780,128.289 279.293,128.397 281.318 M271.769 278.135 C 271.656 278.430,271.619 280.095,271.686 281.835 L 271.808 285.000 272.004 281.299 C 272.199 277.618,272.162 277.113,271.769 278.135 M141.197 300.118 L 141.394 303.800 141.514 300.437 C 141.580 298.588,141.492 296.931,141.317 296.755 C 141.143 296.580,141.089 298.093,141.197 300.118 M258.969 296.935 C 258.856 297.230,258.819 298.895,258.886 300.635 L 259.008 303.800 259.204 300.099 C 259.399 296.418,259.362 295.913,258.969 296.935 M153.597 318.918 L 153.794 322.600 153.914 319.237 C 153.980 317.388,153.892 315.731,153.717 315.555 C 153.543 315.380,153.489 316.893,153.597 318.918 M246.569 315.735 C 246.456 316.030,246.419 317.695,246.486 319.435 L 246.608 322.600 246.804 318.899 C 246.999 315.218,246.962 314.713,246.569 315.735 M172.397 343.918 L 172.593 347.400 172.715 344.238 C 172.781 342.499,172.693 340.932,172.518 340.756 C 172.343 340.580,172.288 342.003,172.397 343.918 M227.769 340.937 C 227.655 341.233,227.618 342.808,227.686 344.437 L 227.809 347.400 228.004 343.899 C 228.199 340.411,228.160 339.917,227.769 340.937 M198.512 371.895 C 199.564 371.977,201.184 371.976,202.112 371.892 C 203.040 371.808,202.180 371.741,200.200 371.742 C 198.220 371.743,197.460 371.812,198.512 371.895 " stroke="none" fill="#c6c600" fill-rule="evenodd"></path><path id="path2" d="" stroke="none" fill="#b1d800" fill-rule="evenodd"></path><path id="path3" d="" stroke="none" fill="#99ff00" fill-rule="evenodd"></path><path id="path4" d="" stroke="none" fill="#ffff00" fill-rule="evenodd"></path></g></svg>