<svg id="svg" version="1.1" width="400" height="400" xmlns="http://www.w3.org/2000/svg" xmlns:xlink="http://www.w3.org/1999/xlink" style="display: block;"><g id="svgg"><path id="path1" d="M126.467 28.700 C 166.875 28.756,233.115 28.756,273.667 28.700 C 314.220 28.644,281.160 28.598,200.200 28.598 C 119.240 28.598,86.060 28.644,126.467 28.700 M44.000 34.800 L 40.600 35.051 43.876 35.125 C 45.714 35.167,47.261 35.024,47.400 34.800 C 47.536 34.580,47.592 34.434,47.524 34.475 C 47.456 34.516,45.870 34.662,44.000 34.800 M353.156 34.918 C 353.332 35.093,354.899 35.181,356.638 35.115 L 359.800 34.993 356.318 34.797 C 354.403 34.688,352.980 34.743,353.156 34.918 M34.797 44.082 C 34.688 45.997,34.743 47.420,34.918 47.244 C 35.093 47.068,35.181 45.501,35.115 43.762 L 34.993 40.600 34.797 44.082 M365.260 43.876 C 365.227 45.678,365.335 47.237,365.500 47.339 C 365.665 47.442,365.750 46.418,365.688 45.063 C 365.500 40.922,365.323 40.431,365.260 43.876 M28.598 209.600 C 28.598 295.730,28.644 330.965,28.700 287.900 C 28.756 244.835,28.756 174.365,28.700 131.300 C 28.644 88.235,28.598 123.470,28.598 209.600 M371.797 169.000 C 371.797 232.800,371.844 258.840,371.900 226.868 C 371.956 194.895,371.956 142.695,371.900 110.868 C 371.844 79.040,371.797 105.200,371.797 169.000 M102.982 103.303 C 102.875 103.581,102.836 109.386,102.894 116.204 L 103.000 128.600 200.200 128.600 L 297.400 128.600 297.400 115.800 L 297.400 103.000 200.288 102.899 C 122.409 102.818,103.137 102.898,102.982 103.303 M297.200 115.800 L 297.200 128.400 200.200 128.400 L 103.200 128.400 103.200 115.800 L 103.200 103.200 200.200 103.200 L 297.200 103.200 297.200 115.800 M102.982 153.303 C 102.875 153.581,102.836 159.386,102.894 166.204 L 103.000 178.600 200.200 178.600 L 297.400 178.600 297.400 165.800 L 297.400 153.000 200.288 152.899 C 122.409 152.818,103.137 152.898,102.982 153.303 M297.200 165.800 L 297.200 178.400 200.200 178.400 L 103.200 178.400 103.200 165.800 L 103.200 153.200 200.200 153.200 L 297.200 153.200 297.200 165.800 M102.982 203.303 C 102.875 203.581,102.836 209.386,102.894 216.204 L 103.000 228.600 200.200 228.600 L 297.400 228.600 297.400 215.800 L 297.400 203.000 200.288 202.899 C 122.409 202.818,103.137 202.898,102.982 203.303 M297.200 215.800 L 297.200 228.400 200.200 228.400 L 103.200 228.400 103.200 215.800 L 103.200 203.200 200.200 203.200 L 297.200 203.200 297.200 215.800 M103.062 303.100 C 102.894 303.371,186.822 303.370,308.400 303.098 C 333.370 303.042,297.426 302.952,228.524 302.898 C 159.622 302.844,103.164 302.935,103.062 303.100 " stroke="none" fill="#c6c600" fill-rule="evenodd"></path><path id="path2" d="" stroke="none" fill="#b1d800" fill-rule="evenodd"></path><path id="path3" d="" stroke="none" fill="#99ff00" fill-rule="evenodd"></path><path id="path4" d="" stroke="none" fill="#ffff00" fill-rule="evenodd"></path><path id="path0" d="M48.806 29.100 C 48.802 29.763,48.563 30.002,47.900 30.006 C 47.405 30.009,47.180 30.144,47.400 30.306 C 47.943 30.705,48.092 31.600,47.616 31.600 C 47.404 31.600,47.269 32.365,47.314 33.300 L 47.398 35.000 42.699 34.958 C 40.114 34.935,38.000 35.070,38.000 35.258 C 38.000 35.701,37.087 35.519,36.706 35.000 C 36.544 34.780,36.409 35.005,36.406 35.500 C 36.402 36.163,36.163 36.402,35.500 36.406 C 35.005 36.409,34.780 36.544,35.000 36.706 C 35.519 37.087,35.701 38.000,35.258 38.000 C 35.070 38.000,34.935 40.114,34.958 42.699 L 35.000 47.398 33.300 47.314 C 32.365 47.269,31.600 47.404,31.600 47.616 C 31.600 48.092,30.705 47.943,30.306 47.400 C 30.144 47.180,30.009 47.405,30.006 47.900 C 30.002 48.563,29.763 48.802,29.100 48.806 C 28.605 48.809,28.380 48.944,28.600 49.106 C 29.094 49.469,29.310 50.400,28.900 50.400 C 28.735 50.400,28.600 122.040,28.600 209.600 C 28.600 297.160,28.735 368.800,28.900 368.800 C 29.310 368.800,29.094 369.731,28.600 370.094 C 28.380 370.256,28.605 370.391,29.100 370.394 C 29.763 370.398,30.002 370.637,30.006 371.300 C 30.009 371.795,30.144 372.020,30.306 371.800 C 30.689 371.279,31.600 371.100,31.600 371.545 C 31.600 371.735,32.950 371.891,34.600 371.891 C 36.250 371.891,37.600 371.735,37.600 371.545 C 37.600 371.100,38.511 371.279,38.894 371.800 C 39.056 372.020,39.191 371.795,39.194 371.300 C 39.198 370.637,39.437 370.398,40.100 370.394 C 40.595 370.391,40.820 370.256,40.600 370.094 C 40.057 369.695,39.908 368.800,40.384 368.800 C 40.596 368.800,40.731 368.035,40.684 367.100 L 40.600 365.400 42.100 365.491 C 42.925 365.541,43.600 365.406,43.600 365.191 C 43.600 364.710,44.493 364.854,44.894 365.400 C 45.056 365.620,45.191 365.395,45.194 364.900 C 45.198 364.237,45.437 363.998,46.100 363.994 C 46.595 363.991,46.820 363.856,46.600 363.694 C 46.057 363.295,45.908 362.400,46.384 362.400 C 46.596 362.400,46.731 361.635,46.684 360.700 L 46.600 359.000 48.300 359.084 C 49.235 359.131,50.000 358.996,50.000 358.784 C 50.000 358.308,50.895 358.457,51.294 359.000 C 51.460 359.226,51.590 359.095,51.594 358.700 C 51.598 358.244,51.914 357.998,52.500 357.994 C 52.995 357.991,53.220 357.856,53.000 357.694 C 52.457 357.295,52.308 356.400,52.784 356.400 C 52.996 356.400,53.131 355.635,53.084 354.700 L 53.000 353.000 54.700 353.084 C 55.635 353.131,56.400 352.996,56.400 352.784 C 56.400 352.308,57.295 352.457,57.694 353.000 C 57.856 353.220,57.991 352.995,57.994 352.500 C 57.998 351.914,58.244 351.598,58.700 351.594 C 59.095 351.590,59.226 351.460,59.000 351.294 C 58.457 350.895,58.308 350.000,58.784 350.000 C 58.996 350.000,59.131 349.235,59.084 348.300 L 59.000 346.600 60.700 346.684 C 61.635 346.731,62.400 346.596,62.400 346.384 C 62.400 345.908,63.295 346.057,63.694 346.600 C 63.856 346.820,63.991 346.595,63.994 346.100 C 63.998 345.437,64.237 345.198,64.900 345.194 C 65.395 345.191,65.620 345.056,65.400 344.894 C 64.854 344.493,64.710 343.600,65.191 343.600 C 65.406 343.600,65.541 342.925,65.491 342.100 L 65.400 340.600 67.100 340.684 C 68.035 340.731,68.800 340.596,68.800 340.384 C 68.800 339.908,69.695 340.057,70.094 340.600 C 70.256 340.820,70.391 340.595,70.394 340.100 C 70.398 339.437,70.637 339.198,71.300 339.194 C 71.795 339.191,72.020 339.056,71.800 338.894 C 71.257 338.495,71.108 337.600,71.584 337.600 C 71.796 337.600,71.931 336.835,71.884 335.900 L 71.800 334.200 73.486 334.284 C 74.414 334.330,75.292 334.176,75.436 333.941 C 75.612 333.657,75.814 333.695,76.044 334.057 C 76.295 334.454,76.389 334.357,76.394 333.700 C 76.398 333.037,76.637 332.798,77.300 332.794 C 77.795 332.791,78.020 332.656,77.800 332.494 C 77.257 332.095,77.108 331.200,77.584 331.200 C 77.796 331.200,77.931 330.435,77.884 329.500 L 77.800 327.800 79.500 327.884 C 80.435 327.931,81.200 327.796,81.200 327.584 C 81.200 327.108,82.095 327.257,82.494 327.800 C 82.656 328.020,82.791 327.795,82.794 327.300 C 82.798 326.637,83.037 326.398,83.700 326.394 C 84.195 326.391,84.420 326.256,84.200 326.094 C 83.667 325.702,83.505 324.800,83.968 324.800 C 84.170 324.800,84.305 324.125,84.268 323.300 L 84.201 321.800 85.900 321.884 C 86.835 321.931,87.600 321.796,87.600 321.584 C 87.600 321.108,88.495 321.257,88.894 321.800 C 89.056 322.020,89.191 321.795,89.194 321.300 C 89.198 320.637,89.437 320.398,90.100 320.394 C 90.595 320.391,90.820 320.256,90.600 320.094 C 90.057 319.695,89.908 318.800,90.384 318.800 C 90.596 318.800,90.731 318.035,90.684 317.100 L 90.600 315.400 92.100 315.491 C 92.925 315.541,93.600 315.406,93.600 315.191 C 93.600 314.710,94.493 314.854,94.894 315.400 C 95.056 315.620,95.191 315.395,95.194 314.900 C 95.198 314.237,95.437 313.998,96.100 313.994 C 96.595 313.991,96.820 313.856,96.600 313.694 C 96.057 313.295,95.908 312.400,96.384 312.400 C 96.596 312.400,96.731 311.635,96.684 310.700 L 96.600 309.000 98.300 309.084 C 99.235 309.131,100.000 308.996,100.000 308.784 C 100.000 308.308,100.895 308.457,101.294 309.000 C 101.460 309.226,101.590 309.095,101.594 308.700 C 101.598 308.244,101.914 307.998,102.500 307.994 C 102.995 307.991,103.220 307.856,103.000 307.694 C 102.457 307.295,102.308 306.400,102.784 306.400 C 102.996 306.400,103.131 305.635,103.084 304.700 L 103.000 303.000 229.700 303.000 C 299.385 303.000,356.400 302.865,356.400 302.700 C 356.400 302.290,357.331 302.506,357.694 303.000 C 357.856 303.220,357.991 302.995,357.994 302.500 C 357.998 301.914,358.244 301.598,358.700 301.594 C 359.095 301.590,359.226 301.460,359.000 301.294 C 358.457 300.895,358.308 300.000,358.784 300.000 C 358.996 300.000,359.131 299.235,359.084 298.300 L 359.000 296.600 360.700 296.684 C 361.635 296.731,362.400 296.596,362.400 296.384 C 362.400 295.908,363.295 296.057,363.694 296.600 C 363.856 296.820,363.991 296.595,363.994 296.100 C 363.998 295.437,364.237 295.198,364.900 295.194 C 365.395 295.191,365.620 295.056,365.400 294.894 C 364.854 294.493,364.710 293.600,365.191 293.600 C 365.406 293.600,365.541 292.925,365.491 292.100 L 365.400 290.600 367.100 290.684 C 368.035 290.731,368.800 290.596,368.800 290.384 C 368.800 289.908,369.695 290.057,370.094 290.600 C 370.256 290.820,370.391 290.595,370.394 290.100 C 370.398 289.437,370.637 289.198,371.300 289.194 C 371.795 289.191,372.020 289.056,371.800 288.894 C 371.306 288.531,371.090 287.600,371.500 287.600 C 371.665 287.600,371.800 234.230,371.800 169.000 C 371.800 103.770,371.665 50.400,371.500 50.400 C 371.090 50.400,371.306 49.469,371.800 49.106 C 372.020 48.944,371.795 48.809,371.300 48.806 C 370.637 48.802,370.398 48.563,370.394 47.900 C 370.391 47.405,370.256 47.180,370.094 47.400 C 369.695 47.943,368.800 48.092,368.800 47.616 C 368.800 47.404,368.035 47.269,367.100 47.314 L 365.400 47.398 365.442 42.699 C 365.465 40.114,365.330 38.000,365.142 38.000 C 364.699 38.000,364.881 37.087,365.400 36.706 C 365.620 36.544,365.395 36.409,364.900 36.406 C 364.237 36.402,363.998 36.163,363.994 35.500 C 363.991 35.005,363.856 34.780,363.694 35.000 C 363.313 35.519,362.400 35.701,362.400 35.258 C 362.400 35.070,360.286 34.935,357.701 34.958 L 353.002 35.000 353.086 33.300 C 353.131 32.365,352.996 31.600,352.784 31.600 C 352.308 31.600,352.457 30.705,353.000 30.306 C 353.220 30.144,352.995 30.009,352.500 30.006 C 351.837 30.002,351.598 29.763,351.594 29.100 C 351.591 28.605,351.456 28.380,351.294 28.600 C 350.931 29.094,350.000 29.310,350.000 28.900 C 350.000 28.735,282.590 28.600,200.200 28.600 C 117.810 28.600,50.400 28.735,50.400 28.900 C 50.400 29.310,49.469 29.094,49.106 28.600 C 48.944 28.380,48.809 28.605,48.806 29.100 M297.400 115.800 L 297.400 128.600 200.200 128.600 L 103.000 128.600 102.894 116.204 C 102.836 109.386,102.875 103.581,102.982 103.303 C 103.137 102.898,122.409 102.818,200.288 102.899 L 297.400 103.000 297.400 115.800 M297.400 165.800 L 297.400 178.600 200.200 178.600 L 103.000 178.600 102.894 166.204 C 102.836 159.386,102.875 153.581,102.982 153.303 C 103.137 152.898,122.409 152.818,200.288 152.899 L 297.400 153.000 297.400 165.800 M297.400 215.800 L 297.400 228.600 200.200 228.600 L 103.000 228.600 102.894 216.204 C 102.836 209.386,102.875 203.581,102.982 203.303 C 103.137 202.898,122.409 202.818,200.288 202.899 L 297.400 203.000 297.400 215.800 " stroke="none" fill="#b3c100" fill-rule="evenodd"></path><path id="path1" d="M126.467 28.700 C 166.875 28.756,233.115 28.756,273.667 28.700 C 314.220 28.644,281.160 28.598,200.200 28.598 C 119.240 28.598,86.060 28.644,126.467 28.700 M44.000 34.800 L 40.600 35.051 43.876 35.125 C 45.714 35.167,47.261 35.024,47.400 34.800 C 47.536 34.580,47.592 34.434,47.524 34.475 C 47.456 34.516,45.870 34.662,44.000 34.800 M353.156 34.918 C 353.332 35.093,354.899 35.181,356.638 35.115 L 359.800 34.993 356.318 34.797 C 354.403 34.688,352.980 34.743,353.156 34.918 M34.797 44.082 C 34.688 45.997,34.743 47.420,34.918 47.244 C 35.093 47.068,35.181 45.501,35.115 43.762 L 34.993 40.600 34.797 44.082 M365.260 43.876 C 365.227 45.678,365.335 47.237,365.500 47.339 C 365.665 47.442,365.750 46.418,365.688 45.063 C 365.500 40.922,365.323 40.431,365.260 43.876 M28.598 209.600 C 28.598 295.730,28.644 330.965,28.700 287.900 C 28.756 244.835,28.756 174.365,28.700 131.300 C 28.644 88.235,28.598 123.470,28.598 209.600 M371.797 169.000 C 371.797 232.800,371.844 258.840,371.900 226.868 C 371.956 194.895,371.956 142.695,371.900 110.868 C 371.844 79.040,371.797 105.200,371.797 169.000 M102.982 103.303 C 102.875 103.581,102.836 109.386,102.894 116.204 L 103.000 128.600 200.200 128.600 L 297.400 128.600 297.400 115.800 L 297.400 103.000 200.288 102.899 C 122.409 102.818,103.137 102.898,102.982 103.303 M297.200 115.800 L 297.200 128.400 200.200 128.400 L 103.200 128.400 103.200 115.800 L 103.200 103.200 200.200 103.200 L 297.200 103.200 297.200 115.800 M102.982 153.303 C 102.875 153.581,102.836 159.386,102.894 166.204 L 103.000 178.600 200.200 178.600 L 297.400 178.600 297.400 165.800 L 297.400 153.000 200.288 152.899 C 122.409 152.818,103.137 152.898,102.982 153.303 M297.200 165.800 L 297.200 178.400 200.200 178.400 L 103.200 178.400 103.200 165.800 L 103.200 153.200 200.200 153.200 L 297.200 153.200 297.200 165.800 M102.982 203.303 C 102.875 203.581,102.836 209.386,102.894 216.204 L 103.000 228.600 200.200 228.600 L 297.400 228.600 297.400 215.800 L 297.400 203.000 200.288 202.899 C 122.409 202.818,103.137 202.898,102.982 203.303 M297.200 215.800 L 297.200 228.400 200.200 228.400 L 103.200 228.400 103.200 215.800 L 103.200 203.200 200.200 203.200 L 297.200 203.200 297.200 215.800 M103.062 303.100 C 102.894 303.371,186.822 303.370,308.400 303.098 C 333.370 303.042,297.426 302.952,228.524 302.898 C 159.622 302.844,103.164 302.935,103.062 303.100 " stroke="none" fill="#c6c600" fill-rule="evenodd"></path><path id="path2" d="" stroke="none" fill="#b1d800" fill-rule="evenodd"></path><path id="path3" d="" stroke="none" fill="#99ff00" fill-rule="evenodd"></path><path id="path4" d="" stroke="none" fill="#ffff00" fill-rule="evenodd"></path></g></svg>