<svg id="svg" version="1.1" width="400" height="400" xmlns="http://www.w3.org/2000/svg" xmlns:xlink="http://www.w3.org/1999/xlink" style="display: block;"><g id="svgg"><path id="path0" d="M48.806 47.900 C 48.802 48.563,48.563 48.802,47.900 48.806 C 47.405 48.809,47.180 48.944,47.400 49.106 C 47.894 49.469,48.110 50.400,47.700 50.400 C 47.535 50.400,47.400 67.140,47.400 87.600 C 47.400 108.060,47.535 124.800,47.700 124.800 C 48.110 124.800,47.894 125.731,47.400 126.094 C 47.180 126.256,47.405 126.391,47.900 126.394 C 48.563 126.398,48.802 126.637,48.806 127.300 C 48.809 127.795,48.944 128.020,49.106 127.800 C 49.505 127.257,50.400 127.108,50.400 127.584 C 50.400 127.796,51.165 127.931,52.100 127.884 L 53.800 127.800 53.800 138.900 C 53.800 145.005,53.935 150.000,54.100 150.000 C 54.510 150.000,54.294 150.931,53.800 151.294 C 53.580 151.456,53.805 151.591,54.300 151.594 C 54.963 151.598,55.202 151.837,55.206 152.500 C 55.209 152.995,55.344 153.220,55.506 153.000 C 55.907 152.454,56.800 152.310,56.800 152.791 C 56.800 153.006,57.475 153.141,58.300 153.091 L 59.800 153.000 59.798 160.900 C 59.796 165.245,59.931 168.800,60.098 168.800 C 60.509 168.800,60.295 169.730,59.800 170.094 C 59.580 170.256,59.805 170.391,60.300 170.394 C 60.963 170.398,61.202 170.637,61.206 171.300 C 61.209 171.795,61.344 172.020,61.506 171.800 C 61.905 171.257,62.800 171.108,62.800 171.584 C 62.800 171.796,63.565 171.931,64.500 171.884 L 66.200 171.800 66.198 179.700 C 66.196 184.045,66.331 187.600,66.498 187.600 C 66.909 187.600,66.695 188.530,66.200 188.894 C 65.980 189.056,66.205 189.191,66.700 189.194 C 67.363 189.198,67.602 189.437,67.606 190.100 C 67.609 190.595,67.744 190.820,67.906 190.600 C 68.305 190.057,69.200 189.908,69.200 190.384 C 69.200 190.596,69.965 190.731,70.900 190.686 L 72.600 190.602 72.558 195.301 C 72.535 197.886,72.670 200.000,72.858 200.000 C 73.301 200.000,73.119 200.913,72.600 201.294 C 72.380 201.456,72.605 201.591,73.100 201.594 C 73.763 201.598,74.002 201.837,74.006 202.500 C 74.011 203.157,74.105 203.254,74.356 202.857 C 74.586 202.495,74.788 202.457,74.964 202.741 C 75.108 202.976,75.986 203.130,76.914 203.085 L 78.600 203.002 78.558 207.701 C 78.535 210.286,78.670 212.400,78.858 212.400 C 79.301 212.400,79.119 213.313,78.600 213.694 C 78.380 213.856,78.605 213.991,79.100 213.994 C 79.763 213.998,80.002 214.237,80.006 214.900 C 80.009 215.395,80.144 215.620,80.306 215.400 C 80.705 214.857,81.600 214.708,81.600 215.184 C 81.600 215.396,82.365 215.531,83.300 215.484 L 85.000 215.400 84.916 217.100 C 84.869 218.035,85.004 218.800,85.216 218.800 C 85.692 218.800,85.543 219.695,85.000 220.094 C 84.780 220.256,85.005 220.391,85.500 220.394 C 86.163 220.398,86.402 220.637,86.406 221.300 C 86.409 221.795,86.544 222.020,86.706 221.800 C 87.105 221.257,88.000 221.108,88.000 221.584 C 88.000 221.796,88.765 221.931,89.700 221.884 L 91.400 221.800 91.376 227.300 C 91.358 231.577,91.469 232.800,91.876 232.800 C 92.164 232.800,92.403 233.205,92.406 233.700 C 92.409 234.195,92.544 234.420,92.706 234.200 C 93.105 233.657,94.000 233.508,94.000 233.984 C 94.000 234.196,94.765 234.331,95.700 234.284 L 97.400 234.200 97.316 235.900 C 97.269 236.835,97.404 237.600,97.616 237.600 C 98.092 237.600,97.943 238.495,97.400 238.894 C 97.180 239.056,97.405 239.191,97.900 239.194 C 98.563 239.198,98.802 239.437,98.806 240.100 C 98.809 240.595,98.944 240.820,99.106 240.600 C 99.505 240.057,100.400 239.908,100.400 240.384 C 100.400 240.596,101.165 240.731,102.100 240.684 L 103.800 240.600 103.709 242.100 C 103.659 242.925,103.794 243.600,104.009 243.600 C 104.490 243.600,104.346 244.493,103.800 244.894 C 103.580 245.056,103.805 245.191,104.300 245.194 C 104.963 245.198,105.202 245.437,105.206 246.100 C 105.209 246.595,105.344 246.820,105.506 246.600 C 105.907 246.054,106.800 245.910,106.800 246.391 C 106.800 246.606,107.475 246.741,108.300 246.691 L 109.800 246.600 109.761 251.500 C 109.740 254.195,109.875 256.400,110.061 256.400 C 110.501 256.400,110.317 257.314,109.800 257.694 C 109.580 257.856,109.805 257.991,110.300 257.994 C 110.886 257.998,111.202 258.244,111.206 258.700 C 111.210 259.095,111.340 259.226,111.506 259.000 C 111.905 258.457,112.800 258.308,112.800 258.784 C 112.800 258.996,113.565 259.131,114.500 259.084 L 116.200 259.000 116.116 260.700 C 116.069 261.635,116.204 262.400,116.416 262.400 C 116.892 262.400,116.743 263.295,116.200 263.694 C 115.980 263.856,116.205 263.991,116.700 263.994 C 117.363 263.998,117.602 264.237,117.606 264.900 C 117.609 265.395,117.744 265.620,117.906 265.400 C 118.305 264.857,119.200 264.708,119.200 265.184 C 119.200 265.396,119.965 265.531,120.900 265.484 L 122.600 265.400 122.516 267.100 C 122.469 268.035,122.604 268.800,122.816 268.800 C 123.292 268.800,123.143 269.695,122.600 270.094 C 122.380 270.256,122.605 270.391,123.100 270.394 C 123.763 270.398,124.002 270.637,124.006 271.300 C 124.011 271.957,124.105 272.054,124.356 271.657 C 124.586 271.295,124.788 271.257,124.964 271.541 C 125.108 271.776,125.986 271.930,126.913 271.884 L 128.599 271.800 128.532 273.300 C 128.495 274.125,128.630 274.800,128.832 274.800 C 129.295 274.800,129.133 275.702,128.600 276.094 C 128.380 276.256,128.605 276.391,129.100 276.394 C 129.763 276.398,130.002 276.637,130.006 277.300 C 130.009 277.795,130.144 278.020,130.306 277.800 C 130.705 277.257,131.600 277.108,131.600 277.584 C 131.600 277.796,132.365 277.931,133.300 277.884 L 135.000 277.800 134.916 279.500 C 134.869 280.435,135.004 281.200,135.216 281.200 C 135.692 281.200,135.543 282.095,135.000 282.494 C 134.780 282.656,135.005 282.791,135.500 282.794 C 136.163 282.798,136.402 283.037,136.406 283.700 C 136.409 284.195,136.544 284.420,136.706 284.200 C 137.105 283.657,138.000 283.508,138.000 283.984 C 138.000 284.196,138.752 284.331,139.671 284.284 L 141.341 284.200 141.369 286.700 C 141.388 288.424,141.552 289.200,141.898 289.200 C 142.174 289.200,142.403 289.605,142.406 290.100 C 142.409 290.595,142.544 290.820,142.706 290.600 C 143.086 290.083,144.000 289.899,144.000 290.339 C 144.000 290.525,146.205 290.660,148.900 290.639 L 153.800 290.600 153.709 292.100 C 153.659 292.925,153.794 293.600,154.009 293.600 C 154.490 293.600,154.346 294.493,153.800 294.894 C 153.580 295.056,153.805 295.191,154.300 295.194 C 154.963 295.198,155.202 295.437,155.206 296.100 C 155.209 296.595,155.344 296.820,155.506 296.600 C 155.907 296.054,156.800 295.910,156.800 296.391 C 156.800 296.606,157.475 296.741,158.300 296.691 L 159.800 296.600 159.716 298.300 C 159.669 299.235,159.804 300.000,160.016 300.000 C 160.492 300.000,160.343 300.895,159.800 301.294 C 159.580 301.456,159.805 301.591,160.300 301.594 C 160.963 301.598,161.202 301.837,161.206 302.500 C 161.209 302.995,161.344 303.220,161.506 303.000 C 161.905 302.457,162.800 302.308,162.800 302.784 C 162.800 302.996,163.565 303.131,164.500 303.084 L 166.200 303.000 166.116 304.700 C 166.069 305.635,166.204 306.400,166.416 306.400 C 166.892 306.400,166.743 307.295,166.200 307.694 C 165.980 307.856,166.205 307.991,166.700 307.994 C 167.286 307.998,167.602 308.244,167.606 308.700 C 167.610 309.095,167.740 309.226,167.906 309.000 C 168.287 308.481,169.200 308.299,169.200 308.742 C 169.200 308.930,171.314 309.065,173.899 309.042 L 178.598 309.000 178.514 310.700 C 178.469 311.635,178.604 312.400,178.816 312.400 C 179.292 312.400,179.143 313.295,178.600 313.694 C 178.380 313.856,178.605 313.991,179.100 313.994 C 179.763 313.998,180.002 314.237,180.006 314.900 C 180.009 315.395,180.144 315.620,180.306 315.400 C 180.705 314.857,181.600 314.708,181.600 315.184 C 181.600 315.396,182.365 315.531,183.300 315.484 L 185.000 315.400 184.916 317.100 C 184.869 318.035,185.004 318.800,185.216 318.800 C 185.692 318.800,185.543 319.695,185.000 320.094 C 184.780 320.256,185.005 320.391,185.500 320.394 C 186.163 320.398,186.402 320.637,186.406 321.300 C 186.409 321.795,186.544 322.020,186.706 321.800 C 187.087 321.281,188.000 321.099,188.000 321.542 C 188.000 321.730,190.113 321.865,192.696 321.842 L 197.391 321.800 197.328 323.300 C 197.293 324.125,197.430 324.800,197.632 324.800 C 198.095 324.800,197.933 325.702,197.400 326.094 C 197.180 326.256,197.405 326.391,197.900 326.394 C 198.563 326.398,198.802 326.637,198.806 327.300 C 198.809 327.795,198.944 328.020,199.106 327.800 C 199.487 327.281,200.400 327.099,200.400 327.542 C 200.400 327.730,202.514 327.865,205.099 327.842 L 209.798 327.800 209.714 329.500 C 209.669 330.435,209.804 331.200,210.016 331.200 C 210.492 331.200,210.343 332.095,209.800 332.494 C 209.580 332.656,209.805 332.791,210.300 332.794 C 210.963 332.798,211.202 333.037,211.206 333.700 C 211.209 334.195,211.344 334.420,211.506 334.200 C 211.870 333.705,212.800 333.491,212.800 333.902 C 212.800 334.069,216.355 334.204,220.700 334.202 L 228.600 334.200 228.516 335.900 C 228.469 336.835,228.604 337.600,228.816 337.600 C 229.292 337.600,229.143 338.495,228.600 338.894 C 228.380 339.056,228.605 339.191,229.100 339.194 C 229.763 339.198,230.002 339.437,230.006 340.100 C 230.009 340.595,230.144 340.820,230.306 340.600 C 230.670 340.105,231.600 339.891,231.600 340.302 C 231.600 340.469,235.155 340.604,239.500 340.602 L 247.400 340.600 247.309 342.100 C 247.259 342.925,247.394 343.600,247.609 343.600 C 248.090 343.600,247.946 344.493,247.400 344.894 C 247.180 345.056,247.405 345.191,247.900 345.194 C 248.563 345.198,248.802 345.437,248.806 346.100 C 248.809 346.595,248.944 346.820,249.106 346.600 C 249.469 346.106,250.400 345.890,250.400 346.300 C 250.400 346.465,255.395 346.600,261.500 346.600 L 272.600 346.600 272.516 348.300 C 272.469 349.235,272.604 350.000,272.816 350.000 C 273.292 350.000,273.143 350.895,272.600 351.294 C 272.380 351.456,272.605 351.591,273.100 351.594 C 273.755 351.598,274.009 351.845,274.032 352.500 C 274.049 352.995,274.154 353.174,274.266 352.898 C 274.377 352.621,274.628 352.493,274.822 352.614 C 275.371 352.953,350.000 353.039,350.000 352.700 C 350.000 352.290,350.931 352.506,351.294 353.000 C 351.456 353.220,351.591 352.995,351.594 352.500 C 351.598 351.837,351.837 351.598,352.500 351.594 C 352.995 351.591,353.220 351.456,353.000 351.294 C 352.506 350.931,352.290 350.000,352.700 350.000 C 352.865 350.000,353.000 330.380,353.000 306.400 C 353.000 282.420,352.865 262.800,352.700 262.800 C 352.290 262.800,352.506 261.869,353.000 261.506 C 353.220 261.344,352.995 261.209,352.500 261.206 C 351.837 261.202,351.598 260.963,351.594 260.300 C 351.591 259.805,351.456 259.580,351.294 259.800 C 350.895 260.343,350.000 260.492,350.000 260.016 C 350.000 259.804,349.235 259.669,348.300 259.716 L 346.600 259.800 346.691 258.300 C 346.741 257.475,346.606 256.800,346.391 256.800 C 345.910 256.800,346.054 255.907,346.600 255.506 C 346.820 255.344,346.595 255.209,346.100 255.206 C 345.437 255.202,345.198 254.963,345.194 254.300 C 345.191 253.805,345.056 253.580,344.894 253.800 C 344.531 254.294,343.600 254.510,343.600 254.100 C 343.600 253.935,335.815 253.800,326.300 253.800 L 309.000 253.800 309.084 252.100 C 309.131 251.165,308.996 250.400,308.784 250.400 C 308.308 250.400,308.457 249.505,309.000 249.106 C 309.226 248.940,309.095 248.810,308.700 248.806 C 308.244 248.802,307.998 248.486,307.994 247.900 C 307.991 247.405,307.856 247.180,307.694 247.400 C 307.331 247.894,306.400 248.110,306.400 247.700 C 306.400 247.535,301.405 247.400,295.300 247.400 L 284.200 247.400 284.284 245.700 C 284.331 244.765,284.196 244.000,283.984 244.000 C 283.508 244.000,283.657 243.105,284.200 242.706 C 284.420 242.544,284.195 242.409,283.700 242.406 C 283.205 242.403,282.800 242.175,282.800 241.900 C 282.800 241.510,279.773 241.400,269.000 241.400 C 258.227 241.400,255.200 241.510,255.200 241.900 C 255.200 242.175,254.795 242.403,254.300 242.406 C 253.805 242.409,253.580 242.544,253.800 242.706 C 254.343 243.105,254.492 244.000,254.016 244.000 C 253.804 244.000,253.669 244.765,253.716 245.700 L 253.800 247.400 252.100 247.316 C 251.165 247.269,250.400 247.404,250.400 247.616 C 250.400 248.092,249.505 247.943,249.106 247.400 C 248.944 247.180,248.809 247.405,248.806 247.900 C 248.802 248.563,248.563 248.802,247.900 248.806 C 247.405 248.809,247.180 248.944,247.400 249.106 C 247.943 249.505,248.092 250.400,247.616 250.400 C 247.404 250.400,247.269 251.165,247.316 252.100 L 247.400 253.800 245.700 253.716 C 244.765 253.669,244.000 253.804,244.000 254.016 C 244.000 254.492,243.105 254.343,242.706 253.800 C 242.544 253.580,242.409 253.805,242.406 254.300 C 242.403 254.795,242.174 255.200,241.897 255.200 C 241.554 255.200,241.390 255.929,241.378 257.500 L 241.362 259.800 239.681 259.716 C 238.756 259.669,238.000 259.804,238.000 260.016 C 238.000 260.492,237.105 260.343,236.706 259.800 C 236.544 259.580,236.409 259.805,236.406 260.300 C 236.402 260.963,236.163 261.202,235.500 261.206 C 235.005 261.209,234.780 261.344,235.000 261.506 C 235.543 261.905,235.692 262.800,235.216 262.800 C 235.004 262.800,234.869 263.565,234.916 264.500 L 235.000 266.200 233.300 266.116 C 232.365 266.069,231.600 266.204,231.600 266.416 C 231.600 266.892,230.705 266.743,230.306 266.200 C 230.144 265.980,230.009 266.205,230.006 266.700 C 230.002 267.363,229.763 267.602,229.100 267.606 C 228.605 267.609,228.380 267.744,228.600 267.906 C 229.143 268.305,229.292 269.200,228.816 269.200 C 228.604 269.200,228.469 269.965,228.516 270.900 L 228.600 272.600 226.914 272.516 C 225.986 272.470,225.108 272.624,224.964 272.859 C 224.788 273.143,224.586 273.105,224.356 272.743 C 224.105 272.346,224.011 272.443,224.006 273.100 C 224.002 273.763,223.763 274.002,223.100 274.006 C 222.369 274.011,222.313 274.086,222.800 274.406 C 223.242 274.696,223.275 274.881,222.928 275.106 C 222.668 275.275,222.488 276.130,222.528 277.006 L 222.599 278.600 215.800 278.600 L 209.001 278.600 209.072 277.006 C 209.112 276.130,208.932 275.275,208.672 275.106 C 208.325 274.881,208.358 274.696,208.800 274.406 C 209.314 274.069,209.299 274.011,208.700 274.006 C 208.244 274.002,207.998 273.686,207.994 273.100 C 207.991 272.605,207.856 272.380,207.694 272.600 C 207.295 273.143,206.400 273.292,206.400 272.816 C 206.400 272.604,205.635 272.469,204.700 272.516 L 203.000 272.600 203.084 270.900 C 203.131 269.965,202.996 269.200,202.784 269.200 C 202.308 269.200,202.457 268.305,203.000 267.906 C 203.220 267.744,202.995 267.609,202.500 267.606 C 201.837 267.602,201.598 267.363,201.594 266.700 C 201.591 266.205,201.456 265.980,201.294 266.200 C 200.913 266.719,200.000 266.901,200.000 266.458 C 200.000 266.270,197.886 266.135,195.301 266.158 L 190.602 266.200 190.686 264.500 C 190.731 263.565,190.596 262.800,190.384 262.800 C 189.908 262.800,190.057 261.905,190.600 261.506 C 190.820 261.344,190.595 261.209,190.100 261.206 C 189.437 261.202,189.198 260.963,189.194 260.300 C 189.191 259.805,189.056 259.580,188.894 259.800 C 188.495 260.343,187.600 260.492,187.600 260.016 C 187.600 259.804,186.835 259.669,185.900 259.716 L 184.200 259.800 184.291 258.300 C 184.341 257.475,184.206 256.800,183.991 256.800 C 183.510 256.800,183.654 255.907,184.200 255.506 C 184.420 255.344,184.195 255.209,183.700 255.206 C 183.037 255.202,182.798 254.963,182.794 254.300 C 182.791 253.805,182.656 253.580,182.494 253.800 C 182.095 254.343,181.200 254.492,181.200 254.016 C 181.200 253.804,180.435 253.669,179.500 253.716 L 177.800 253.800 177.884 252.100 C 177.931 251.165,177.796 250.400,177.584 250.400 C 177.108 250.400,177.257 249.505,177.800 249.106 C 178.020 248.944,177.795 248.809,177.300 248.806 C 176.637 248.802,176.398 248.563,176.394 247.900 C 176.389 247.243,176.295 247.146,176.044 247.543 C 175.814 247.905,175.612 247.943,175.436 247.659 C 175.292 247.424,174.414 247.270,173.486 247.316 L 171.800 247.400 171.884 245.700 C 171.931 244.765,171.796 244.000,171.584 244.000 C 171.108 244.000,171.257 243.105,171.800 242.706 C 172.020 242.544,171.795 242.409,171.300 242.406 C 170.805 242.403,170.400 242.174,170.400 241.898 C 170.400 241.552,169.624 241.388,167.900 241.369 L 165.400 241.341 165.484 239.671 C 165.531 238.752,165.396 238.000,165.184 238.000 C 164.708 238.000,164.857 237.105,165.400 236.706 C 165.620 236.544,165.395 236.409,164.900 236.406 C 164.237 236.402,163.998 236.163,163.994 235.500 C 163.991 235.005,163.856 234.780,163.694 235.000 C 163.295 235.543,162.400 235.692,162.400 235.216 C 162.400 235.004,161.635 234.869,160.700 234.916 L 159.000 235.000 159.084 233.300 C 159.131 232.365,158.996 231.600,158.784 231.600 C 158.308 231.600,158.457 230.705,159.000 230.306 C 159.226 230.140,159.095 230.010,158.700 230.006 C 158.244 230.002,157.998 229.686,157.994 229.100 C 157.991 228.605,157.856 228.380,157.694 228.600 C 157.295 229.143,156.400 229.292,156.400 228.816 C 156.400 228.604,155.635 228.469,154.700 228.516 L 153.001 228.600 153.073 227.006 C 153.112 226.130,152.932 225.275,152.672 225.106 C 152.325 224.881,152.358 224.696,152.800 224.406 C 153.287 224.086,153.231 224.011,152.500 224.006 C 151.837 224.002,151.598 223.763,151.594 223.100 C 151.591 222.605,151.456 222.380,151.294 222.600 C 150.895 223.143,150.000 223.292,150.000 222.816 C 150.000 222.604,149.235 222.469,148.300 222.516 L 146.600 222.600 146.684 220.900 C 146.731 219.965,146.596 219.200,146.384 219.200 C 145.908 219.200,146.057 218.305,146.600 217.906 C 146.820 217.744,146.595 217.609,146.100 217.606 C 145.437 217.602,145.198 217.363,145.194 216.700 C 145.191 216.205,145.056 215.980,144.894 216.200 C 144.493 216.746,143.600 216.890,143.600 216.409 C 143.600 216.194,142.925 216.059,142.100 216.109 L 140.600 216.200 140.684 214.500 C 140.731 213.565,140.596 212.800,140.384 212.800 C 139.908 212.800,140.057 211.905,140.600 211.506 C 140.820 211.344,140.595 211.209,140.100 211.206 C 139.437 211.202,139.198 210.963,139.194 210.300 C 139.191 209.805,139.056 209.580,138.894 209.800 C 138.495 210.343,137.600 210.492,137.600 210.016 C 137.600 209.804,136.835 209.669,135.900 209.714 L 134.200 209.798 134.242 205.099 C 134.265 202.514,134.130 200.400,133.942 200.400 C 133.499 200.400,133.681 199.487,134.200 199.106 C 134.420 198.944,134.195 198.809,133.700 198.806 C 133.037 198.802,132.798 198.563,132.794 197.900 C 132.791 197.405,132.656 197.180,132.494 197.400 C 132.095 197.943,131.200 198.092,131.200 197.616 C 131.200 197.404,130.435 197.269,129.500 197.316 L 127.800 197.400 127.884 195.700 C 127.931 194.765,127.796 194.000,127.584 194.000 C 127.108 194.000,127.257 193.105,127.800 192.706 C 128.020 192.544,127.795 192.409,127.300 192.406 C 126.805 192.403,126.400 192.166,126.400 191.880 C 126.400 191.514,125.718 191.359,124.100 191.356 L 121.800 191.351 121.800 184.575 L 121.800 177.800 123.486 177.884 C 124.414 177.930,125.292 177.776,125.436 177.541 C 125.612 177.257,125.814 177.295,126.044 177.657 C 126.295 178.054,126.389 177.957,126.394 177.300 C 126.398 176.637,126.637 176.398,127.300 176.394 C 127.795 176.391,128.020 176.256,127.800 176.094 C 127.267 175.702,127.105 174.800,127.568 174.800 C 127.770 174.800,127.905 174.125,127.868 173.300 L 127.801 171.800 129.500 171.884 C 130.435 171.931,131.200 171.796,131.200 171.584 C 131.200 171.108,132.095 171.257,132.494 171.800 C 132.656 172.020,132.791 171.795,132.794 171.300 C 132.798 170.637,133.037 170.398,133.700 170.394 C 134.195 170.391,134.420 170.256,134.200 170.094 C 133.657 169.695,133.508 168.800,133.984 168.800 C 134.196 168.800,134.331 168.035,134.284 167.100 L 134.200 165.400 135.900 165.484 C 136.835 165.531,137.600 165.396,137.600 165.184 C 137.600 164.708,138.495 164.857,138.894 165.400 C 139.056 165.620,139.191 165.395,139.194 164.900 C 139.198 164.237,139.437 163.998,140.100 163.994 C 140.595 163.991,140.820 163.856,140.600 163.694 C 140.057 163.295,139.908 162.400,140.384 162.400 C 140.596 162.400,140.731 161.635,140.684 160.700 L 140.600 159.000 142.100 159.091 C 142.925 159.141,143.600 159.006,143.600 158.791 C 143.600 158.310,144.493 158.454,144.894 159.000 C 145.060 159.226,145.190 159.095,145.194 158.700 C 145.198 158.244,145.514 157.998,146.100 157.994 C 146.595 157.991,146.820 157.856,146.600 157.694 C 146.057 157.295,145.908 156.400,146.384 156.400 C 146.596 156.400,146.731 155.635,146.684 154.700 L 146.600 153.000 148.300 153.084 C 149.235 153.131,150.000 152.996,150.000 152.784 C 150.000 152.308,150.895 152.457,151.294 153.000 C 151.456 153.220,151.591 152.995,151.594 152.500 C 151.598 151.837,151.837 151.598,152.500 151.594 C 152.995 151.591,153.220 151.456,153.000 151.294 C 152.457 150.895,152.308 150.000,152.784 150.000 C 152.996 150.000,153.131 149.235,153.084 148.300 L 153.000 146.600 154.700 146.684 C 155.635 146.731,156.400 146.596,156.400 146.384 C 156.400 145.908,157.295 146.057,157.694 146.600 C 157.856 146.820,157.991 146.595,157.994 146.100 C 157.998 145.514,158.244 145.198,158.700 145.194 C 159.095 145.190,159.226 145.060,159.000 144.894 C 158.506 144.531,158.290 143.600,158.700 143.600 C 158.865 143.600,159.000 138.110,159.000 131.400 C 159.000 124.690,158.865 119.200,158.700 119.200 C 158.290 119.200,158.506 118.269,159.000 117.906 C 159.226 117.740,159.095 117.610,158.700 117.606 C 158.244 117.602,157.998 117.286,157.994 116.700 C 157.991 116.205,157.856 115.980,157.694 116.200 C 157.295 116.743,156.400 116.892,156.400 116.416 C 156.400 116.204,155.635 116.069,154.700 116.116 L 153.000 116.200 153.000 105.100 C 153.000 98.995,152.865 94.000,152.700 94.000 C 152.290 94.000,152.506 93.069,153.000 92.706 C 153.220 92.544,152.995 92.409,152.500 92.406 C 152.005 92.403,151.600 92.174,151.600 91.898 C 151.600 91.552,150.824 91.388,149.100 91.369 L 146.600 91.341 146.600 74.070 C 146.600 64.571,146.465 56.800,146.300 56.800 C 145.890 56.800,146.106 55.869,146.600 55.506 C 146.820 55.344,146.595 55.209,146.100 55.206 C 145.437 55.202,145.198 54.963,145.194 54.300 C 145.191 53.805,145.056 53.580,144.894 53.800 C 144.493 54.346,143.600 54.490,143.600 54.009 C 143.600 53.794,142.925 53.659,142.100 53.709 L 140.600 53.800 140.684 52.100 C 140.731 51.165,140.596 50.400,140.384 50.400 C 139.908 50.400,140.057 49.505,140.600 49.106 C 140.820 48.944,140.595 48.809,140.100 48.806 C 139.437 48.802,139.198 48.563,139.194 47.900 C 139.191 47.405,139.056 47.180,138.894 47.400 C 138.531 47.894,137.600 48.110,137.600 47.700 C 137.600 47.535,117.980 47.400,94.000 47.400 C 70.020 47.400,50.400 47.535,50.400 47.700 C 50.400 48.110,49.469 47.894,49.106 47.400 C 48.944 47.180,48.809 47.405,48.806 47.900 " stroke="none" fill="#b3c100" fill-rule="evenodd"></path><path id="path1" d="M73.500 47.500 C 84.775 47.559,103.225 47.559,114.500 47.500 C 125.775 47.441,116.550 47.393,94.000 47.393 C 71.450 47.393,62.225 47.441,73.500 47.500 M47.391 87.800 C 47.391 106.940,47.440 114.829,47.500 105.330 C 47.560 95.832,47.560 80.172,47.500 70.530 C 47.440 60.889,47.391 68.660,47.391 87.800 M146.488 75.076 C 146.440 83.918,146.535 91.236,146.700 91.339 C 146.973 91.508,146.967 79.587,146.687 64.800 C 146.626 61.610,146.537 66.234,146.488 75.076 M152.882 106.276 C 152.837 111.598,152.935 116.037,153.100 116.139 C 153.265 116.241,153.354 113.417,153.297 109.863 C 153.105 97.786,152.965 96.576,152.882 106.276 M158.973 131.600 C 158.973 136.990,159.030 139.195,159.099 136.500 C 159.168 133.805,159.168 129.395,159.099 126.700 C 159.030 124.005,158.973 126.210,158.973 131.600 M53.599 137.519 L 53.799 147.400 53.907 137.827 C 53.966 132.562,53.876 128.116,53.707 127.947 C 53.538 127.777,53.490 132.085,53.599 137.519 M59.599 159.519 L 59.798 166.200 59.909 159.831 C 59.971 156.327,59.881 153.321,59.711 153.149 C 59.540 152.978,59.489 155.844,59.599 159.519 M65.999 178.319 L 66.198 185.000 66.309 178.631 C 66.371 175.127,66.281 172.121,66.111 171.949 C 65.940 171.778,65.889 174.644,65.999 178.319 M121.867 177.867 C 121.497 178.236,121.529 191.109,121.900 191.338 C 122.065 191.440,122.200 188.391,122.200 184.562 C 122.200 180.733,122.185 177.600,122.167 177.600 C 122.148 177.600,122.013 177.720,121.867 177.867 M72.397 193.918 L 72.593 197.400 72.715 194.238 C 72.781 192.499,72.693 190.932,72.518 190.756 C 72.343 190.580,72.288 192.003,72.397 193.918 M78.397 206.318 L 78.593 209.800 78.715 206.638 C 78.781 204.899,78.693 203.332,78.518 203.156 C 78.343 202.980,78.288 204.403,78.397 206.318 M134.060 206.276 C 134.027 208.078,134.135 209.637,134.300 209.739 C 134.465 209.842,134.550 208.818,134.488 207.463 C 134.300 203.322,134.123 202.831,134.060 206.276 M91.197 225.118 L 91.393 228.600 91.515 225.438 C 91.581 223.699,91.493 222.132,91.318 221.956 C 91.143 221.780,91.088 223.203,91.197 225.118 M263.900 241.499 C 266.595 241.568,271.005 241.568,273.700 241.499 C 276.395 241.430,274.190 241.373,268.800 241.373 C 263.410 241.373,261.205 241.430,263.900 241.499 M109.597 250.118 L 109.794 253.800 109.914 250.437 C 109.980 248.588,109.892 246.931,109.717 246.755 C 109.543 246.580,109.489 248.093,109.597 250.118 M284.347 247.307 C 284.516 247.476,288.962 247.566,294.227 247.507 L 303.800 247.399 293.919 247.199 C 288.485 247.090,284.177 247.138,284.347 247.307 M309.144 253.705 C 309.312 253.872,316.638 253.962,325.425 253.904 L 341.400 253.800 325.120 253.600 C 316.166 253.490,308.977 253.537,309.144 253.705 M190.756 266.118 C 190.932 266.293,192.499 266.381,194.238 266.315 L 197.400 266.193 193.918 265.997 C 192.003 265.888,190.580 265.943,190.756 266.118 M352.993 306.400 C 352.993 328.950,353.041 338.175,353.100 326.900 C 353.159 315.625,353.159 297.175,353.100 285.900 C 353.041 274.625,352.993 283.850,352.993 306.400 M209.062 278.500 C 209.164 278.665,212.196 278.800,215.800 278.800 C 219.404 278.800,222.436 278.665,222.538 278.500 C 222.640 278.335,219.608 278.200,215.800 278.200 C 211.992 278.200,208.960 278.335,209.062 278.500 M147.800 290.653 C 150.665 290.950,153.911 290.976,153.739 290.700 C 153.637 290.535,151.988 290.429,150.076 290.464 C 148.164 290.499,147.140 290.584,147.800 290.653 M172.800 309.048 C 175.116 309.345,178.712 309.377,178.539 309.100 C 178.437 308.935,176.878 308.827,175.076 308.860 C 173.274 308.893,172.250 308.978,172.800 309.048 M191.600 321.848 C 193.916 322.145,197.512 322.177,197.339 321.900 C 197.237 321.735,195.678 321.627,193.876 321.660 C 192.074 321.693,191.050 321.778,191.600 321.848 M204.000 327.848 C 206.316 328.145,209.912 328.177,209.739 327.900 C 209.637 327.735,208.078 327.627,206.276 327.660 C 204.474 327.693,203.450 327.778,204.000 327.848 M217.600 334.271 C 222.923 334.560,228.711 334.575,228.539 334.300 C 228.437 334.135,225.438 334.034,221.876 334.076 C 218.314 334.117,216.390 334.205,217.600 334.271 M236.400 340.671 C 241.723 340.960,247.511 340.975,247.339 340.700 C 247.237 340.535,244.238 340.434,240.676 340.476 C 237.114 340.517,235.190 340.605,236.400 340.671 M256.400 346.679 C 264.834 346.964,272.709 346.974,272.539 346.700 C 272.437 346.535,267.998 346.437,262.676 346.482 C 257.354 346.527,254.530 346.616,256.400 346.679 M295.330 353.100 C 304.972 353.160,320.632 353.160,330.130 353.100 C 339.629 353.040,331.740 352.991,312.600 352.991 C 293.460 352.991,285.689 353.040,295.330 353.100 " stroke="none" fill="#c6c600" fill-rule="evenodd"></path><path id="path2" d="" stroke="none" fill="#b1d800" fill-rule="evenodd"></path><path id="path3" d="" stroke="none" fill="#99ff00" fill-rule="evenodd"></path><path id="path4" d="" stroke="none" fill="#ffff00" fill-rule="evenodd"></path></g></svg>