<?xml version="1.0" encoding="UTF-8" standalone="no"?>
<svg
   xmlns:dc="http://purl.org/dc/elements/1.1/"
   xmlns:cc="http://creativecommons.org/ns#"
   xmlns:rdf="http://www.w3.org/1999/02/22-rdf-syntax-ns#"
   xmlns:svg="http://www.w3.org/2000/svg"
   xmlns="http://www.w3.org/2000/svg"
   xmlns:sodipodi="http://sodipodi.sourceforge.net/DTD/sodipodi-0.dtd"
   xmlns:inkscape="http://www.inkscape.org/namespaces/inkscape"
   height="30"
   viewBox="0 0 30 30"
   width="30"
   version="1.1"
   id="svg6"
   sodipodi:docname="ic_phone_black_24px.svg"
   style="fill:#000000"
   inkscape:version="0.92.2 (unknown)">
  <metadata
     id="metadata12">
    <rdf:RDF>
      <cc:Work
         rdf:about="">
        <dc:format>image/svg+xml</dc:format>
        <dc:type
           rdf:resource="http://purl.org/dc/dcmitype/StillImage" />
        <dc:title />
      </cc:Work>
    </rdf:RDF>
  </metadata>
  <defs
     id="defs10" />
  <sodipodi:namedview
     pagecolor="#ffffff"
     bordercolor="#666666"
     borderopacity="1"
     objecttolerance="10"
     gridtolerance="10"
     guidetolerance="10"
     inkscape:pageopacity="0"
     inkscape:pageshadow="2"
     inkscape:window-width="1305"
     inkscape:window-height="713"
     id="namedview8"
     showgrid="false"
     inkscape:zoom="17.8"
     inkscape:cx="15"
     inkscape:cy="15"
     inkscape:window-x="61"
     inkscape:window-y="27"
     inkscape:window-maximized="1"
     inkscape:current-layer="svg6" />
  <path
     d="M -3,9 H 21 V 33 H -3 Z"
     id="path2"
     inkscape:connector-curvature="0"
     style="fill:none" />
  <path
     d="M 6.0333333,12.983333 C 8.4333333,17.7 12.3,21.55 17.016667,23.966667 L 20.683333,20.3 c 0.45,-0.45 1.116667,-0.6 1.7,-0.4 1.866667,0.616667 3.883334,0.95 5.95,0.95 C 29.25,20.85 30,21.6 30,22.516667 v 5.816666 C 30,29.25 29.25,30 28.333333,30 12.683333,30 0,17.316667 0,1.666667 0,0.75 0.75,0 1.6666667,0 H 7.5 c 0.9166669,0 1.6666669,0.75 1.6666669,1.666667 0,2.083333 0.3333333,4.083333 0.9500001,5.95 C 10.3,8.2 10.166667,8.85 9.6999998,9.316667 Z"
     id="path4"
     inkscape:connector-curvature="0"
     style="fill:#b3c100;fill-opacity:1;stroke-width:1.66666675" />
</svg>
