<svg id="svg" version="1.1" width="400" height="400" xmlns="http://www.w3.org/2000/svg" xmlns:xlink="http://www.w3.org/1999/xlink" style="display: block;"><g id="svgg"><path id="path0" d="M192.406 29.100 C 192.403 29.595,192.165 30.000,191.878 30.000 C 191.472 30.000,191.361 31.261,191.378 35.668 L 191.400 41.337 188.900 41.367 C 187.177 41.387,186.400 41.552,186.400 41.898 C 186.400 42.174,185.995 42.403,185.500 42.406 C 185.005 42.409,184.780 42.544,185.000 42.706 C 185.495 43.070,185.709 44.000,185.298 44.000 C 185.131 44.000,184.996 47.555,184.998 51.900 L 185.000 59.800 183.300 59.716 C 182.365 59.669,181.600 59.804,181.600 60.016 C 181.600 60.492,180.705 60.343,180.306 59.800 C 180.144 59.580,180.009 59.805,180.006 60.300 C 180.002 60.963,179.763 61.202,179.100 61.206 C 178.605 61.209,178.380 61.344,178.600 61.506 C 179.117 61.886,179.301 62.800,178.861 62.800 C 178.675 62.800,178.540 65.005,178.561 67.699 L 178.600 72.598 176.914 72.515 C 175.986 72.470,175.108 72.624,174.964 72.859 C 174.788 73.143,174.586 73.105,174.356 72.743 C 174.105 72.346,174.011 72.443,174.006 73.100 C 174.002 73.763,173.763 74.002,173.100 74.006 C 172.369 74.011,172.313 74.086,172.800 74.406 C 173.209 74.675,173.261 74.896,172.965 75.100 C 172.689 75.290,172.543 77.155,172.565 80.200 L 172.600 84.999 170.900 84.915 C 169.965 84.869,169.200 85.004,169.200 85.216 C 169.200 85.692,168.305 85.543,167.906 85.000 C 167.744 84.780,167.609 85.005,167.606 85.500 C 167.602 86.163,167.363 86.402,166.700 86.406 C 166.205 86.409,165.980 86.544,166.200 86.706 C 166.695 87.070,166.909 88.000,166.498 88.000 C 166.331 88.000,166.196 91.555,166.198 95.900 L 166.200 103.800 164.500 103.716 C 163.565 103.669,162.800 103.804,162.800 104.016 C 162.800 104.492,161.905 104.343,161.506 103.800 C 161.344 103.580,161.209 103.805,161.206 104.300 C 161.202 104.963,160.963 105.202,160.300 105.206 C 159.805 105.209,159.580 105.344,159.800 105.506 C 160.310 105.881,160.504 106.800,160.073 106.800 C 159.893 106.800,159.758 108.915,159.773 111.500 L 159.800 116.200 158.300 116.109 C 157.475 116.059,156.800 116.194,156.800 116.409 C 156.800 116.890,155.907 116.746,155.506 116.200 C 155.344 115.980,155.209 116.205,155.206 116.700 C 155.202 117.363,154.963 117.602,154.300 117.606 C 153.805 117.609,153.580 117.744,153.800 117.906 C 154.319 118.287,154.501 119.200,154.058 119.200 C 153.870 119.200,153.735 121.314,153.758 123.899 L 153.800 128.598 152.100 128.514 C 151.165 128.469,150.400 128.604,150.400 128.816 C 150.400 129.292,149.505 129.143,149.106 128.600 C 148.944 128.380,148.809 128.605,148.806 129.100 C 148.802 129.763,148.563 130.002,147.900 130.006 C 147.405 130.009,147.180 130.144,147.400 130.306 C 147.917 130.686,148.101 131.600,147.661 131.600 C 147.475 131.600,147.340 133.805,147.361 136.500 L 147.400 141.400 113.700 141.400 C 87.006 141.400,80.000 141.504,80.000 141.900 C 80.000 142.175,79.595 142.403,79.100 142.406 C 78.605 142.409,78.380 142.544,78.600 142.706 C 79.143 143.105,79.292 144.000,78.816 144.000 C 78.604 144.000,78.469 144.765,78.516 145.700 L 78.600 147.400 55.100 147.400 C 42.175 147.400,31.600 147.535,31.600 147.700 C 31.600 148.110,30.669 147.894,30.306 147.400 C 30.144 147.180,30.009 147.405,30.006 147.900 C 30.002 148.563,29.763 148.802,29.100 148.806 C 28.605 148.809,28.380 148.944,28.600 149.106 C 29.094 149.469,29.310 150.400,28.900 150.400 C 28.735 150.400,28.600 153.100,28.600 156.400 C 28.600 159.700,28.735 162.400,28.900 162.400 C 29.310 162.400,29.094 163.331,28.600 163.694 C 28.380 163.856,28.605 163.991,29.100 163.994 C 29.763 163.998,30.002 164.237,30.006 164.900 C 30.009 165.395,30.144 165.620,30.306 165.400 C 30.705 164.857,31.600 164.708,31.600 165.184 C 31.600 165.396,32.365 165.531,33.300 165.484 L 35.000 165.400 34.916 167.100 C 34.869 168.035,35.004 168.800,35.216 168.800 C 35.692 168.800,35.543 169.695,35.000 170.094 C 34.780 170.256,35.005 170.391,35.500 170.394 C 36.163 170.398,36.402 170.637,36.406 171.300 C 36.409 171.795,36.544 172.020,36.706 171.800 C 37.087 171.281,38.000 171.099,38.000 171.542 C 38.000 171.730,40.113 171.865,42.696 171.842 L 47.391 171.800 47.328 173.300 C 47.293 174.125,47.430 174.800,47.632 174.800 C 48.095 174.800,47.933 175.702,47.400 176.094 C 47.180 176.256,47.405 176.391,47.900 176.394 C 48.563 176.398,48.802 176.637,48.806 177.300 C 48.809 177.795,48.944 178.020,49.106 177.800 C 49.505 177.257,50.400 177.108,50.400 177.584 C 50.400 177.796,51.165 177.931,52.100 177.884 L 53.800 177.800 53.716 179.500 C 53.669 180.435,53.804 181.200,54.016 181.200 C 54.492 181.200,54.343 182.095,53.800 182.494 C 53.580 182.656,53.805 182.791,54.300 182.794 C 54.963 182.798,55.202 183.037,55.206 183.700 C 55.209 184.195,55.344 184.420,55.506 184.200 C 55.907 183.654,56.800 183.510,56.800 183.991 C 56.800 184.206,57.475 184.341,58.300 184.291 L 59.800 184.200 59.716 185.900 C 59.669 186.835,59.804 187.600,60.016 187.600 C 60.492 187.600,60.343 188.495,59.800 188.894 C 59.580 189.056,59.805 189.191,60.300 189.194 C 60.963 189.198,61.202 189.437,61.206 190.100 C 61.209 190.595,61.344 190.820,61.506 190.600 C 61.905 190.057,62.800 189.908,62.800 190.384 C 62.800 190.596,63.565 190.731,64.500 190.684 L 66.200 190.600 66.109 192.100 C 66.059 192.925,66.194 193.600,66.409 193.600 C 66.890 193.600,66.746 194.493,66.200 194.894 C 65.980 195.056,66.205 195.191,66.700 195.194 C 67.363 195.198,67.602 195.437,67.606 196.100 C 67.609 196.595,67.744 196.820,67.906 196.600 C 68.305 196.057,69.200 195.908,69.200 196.384 C 69.200 196.596,69.965 196.731,70.900 196.684 L 72.600 196.600 72.516 198.300 C 72.469 199.235,72.604 200.000,72.816 200.000 C 73.292 200.000,73.143 200.895,72.600 201.294 C 72.380 201.456,72.605 201.591,73.100 201.594 C 73.763 201.598,74.002 201.837,74.006 202.500 C 74.011 203.157,74.105 203.254,74.356 202.857 C 74.586 202.495,74.788 202.457,74.964 202.741 C 75.108 202.976,75.986 203.130,76.914 203.084 L 78.600 203.000 78.516 204.700 C 78.469 205.635,78.604 206.400,78.816 206.400 C 79.292 206.400,79.143 207.295,78.600 207.694 C 78.380 207.856,78.605 207.991,79.100 207.994 C 79.686 207.998,80.002 208.244,80.006 208.700 C 80.010 209.095,80.140 209.226,80.306 209.000 C 80.686 208.483,81.600 208.299,81.600 208.739 C 81.600 208.925,83.790 209.060,86.467 209.039 L 91.334 209.000 91.365 211.500 C 91.387 213.222,91.552 214.000,91.898 214.000 C 92.174 214.000,92.403 214.405,92.406 214.900 C 92.409 215.395,92.544 215.620,92.706 215.400 C 93.105 214.857,94.000 214.708,94.000 215.184 C 94.000 215.396,94.765 215.531,95.700 215.484 L 97.400 215.400 97.316 217.100 C 97.269 218.035,97.404 218.800,97.616 218.800 C 98.092 218.800,97.943 219.695,97.400 220.094 C 97.180 220.256,97.405 220.391,97.900 220.394 C 98.563 220.398,98.802 220.637,98.806 221.300 C 98.809 221.795,98.944 222.020,99.106 221.800 C 99.505 221.257,100.400 221.108,100.400 221.584 C 100.400 221.796,101.165 221.931,102.100 221.884 L 103.799 221.800 103.732 223.300 C 103.695 224.125,103.830 224.800,104.032 224.800 C 104.495 224.800,104.333 225.702,103.800 226.094 C 103.580 226.256,103.805 226.391,104.300 226.394 C 104.963 226.398,105.202 226.637,105.206 227.300 C 105.209 227.795,105.344 228.020,105.506 227.800 C 105.907 227.254,106.800 227.110,106.800 227.591 C 106.800 227.806,107.475 227.941,108.300 227.891 L 109.800 227.800 109.716 229.500 C 109.669 230.435,109.804 231.200,110.016 231.200 C 110.492 231.200,110.343 232.095,109.800 232.494 C 109.580 232.656,109.805 232.791,110.300 232.794 C 110.963 232.798,111.202 233.037,111.206 233.700 C 111.209 234.195,111.344 234.420,111.506 234.200 C 111.905 233.657,112.800 233.508,112.800 233.984 C 112.800 234.196,113.565 234.331,114.500 234.284 L 116.200 234.200 116.200 244.000 L 116.200 253.800 114.500 253.716 C 113.565 253.669,112.800 253.804,112.800 254.016 C 112.800 254.492,111.905 254.343,111.506 253.800 C 111.344 253.580,111.209 253.805,111.206 254.300 C 111.202 254.963,110.963 255.202,110.300 255.206 C 109.805 255.209,109.580 255.344,109.800 255.506 C 110.294 255.869,110.510 256.800,110.100 256.800 C 109.935 256.800,109.800 261.705,109.800 267.700 L 109.800 278.600 108.300 278.509 C 107.475 278.459,106.800 278.594,106.800 278.809 C 106.800 279.290,105.907 279.146,105.506 278.600 C 105.344 278.380,105.209 278.605,105.206 279.100 C 105.202 279.763,104.963 280.002,104.300 280.006 C 103.805 280.009,103.580 280.144,103.800 280.306 C 104.294 280.669,104.510 281.600,104.100 281.600 C 103.935 281.600,103.800 286.595,103.800 292.700 L 103.800 303.800 102.100 303.716 C 101.165 303.669,100.400 303.804,100.400 304.016 C 100.400 304.492,99.505 304.343,99.106 303.800 C 98.944 303.580,98.809 303.805,98.806 304.300 C 98.802 304.963,98.563 305.202,97.900 305.206 C 97.405 305.209,97.180 305.344,97.400 305.506 C 97.894 305.869,98.110 306.800,97.700 306.800 C 97.535 306.800,97.400 313.145,97.400 320.900 L 97.400 335.000 95.700 334.916 C 94.765 334.869,94.000 335.004,94.000 335.216 C 94.000 335.692,93.105 335.543,92.706 335.000 C 92.544 334.780,92.409 335.005,92.406 335.500 C 92.403 335.995,92.175 336.400,91.900 336.400 C 91.518 336.400,91.400 338.187,91.400 344.000 C 91.400 349.813,91.518 351.600,91.900 351.600 C 92.175 351.600,92.403 352.005,92.406 352.500 C 92.409 352.995,92.544 353.220,92.706 353.000 C 93.069 352.506,94.000 352.290,94.000 352.700 C 94.000 352.865,98.140 353.000,103.200 353.000 C 108.260 353.000,112.400 352.865,112.400 352.700 C 112.400 352.290,113.331 352.506,113.694 353.000 C 113.856 353.220,113.991 352.995,113.994 352.500 C 113.998 351.837,114.237 351.598,114.900 351.594 C 115.395 351.591,115.620 351.456,115.400 351.294 C 114.857 350.895,114.708 350.000,115.184 350.000 C 115.396 350.000,115.531 349.235,115.484 348.300 L 115.400 346.600 117.100 346.684 C 118.035 346.731,118.800 346.596,118.800 346.384 C 118.800 345.908,119.695 346.057,120.094 346.600 C 120.256 346.820,120.391 346.595,120.394 346.100 C 120.398 345.437,120.637 345.198,121.300 345.194 C 121.795 345.191,122.020 345.056,121.800 344.894 C 121.254 344.493,121.110 343.600,121.591 343.600 C 121.806 343.600,121.941 342.925,121.891 342.100 L 121.800 340.600 126.500 340.642 C 129.085 340.665,131.200 340.530,131.200 340.342 C 131.200 339.899,132.113 340.081,132.494 340.600 C 132.656 340.820,132.791 340.595,132.794 340.100 C 132.798 339.437,133.037 339.198,133.700 339.194 C 134.195 339.191,134.420 339.056,134.200 338.894 C 133.657 338.495,133.508 337.600,133.984 337.600 C 134.196 337.600,134.331 336.835,134.285 335.900 L 134.201 334.200 138.901 334.227 C 141.485 334.242,143.600 334.107,143.600 333.927 C 143.600 333.496,144.519 333.690,144.894 334.200 C 145.056 334.420,145.191 334.195,145.194 333.700 C 145.198 333.037,145.437 332.798,146.100 332.794 C 146.595 332.791,146.820 332.656,146.600 332.494 C 146.057 332.095,145.908 331.200,146.384 331.200 C 146.596 331.200,146.731 330.435,146.684 329.500 L 146.600 327.800 148.300 327.884 C 149.235 327.931,150.000 327.796,150.000 327.584 C 150.000 327.108,150.895 327.257,151.294 327.800 C 151.456 328.020,151.591 327.795,151.594 327.300 C 151.598 326.637,151.837 326.398,152.500 326.394 C 152.995 326.391,153.220 326.256,153.000 326.094 C 152.467 325.702,152.305 324.800,152.768 324.800 C 152.970 324.800,153.107 324.125,153.072 323.300 L 153.009 321.800 157.704 321.842 C 160.287 321.865,162.400 321.730,162.400 321.542 C 162.400 321.099,163.313 321.281,163.694 321.800 C 163.856 322.020,163.991 321.795,163.994 321.300 C 163.998 320.637,164.237 320.398,164.900 320.394 C 165.395 320.391,165.620 320.256,165.400 320.094 C 164.857 319.695,164.708 318.800,165.184 318.800 C 165.396 318.800,165.531 318.035,165.485 317.100 L 165.400 315.400 170.200 315.400 C 172.840 315.400,175.210 315.264,175.466 315.098 C 175.722 314.931,176.023 315.021,176.134 315.298 C 176.246 315.574,176.351 315.395,176.368 314.900 C 176.391 314.245,176.645 313.998,177.300 313.994 C 177.795 313.991,178.020 313.856,177.800 313.694 C 177.257 313.295,177.108 312.400,177.584 312.400 C 177.796 312.400,177.931 311.635,177.884 310.700 L 177.800 309.000 179.500 309.084 C 180.435 309.131,181.200 308.996,181.200 308.784 C 181.200 308.308,182.095 308.457,182.494 309.000 C 182.660 309.226,182.790 309.095,182.794 308.700 C 182.798 308.244,183.114 307.998,183.700 307.994 C 184.195 307.991,184.420 307.856,184.200 307.694 C 183.657 307.295,183.508 306.400,183.984 306.400 C 184.196 306.400,184.331 305.635,184.285 304.700 L 184.201 303.000 188.901 303.027 C 191.485 303.042,193.600 302.907,193.600 302.727 C 193.600 302.296,194.519 302.490,194.894 303.000 C 195.056 303.220,195.191 302.995,195.194 302.500 C 195.198 301.837,195.437 301.598,196.100 301.594 C 196.595 301.591,196.820 301.456,196.600 301.294 C 196.057 300.895,195.908 300.000,196.384 300.000 C 196.596 300.000,196.731 299.235,196.684 298.300 L 196.600 296.600 200.200 296.600 L 203.800 296.600 203.716 298.300 C 203.669 299.235,203.804 300.000,204.016 300.000 C 204.492 300.000,204.343 300.895,203.800 301.294 C 203.580 301.456,203.805 301.591,204.300 301.594 C 204.963 301.598,205.202 301.837,205.206 302.500 C 205.209 302.995,205.344 303.220,205.506 303.000 C 205.881 302.490,206.800 302.296,206.800 302.727 C 206.800 302.907,208.915 303.042,211.499 303.027 L 216.199 303.000 216.115 304.700 C 216.069 305.635,216.204 306.400,216.416 306.400 C 216.892 306.400,216.743 307.295,216.200 307.694 C 215.980 307.856,216.205 307.991,216.700 307.994 C 217.286 307.998,217.602 308.244,217.606 308.700 C 217.610 309.095,217.740 309.226,217.906 309.000 C 218.305 308.457,219.200 308.308,219.200 308.784 C 219.200 308.996,219.965 309.131,220.900 309.084 L 222.600 309.000 222.516 310.700 C 222.469 311.635,222.604 312.400,222.816 312.400 C 223.292 312.400,223.143 313.295,222.600 313.694 C 222.380 313.856,222.605 313.991,223.100 313.994 C 223.755 313.998,224.009 314.245,224.032 314.900 C 224.049 315.395,224.154 315.574,224.266 315.298 C 224.377 315.021,224.678 314.931,224.934 315.098 C 225.190 315.264,227.560 315.400,230.200 315.400 L 235.000 315.400 234.915 317.100 C 234.869 318.035,235.004 318.800,235.216 318.800 C 235.692 318.800,235.543 319.695,235.000 320.094 C 234.780 320.256,235.005 320.391,235.500 320.394 C 236.163 320.398,236.402 320.637,236.406 321.300 C 236.409 321.795,236.544 322.020,236.706 321.800 C 237.087 321.281,238.000 321.099,238.000 321.542 C 238.000 321.730,240.113 321.865,242.696 321.842 L 247.391 321.800 247.328 323.300 C 247.293 324.125,247.430 324.800,247.632 324.800 C 248.095 324.800,247.933 325.702,247.400 326.094 C 247.180 326.256,247.405 326.391,247.900 326.394 C 248.563 326.398,248.802 326.637,248.806 327.300 C 248.809 327.795,248.944 328.020,249.106 327.800 C 249.505 327.257,250.400 327.108,250.400 327.584 C 250.400 327.796,251.165 327.931,252.100 327.884 L 253.800 327.800 253.716 329.500 C 253.669 330.435,253.804 331.200,254.016 331.200 C 254.492 331.200,254.343 332.095,253.800 332.494 C 253.580 332.656,253.805 332.791,254.300 332.794 C 254.963 332.798,255.202 333.037,255.206 333.700 C 255.209 334.195,255.344 334.420,255.506 334.200 C 255.881 333.690,256.800 333.496,256.800 333.927 C 256.800 334.107,258.915 334.242,261.499 334.227 L 266.199 334.200 266.115 335.900 C 266.069 336.835,266.204 337.600,266.416 337.600 C 266.892 337.600,266.743 338.495,266.200 338.894 C 265.980 339.056,266.205 339.191,266.700 339.194 C 267.363 339.198,267.602 339.437,267.606 340.100 C 267.609 340.595,267.744 340.820,267.906 340.600 C 268.287 340.081,269.200 339.899,269.200 340.342 C 269.200 340.530,271.315 340.665,273.900 340.642 L 278.600 340.600 278.509 342.100 C 278.459 342.925,278.594 343.600,278.809 343.600 C 279.290 343.600,279.146 344.493,278.600 344.894 C 278.380 345.056,278.605 345.191,279.100 345.194 C 279.763 345.198,280.002 345.437,280.006 346.100 C 280.009 346.595,280.144 346.820,280.306 346.600 C 280.705 346.057,281.600 345.908,281.600 346.384 C 281.600 346.596,282.365 346.731,283.300 346.684 L 285.000 346.600 284.916 348.300 C 284.869 349.235,285.004 350.000,285.216 350.000 C 285.692 350.000,285.543 350.895,285.000 351.294 C 284.780 351.456,285.005 351.591,285.500 351.594 C 286.163 351.598,286.402 351.837,286.406 352.500 C 286.409 352.995,286.544 353.220,286.706 353.000 C 287.069 352.506,288.000 352.290,288.000 352.700 C 288.000 352.865,292.140 353.000,297.200 353.000 C 302.260 353.000,306.400 352.865,306.400 352.700 C 306.400 352.290,307.331 352.506,307.694 353.000 C 307.856 353.220,307.991 352.995,307.994 352.500 C 307.998 351.914,308.244 351.598,308.700 351.594 C 309.095 351.590,309.226 351.460,309.000 351.294 C 308.506 350.931,308.290 350.000,308.700 350.000 C 308.865 350.000,309.000 347.300,309.000 344.000 C 309.000 340.700,308.865 338.000,308.700 338.000 C 308.290 338.000,308.506 337.069,309.000 336.706 C 309.226 336.540,309.095 336.410,308.700 336.406 C 308.244 336.402,307.998 336.086,307.994 335.500 C 307.991 335.005,307.856 334.780,307.694 335.000 C 307.295 335.543,306.400 335.692,306.400 335.216 C 306.400 335.004,305.635 334.869,304.700 334.916 L 303.000 335.000 303.000 320.900 C 303.000 313.145,302.865 306.800,302.700 306.800 C 302.290 306.800,302.506 305.869,303.000 305.506 C 303.220 305.344,302.995 305.209,302.500 305.206 C 301.837 305.202,301.598 304.963,301.594 304.300 C 301.591 303.805,301.456 303.580,301.294 303.800 C 300.895 304.343,300.000 304.492,300.000 304.016 C 300.000 303.804,299.235 303.669,298.300 303.716 L 296.600 303.800 296.600 292.700 C 296.600 286.595,296.465 281.600,296.300 281.600 C 295.890 281.600,296.106 280.669,296.600 280.306 C 296.820 280.144,296.595 280.009,296.100 280.006 C 295.437 280.002,295.198 279.763,295.194 279.100 C 295.191 278.605,295.056 278.380,294.894 278.600 C 294.493 279.146,293.600 279.290,293.600 278.809 C 293.600 278.594,292.925 278.459,292.100 278.509 L 290.600 278.600 290.600 267.700 C 290.600 261.705,290.465 256.800,290.300 256.800 C 289.890 256.800,290.106 255.869,290.600 255.506 C 290.820 255.344,290.595 255.209,290.100 255.206 C 289.437 255.202,289.198 254.963,289.194 254.300 C 289.191 253.805,289.056 253.580,288.894 253.800 C 288.495 254.343,287.600 254.492,287.600 254.016 C 287.600 253.804,286.835 253.669,285.900 253.716 L 284.200 253.800 284.200 244.000 L 284.200 234.200 285.900 234.284 C 286.835 234.331,287.600 234.196,287.600 233.984 C 287.600 233.508,288.495 233.657,288.894 234.200 C 289.056 234.420,289.191 234.195,289.194 233.700 C 289.198 233.037,289.437 232.798,290.100 232.794 C 290.595 232.791,290.820 232.656,290.600 232.494 C 290.057 232.095,289.908 231.200,290.384 231.200 C 290.596 231.200,290.731 230.435,290.684 229.500 L 290.600 227.800 292.100 227.891 C 292.925 227.941,293.600 227.806,293.600 227.591 C 293.600 227.110,294.493 227.254,294.894 227.800 C 295.056 228.020,295.191 227.795,295.194 227.300 C 295.198 226.637,295.437 226.398,296.100 226.394 C 296.595 226.391,296.820 226.256,296.600 226.094 C 296.067 225.702,295.905 224.800,296.368 224.800 C 296.570 224.800,296.705 224.125,296.668 223.300 L 296.601 221.800 298.300 221.884 C 299.235 221.931,300.000 221.796,300.000 221.584 C 300.000 221.108,300.895 221.257,301.294 221.800 C 301.456 222.020,301.591 221.795,301.594 221.300 C 301.598 220.637,301.837 220.398,302.500 220.394 C 302.995 220.391,303.220 220.256,303.000 220.094 C 302.457 219.695,302.308 218.800,302.784 218.800 C 302.996 218.800,303.131 218.035,303.084 217.100 L 303.000 215.400 304.700 215.484 C 305.635 215.531,306.400 215.396,306.400 215.184 C 306.400 214.708,307.295 214.857,307.694 215.400 C 307.856 215.620,307.991 215.395,307.994 214.900 C 307.998 214.314,308.244 213.998,308.700 213.994 C 309.095 213.990,309.226 213.860,309.000 213.694 C 308.457 213.295,308.308 212.400,308.784 212.400 C 308.996 212.400,309.131 211.635,309.085 210.700 L 309.002 209.000 313.901 209.039 C 316.595 209.060,318.800 208.925,318.800 208.739 C 318.800 208.299,319.714 208.483,320.094 209.000 C 320.260 209.226,320.390 209.095,320.394 208.700 C 320.398 208.244,320.714 207.998,321.300 207.994 C 321.795 207.991,322.020 207.856,321.800 207.694 C 321.257 207.295,321.108 206.400,321.584 206.400 C 321.796 206.400,321.931 205.635,321.884 204.700 L 321.800 203.000 323.486 203.084 C 324.414 203.130,325.292 202.976,325.436 202.741 C 325.612 202.457,325.814 202.495,326.044 202.857 C 326.295 203.254,326.389 203.157,326.394 202.500 C 326.398 201.837,326.637 201.598,327.300 201.594 C 327.795 201.591,328.020 201.456,327.800 201.294 C 327.257 200.895,327.108 200.000,327.584 200.000 C 327.796 200.000,327.931 199.235,327.884 198.300 L 327.800 196.600 329.500 196.684 C 330.435 196.731,331.200 196.596,331.200 196.384 C 331.200 195.908,332.095 196.057,332.494 196.600 C 332.656 196.820,332.791 196.595,332.794 196.100 C 332.798 195.437,333.037 195.198,333.700 195.194 C 334.195 195.191,334.420 195.056,334.200 194.894 C 333.654 194.493,333.510 193.600,333.991 193.600 C 334.206 193.600,334.341 192.925,334.291 192.100 L 334.200 190.600 335.900 190.684 C 336.835 190.731,337.600 190.596,337.600 190.384 C 337.600 189.908,338.495 190.057,338.894 190.600 C 339.056 190.820,339.191 190.595,339.194 190.100 C 339.198 189.437,339.437 189.198,340.100 189.194 C 340.595 189.191,340.820 189.056,340.600 188.894 C 340.057 188.495,339.908 187.600,340.384 187.600 C 340.596 187.600,340.731 186.835,340.684 185.900 L 340.600 184.200 342.100 184.291 C 342.925 184.341,343.600 184.206,343.600 183.991 C 343.600 183.510,344.493 183.654,344.894 184.200 C 345.056 184.420,345.191 184.195,345.194 183.700 C 345.198 183.037,345.437 182.798,346.100 182.794 C 346.595 182.791,346.820 182.656,346.600 182.494 C 346.057 182.095,345.908 181.200,346.384 181.200 C 346.596 181.200,346.731 180.435,346.684 179.500 L 346.600 177.800 348.300 177.884 C 349.235 177.931,350.000 177.796,350.000 177.584 C 350.000 177.108,350.895 177.257,351.294 177.800 C 351.456 178.020,351.591 177.795,351.594 177.300 C 351.598 176.637,351.837 176.398,352.500 176.394 C 352.995 176.391,353.220 176.256,353.000 176.094 C 352.467 175.702,352.305 174.800,352.768 174.800 C 352.970 174.800,353.107 174.125,353.072 173.300 L 353.009 171.800 357.704 171.842 C 360.287 171.865,362.400 171.730,362.400 171.542 C 362.400 171.099,363.313 171.281,363.694 171.800 C 363.856 172.020,363.991 171.795,363.994 171.300 C 363.998 170.637,364.237 170.398,364.900 170.394 C 365.395 170.391,365.620 170.256,365.400 170.094 C 364.857 169.695,364.708 168.800,365.184 168.800 C 365.396 168.800,365.531 168.035,365.484 167.100 L 365.400 165.400 367.100 165.484 C 368.035 165.531,368.800 165.396,368.800 165.184 C 368.800 164.708,369.695 164.857,370.094 165.400 C 370.256 165.620,370.391 165.395,370.394 164.900 C 370.398 164.237,370.637 163.998,371.300 163.994 C 371.795 163.991,372.020 163.856,371.800 163.694 C 371.306 163.331,371.090 162.400,371.500 162.400 C 371.665 162.400,371.800 159.700,371.800 156.400 C 371.800 153.100,371.665 150.400,371.500 150.400 C 371.090 150.400,371.306 149.469,371.800 149.106 C 372.020 148.944,371.795 148.809,371.300 148.806 C 370.637 148.802,370.398 148.563,370.394 147.900 C 370.391 147.405,370.256 147.180,370.094 147.400 C 369.731 147.894,368.800 148.110,368.800 147.700 C 368.800 147.535,359.575 147.400,348.300 147.400 L 327.800 147.400 327.884 145.700 C 327.931 144.765,327.796 144.000,327.584 144.000 C 327.108 144.000,327.257 143.105,327.800 142.706 C 328.020 142.544,327.795 142.409,327.300 142.406 C 326.805 142.403,326.400 142.175,326.400 141.900 C 326.400 141.504,318.794 141.400,289.700 141.400 L 253.000 141.400 253.039 136.500 C 253.060 133.805,252.925 131.600,252.739 131.600 C 252.299 131.600,252.483 130.686,253.000 130.306 C 253.220 130.144,252.995 130.009,252.500 130.006 C 251.837 130.002,251.598 129.763,251.594 129.100 C 251.591 128.605,251.456 128.380,251.294 128.600 C 250.895 129.143,250.000 129.292,250.000 128.816 C 250.000 128.604,249.235 128.469,248.300 128.514 L 246.600 128.598 246.642 123.899 C 246.665 121.314,246.530 119.200,246.342 119.200 C 245.899 119.200,246.081 118.287,246.600 117.906 C 246.820 117.744,246.595 117.609,246.100 117.606 C 245.437 117.602,245.198 117.363,245.194 116.700 C 245.191 116.205,245.056 115.980,244.894 116.200 C 244.493 116.746,243.600 116.890,243.600 116.409 C 243.600 116.194,242.925 116.059,242.100 116.109 L 240.600 116.200 240.627 111.500 C 240.642 108.915,240.507 106.800,240.327 106.800 C 239.896 106.800,240.090 105.881,240.600 105.506 C 240.820 105.344,240.595 105.209,240.100 105.206 C 239.437 105.202,239.198 104.963,239.194 104.300 C 239.191 103.805,239.056 103.580,238.894 103.800 C 238.495 104.343,237.600 104.492,237.600 104.016 C 237.600 103.804,236.835 103.669,235.900 103.716 L 234.200 103.800 234.202 95.900 C 234.204 91.555,234.069 88.000,233.902 88.000 C 233.491 88.000,233.705 87.070,234.200 86.706 C 234.420 86.544,234.195 86.409,233.700 86.406 C 233.037 86.402,232.798 86.163,232.794 85.500 C 232.791 85.005,232.656 84.780,232.494 85.000 C 232.095 85.543,231.200 85.692,231.200 85.216 C 231.200 85.004,230.435 84.869,229.500 84.915 L 227.800 84.999 227.835 80.200 C 227.857 77.155,227.711 75.290,227.435 75.100 C 227.139 74.896,227.191 74.675,227.600 74.406 C 228.087 74.086,228.031 74.011,227.300 74.006 C 226.637 74.002,226.398 73.763,226.394 73.100 C 226.389 72.443,226.295 72.346,226.044 72.743 C 225.814 73.105,225.612 73.143,225.436 72.859 C 225.292 72.624,224.414 72.470,223.486 72.515 L 221.800 72.598 221.839 67.699 C 221.860 65.005,221.725 62.800,221.539 62.800 C 221.099 62.800,221.283 61.886,221.800 61.506 C 222.020 61.344,221.795 61.209,221.300 61.206 C 220.637 61.202,220.398 60.963,220.394 60.300 C 220.391 59.805,220.256 59.580,220.094 59.800 C 219.695 60.343,218.800 60.492,218.800 60.016 C 218.800 59.804,218.035 59.669,217.100 59.716 L 215.400 59.800 215.402 51.900 C 215.404 47.555,215.269 44.000,215.102 44.000 C 214.691 44.000,214.905 43.070,215.400 42.706 C 215.620 42.544,215.395 42.409,214.900 42.406 C 214.405 42.403,214.000 42.174,214.000 41.898 C 214.000 41.552,213.222 41.387,211.500 41.365 L 209.000 41.334 209.039 36.467 C 209.060 33.790,208.925 31.600,208.739 31.600 C 208.299 31.600,208.483 30.686,209.000 30.306 C 209.226 30.140,209.095 30.010,208.700 30.006 C 208.244 30.002,207.998 29.686,207.994 29.100 C 207.991 28.605,207.856 28.380,207.694 28.600 C 207.331 29.094,206.400 29.310,206.400 28.900 C 206.400 28.735,203.610 28.600,200.200 28.600 C 196.790 28.600,194.000 28.735,194.000 28.900 C 194.000 29.310,193.069 29.094,192.706 28.600 C 192.544 28.380,192.409 28.605,192.406 29.100 " stroke="none" fill="#b3c100" fill-rule="evenodd"></path><path id="path1" d="M198.512 28.695 C 199.564 28.777,201.184 28.776,202.112 28.692 C 203.040 28.608,202.180 28.541,200.200 28.542 C 198.220 28.543,197.460 28.612,198.512 28.695 M191.197 37.882 C 191.089 39.907,191.143 41.420,191.317 41.245 C 191.492 41.069,191.580 39.412,191.514 37.563 L 191.394 34.200 191.197 37.882 M208.864 37.676 C 208.829 39.588,208.935 41.237,209.100 41.339 C 209.265 41.442,209.350 40.418,209.289 39.063 C 209.089 34.652,208.929 34.130,208.864 37.676 M184.799 53.281 C 184.689 56.956,184.740 59.822,184.911 59.651 C 185.081 59.479,185.171 56.473,185.109 52.969 L 184.998 46.600 184.799 53.281 M215.276 53.076 C 215.234 56.638,215.335 59.637,215.500 59.739 C 215.665 59.842,215.753 57.918,215.695 55.463 C 215.505 47.372,215.352 46.504,215.276 53.076 M178.397 69.082 C 178.289 71.107,178.343 72.620,178.517 72.445 C 178.692 72.269,178.780 70.612,178.714 68.763 L 178.594 65.400 178.397 69.082 M221.664 68.876 C 221.629 70.788,221.735 72.437,221.900 72.539 C 222.065 72.642,222.150 71.618,222.089 70.263 C 221.889 65.852,221.729 65.330,221.664 68.876 M172.397 81.482 C 172.289 83.507,172.343 85.020,172.517 84.845 C 172.692 84.669,172.780 83.012,172.714 81.163 L 172.594 77.800 172.397 81.482 M227.664 81.276 C 227.629 83.188,227.735 84.837,227.900 84.939 C 228.065 85.042,228.150 84.018,228.089 82.663 C 227.889 78.252,227.729 77.730,227.664 81.276 M165.999 97.281 C 165.889 100.956,165.940 103.822,166.111 103.651 C 166.281 103.479,166.371 100.473,166.309 96.969 L 166.198 90.600 165.999 97.281 M234.076 97.076 C 234.034 100.638,234.135 103.637,234.300 103.739 C 234.465 103.842,234.553 101.918,234.495 99.463 C 234.305 91.372,234.152 90.504,234.076 97.076 M159.597 112.682 C 159.489 114.707,159.543 116.220,159.717 116.045 C 159.892 115.869,159.980 114.212,159.914 112.363 L 159.794 109.000 159.597 112.682 M240.464 112.476 C 240.429 114.388,240.535 116.037,240.700 116.139 C 240.865 116.242,240.950 115.218,240.889 113.863 C 240.689 109.452,240.529 108.930,240.464 112.476 M153.597 125.282 C 153.488 127.197,153.543 128.620,153.718 128.444 C 153.893 128.268,153.981 126.701,153.915 124.962 L 153.793 121.800 153.597 125.282 M246.460 125.076 C 246.427 126.878,246.535 128.437,246.700 128.539 C 246.865 128.642,246.950 127.618,246.888 126.263 C 246.700 122.122,246.523 121.631,246.460 125.076 M147.280 137.698 L 147.200 141.195 115.700 141.300 L 84.200 141.405 115.713 141.502 C 141.731 141.583,147.261 141.507,147.431 141.065 C 147.544 140.770,147.574 139.105,147.498 137.365 L 147.361 134.200 147.280 137.698 M252.974 137.800 L 253.000 141.400 287.700 141.403 L 322.400 141.407 287.816 141.301 L 253.231 141.196 253.089 137.698 L 252.947 134.200 252.974 137.800 M56.400 147.200 L 34.200 147.410 56.276 147.505 C 70.666 147.567,78.439 147.461,78.600 147.200 C 78.736 146.980,78.792 146.843,78.724 146.895 C 78.656 146.947,68.610 147.084,56.400 147.200 M327.944 147.304 C 328.111 147.471,336.787 147.561,347.224 147.504 L 366.200 147.400 346.920 147.200 C 336.316 147.090,327.776 147.137,327.944 147.304 M28.540 156.400 C 28.540 158.270,28.609 159.035,28.693 158.100 C 28.777 157.165,28.777 155.635,28.693 154.700 C 28.609 153.765,28.540 154.530,28.540 156.400 M371.740 156.400 C 371.740 158.270,371.809 159.035,371.893 158.100 C 371.977 157.165,371.977 155.635,371.893 154.700 C 371.809 153.765,371.740 154.530,371.740 156.400 M41.600 171.848 C 43.916 172.145,47.512 172.177,47.339 171.900 C 47.237 171.735,45.678 171.627,43.876 171.660 C 42.074 171.693,41.050 171.778,41.600 171.848 M353.061 171.900 C 352.958 172.065,353.982 172.150,355.337 172.088 C 359.478 171.900,359.969 171.723,356.524 171.660 C 354.722 171.627,353.163 171.735,353.061 171.900 M85.400 209.053 C 88.265 209.350,91.511 209.376,91.339 209.100 C 91.237 208.935,89.588 208.829,87.676 208.864 C 85.764 208.899,84.740 208.984,85.400 209.053 M309.061 209.100 C 308.958 209.265,309.982 209.350,311.337 209.289 C 315.748 209.089,316.270 208.929,312.724 208.864 C 310.812 208.829,309.163 208.935,309.061 209.100 M115.800 244.000 C 115.800 249.458,115.935 253.840,116.100 253.738 C 116.265 253.636,116.400 249.254,116.400 244.000 C 116.400 238.746,116.265 234.364,116.100 234.262 C 115.935 234.160,115.800 238.542,115.800 244.000 M284.267 234.267 C 283.897 234.636,283.929 253.509,284.300 253.738 C 284.465 253.840,284.600 249.441,284.600 243.962 C 284.600 238.483,284.585 234.000,284.567 234.000 C 284.548 234.000,284.413 234.120,284.267 234.267 M109.599 268.881 C 109.490 274.315,109.538 278.623,109.707 278.453 C 109.876 278.284,109.966 273.838,109.907 268.573 L 109.799 259.000 109.599 268.881 M290.482 268.676 C 290.437 273.998,290.535 278.437,290.700 278.539 C 290.865 278.641,290.954 275.817,290.897 272.263 C 290.705 260.186,290.565 258.976,290.482 268.676 M103.599 294.081 C 103.490 299.515,103.538 303.823,103.707 303.653 C 103.876 303.484,103.966 299.038,103.907 293.773 L 103.799 284.200 103.599 294.081 M296.482 293.876 C 296.437 299.198,296.535 303.637,296.700 303.739 C 296.865 303.841,296.954 301.017,296.897 297.463 C 296.705 285.386,296.565 284.176,296.482 293.876 M196.662 296.700 C 196.560 296.865,198.152 297.000,200.200 297.000 C 202.248 297.000,203.840 296.865,203.738 296.700 C 203.636 296.535,202.044 296.400,200.200 296.400 C 198.356 296.400,196.764 296.535,196.662 296.700 M184.261 303.100 C 184.158 303.265,185.182 303.350,186.537 303.289 C 190.948 303.089,191.470 302.929,187.924 302.864 C 186.012 302.829,184.363 302.935,184.261 303.100 M210.200 303.053 C 213.065 303.350,216.311 303.376,216.139 303.100 C 216.037 302.935,214.388 302.829,212.476 302.864 C 210.564 302.899,209.540 302.984,210.200 303.053 M97.200 322.080 C 97.090 329.275,97.138 335.023,97.306 334.855 C 97.474 334.686,97.564 328.800,97.505 321.774 L 97.399 309.000 97.200 322.080 M302.886 321.876 C 302.839 328.958,302.935 334.836,303.100 334.939 C 303.265 335.041,303.354 331.317,303.298 326.662 C 303.104 310.584,302.972 309.047,302.886 321.876 M165.461 315.500 C 165.358 315.665,166.382 315.750,167.737 315.689 C 172.148 315.489,172.670 315.329,169.124 315.264 C 167.212 315.229,165.563 315.335,165.461 315.500 M229.000 315.453 C 231.865 315.750,235.111 315.776,234.939 315.500 C 234.837 315.335,233.188 315.229,231.276 315.264 C 229.364 315.299,228.340 315.384,229.000 315.453 M153.061 321.900 C 152.958 322.065,153.982 322.150,155.337 322.088 C 159.478 321.900,159.969 321.723,156.524 321.660 C 154.722 321.627,153.163 321.735,153.061 321.900 M241.600 321.848 C 243.916 322.145,247.512 322.177,247.339 321.900 C 247.237 321.735,245.678 321.627,243.876 321.660 C 242.074 321.693,241.050 321.778,241.600 321.848 M134.261 334.300 C 134.158 334.465,135.182 334.550,136.537 334.489 C 140.948 334.289,141.470 334.129,137.924 334.064 C 136.012 334.029,134.363 334.135,134.261 334.300 M260.200 334.253 C 263.065 334.550,266.311 334.576,266.139 334.300 C 266.037 334.135,264.388 334.029,262.476 334.064 C 260.564 334.099,259.540 334.184,260.200 334.253 M121.861 340.700 C 121.758 340.865,122.782 340.950,124.137 340.888 C 128.278 340.700,128.769 340.523,125.324 340.460 C 123.522 340.427,121.963 340.535,121.861 340.700 M272.800 340.648 C 275.116 340.945,278.712 340.977,278.539 340.700 C 278.437 340.535,276.878 340.427,275.076 340.460 C 273.274 340.493,272.250 340.578,272.800 340.648 M91.340 344.000 C 91.340 345.870,91.409 346.635,91.493 345.700 C 91.577 344.765,91.577 343.235,91.493 342.300 C 91.409 341.365,91.340 342.130,91.340 344.000 M308.940 344.000 C 308.940 345.870,309.009 346.635,309.093 345.700 C 309.177 344.765,309.177 343.235,309.093 342.300 C 309.009 341.365,308.940 342.130,308.940 344.000 M99.900 353.098 C 101.715 353.172,104.685 353.172,106.500 353.098 C 108.315 353.023,106.830 352.963,103.200 352.963 C 99.570 352.963,98.085 353.023,99.900 353.098 M293.900 353.098 C 295.715 353.172,298.685 353.172,300.500 353.098 C 302.315 353.023,300.830 352.963,297.200 352.963 C 293.570 352.963,292.085 353.023,293.900 353.098 " stroke="none" fill="#c6c600" fill-rule="evenodd"></path><path id="path2" d="" stroke="none" fill="#b1d800" fill-rule="evenodd"></path><path id="path3" d="" stroke="none" fill="#99ff00" fill-rule="evenodd"></path><path id="path4" d="" stroke="none" fill="#ffff00" fill-rule="evenodd"></path></g></svg>